<svg width="36" height="50" viewBox="0 0 36 50" fill="none" xmlns="http://www.w3.org/2000/svg">
<g clip-path="url(#clip0_1409_49371)">
<rect x="0.541237" y="0.541237" width="34.9175" height="48.9175" rx="3.2732" fill="white" stroke="white" stroke-width="1.08247"/>
<mask id="mask0_1409_49371" style="mask-type:alpha" maskUnits="userSpaceOnUse" x="12" y="27" width="20" height="21">
<path d="M22.2129 27.5667C22.9696 28.7633 25.0608 31.6177 27.6074 33.8059C30.8284 36.5735 31.8223 37.8511 31.8223 40.2727C31.8221 42.5947 29.9392 44.4768 27.6172 44.4768H26.6318C24.3099 44.4767 22.4279 42.5946 22.4277 40.2727C22.3742 41.8873 23.0722 45.5252 26.293 47.1643H18.1055C21.3262 45.5252 22.0243 41.8873 21.9707 40.2727C21.9705 42.5946 20.0886 44.4767 17.7666 44.4768H16.7812C14.4592 44.4768 12.5764 42.5947 12.5762 40.2727C12.5762 37.8511 13.57 36.5735 16.791 33.8059C19.3377 31.6177 21.4288 28.7633 22.1855 27.5667V27.5256C22.1899 27.5325 22.1948 27.5391 22.1992 27.5461C22.2036 27.5391 22.2086 27.5325 22.2129 27.5256V27.5667Z" fill="#EE5252"/>
</mask>
<g mask="url(#mask0_1409_49371)">
<path d="M22.2129 27.5667C22.9696 28.7633 25.0608 31.6177 27.6074 33.8059C30.8284 36.5735 31.8223 37.8511 31.8223 40.2727C31.8221 42.5947 29.9392 44.4768 27.6172 44.4768H26.6318C24.3099 44.4767 22.4279 42.5946 22.4277 40.2727C22.3742 41.8873 23.0722 45.5252 26.293 47.1643H18.1055C21.3262 45.5252 22.0243 41.8873 21.9707 40.2727C21.9705 42.5946 20.0886 44.4767 17.7666 44.4768H16.7812C14.4592 44.4768 12.5764 42.5947 12.5762 40.2727C12.5762 37.8511 13.57 36.5735 16.791 33.8059C19.3377 31.6177 21.4288 28.7633 22.1855 27.5667V27.5256C22.1899 27.5325 22.1948 27.5391 22.1992 27.5461C22.2036 27.5391 22.2086 27.5325 22.2129 27.5256V27.5667Z" fill="#1A181E"/>
<rect x="12.5762" y="27.5256" width="9.63331" height="19.6392" fill="url(#paint0_linear_1409_49371)" fill-opacity="0.6"/>
</g>
<mask id="mask1_1409_49371" style="mask-type:alpha" maskUnits="userSpaceOnUse" x="8" y="23" width="5" height="5">
<path d="M10.7041 23.4119C10.881 23.6915 11.3692 24.3579 11.9639 24.8689C12.7163 25.5154 12.9482 25.814 12.9482 26.3796C12.9482 26.9221 12.5083 27.3621 11.9658 27.3621H11.7363C11.1939 27.3621 10.7539 26.9221 10.7539 26.3796C10.7414 26.7568 10.9048 27.6071 11.6572 27.99H9.74414C10.4965 27.6071 10.66 26.7568 10.6475 26.3796C10.6475 26.9221 10.2075 27.3621 9.66504 27.3621H9.43457C8.89234 27.3618 8.45312 26.9219 8.45312 26.3796C8.45313 25.814 8.68511 25.5154 9.4375 24.8689C10.0321 24.3579 10.5204 23.6915 10.6973 23.4119V23.4021C10.6982 23.4037 10.6992 23.4054 10.7002 23.407C10.7013 23.4053 10.703 23.4038 10.7041 23.4021V23.4119Z" fill="#EE5252"/>
</mask>
<g mask="url(#mask1_1409_49371)">
<path d="M10.7041 23.4119C10.881 23.6915 11.3692 24.3579 11.9639 24.8689C12.7163 25.5154 12.9482 25.814 12.9482 26.3796C12.9482 26.9221 12.5083 27.3621 11.9658 27.3621H11.7363C11.1939 27.3621 10.7539 26.9221 10.7539 26.3796C10.7414 26.7568 10.9048 27.6071 11.6572 27.99H9.74414C10.4965 27.6071 10.66 26.7568 10.6475 26.3796C10.6475 26.9221 10.2075 27.3621 9.66504 27.3621H9.43457C8.89234 27.3618 8.45312 26.9219 8.45312 26.3796C8.45313 25.814 8.68511 25.5154 9.4375 24.8689C10.0321 24.3579 10.5204 23.6915 10.6973 23.4119V23.4021C10.6982 23.4037 10.6992 23.4054 10.7002 23.407C10.7013 23.4053 10.703 23.4038 10.7041 23.4021V23.4119Z" fill="#1A181E"/>
<rect x="8.45312" y="23.4021" width="2.2503" height="4.58763" fill="url(#paint1_linear_1409_49371)" fill-opacity="0.6"/>
</g>
<path d="M18.0019 16.9981C18.0019 17.761 17.8289 18.4649 17.4828 19.1098C17.1368 19.7547 16.661 20.3131 16.0554 20.785C15.4577 21.249 14.7577 21.6108 13.9555 21.8704C13.1533 22.1378 12.296 22.2715 11.3837 22.2715C10.4714 22.2715 9.61409 22.1378 8.81187 21.8704C8.00966 21.6108 7.30576 21.249 6.70017 20.785C6.10244 20.3131 5.63055 19.7547 5.2845 19.1098C4.93844 18.4649 4.76542 17.761 4.76542 16.9981C4.76542 16.5577 4.8244 16.129 4.94238 15.7122C5.06035 15.2875 5.22944 14.8903 5.44966 14.5207C5.67774 14.151 5.94907 13.8128 6.26367 13.5061C6.57826 13.1915 6.93218 12.9241 7.32542 12.7039C7.08161 12.4915 6.86139 12.2477 6.66477 11.9725C6.47602 11.6972 6.31086 11.4062 6.16929 11.0995C6.03559 10.7927 5.93334 10.4781 5.86256 10.1557C5.79178 9.82536 5.75639 9.49897 5.75639 9.17652C5.75639 8.51587 5.90189 7.89848 6.19288 7.32435C6.49175 6.74235 6.89679 6.23507 7.408 5.8025C7.91921 5.36207 8.51694 5.01602 9.20118 4.76435C9.88542 4.51267 10.6129 4.38683 11.3837 4.38683C12.1623 4.38683 12.8937 4.51267 13.578 4.76435C14.2622 5.01602 14.8599 5.36207 15.3711 5.8025C15.8902 6.23507 16.2953 6.74235 16.5863 7.32435C16.8851 7.89848 17.0346 8.51587 17.0346 9.17652C17.0346 9.49897 16.9952 9.82536 16.9166 10.1557C16.8458 10.4781 16.7436 10.7967 16.6099 11.1113C16.4761 11.418 16.311 11.709 16.1144 11.9843C15.9256 12.2595 15.7093 12.5073 15.4655 12.7275C15.8509 12.9477 16.2009 13.2112 16.5155 13.5179C16.8301 13.8246 17.0975 14.1628 17.3177 14.5325C17.5379 14.9021 17.707 15.2954 17.825 15.7122C17.9429 16.129 18.0019 16.5577 18.0019 16.9981ZM13.7195 9.54223C13.7195 9.26696 13.6566 9.01135 13.5308 8.77541C13.4128 8.5316 13.2476 8.31925 13.0353 8.13836C12.8308 7.95747 12.587 7.8159 12.3039 7.71366C12.0207 7.61142 11.7219 7.56029 11.4073 7.56029C11.0848 7.56029 10.782 7.61142 10.4989 7.71366C10.2157 7.8159 9.968 7.95747 9.75565 8.13836C9.55117 8.31925 9.38601 8.5316 9.26017 8.77541C9.1422 9.01135 9.08321 9.26696 9.08321 9.54223C9.08321 9.8175 9.1422 10.0731 9.26017 10.3091C9.38601 10.545 9.55117 10.7495 9.75565 10.9225C9.968 11.0955 10.2157 11.2332 10.4989 11.3354C10.782 11.4377 11.0848 11.4888 11.4073 11.4888C11.7219 11.4888 12.0207 11.4377 12.3039 11.3354C12.587 11.2332 12.8308 11.0955 13.0353 10.9225C13.2476 10.7495 13.4128 10.545 13.5308 10.3091C13.6566 10.0731 13.7195 9.8175 13.7195 9.54223ZM14.6397 16.9037C14.6397 16.5262 14.5532 16.1762 14.3802 15.8538C14.215 15.5234 13.983 15.2364 13.6841 14.9926C13.3931 14.7487 13.0471 14.5561 12.646 14.4145C12.2527 14.2729 11.832 14.2021 11.3837 14.2021C10.9354 14.2021 10.5146 14.2729 10.1214 14.4145C9.72813 14.5561 9.38207 14.7487 9.08321 14.9926C8.79221 15.2364 8.5602 15.5234 8.38717 15.8538C8.22201 16.1762 8.13943 16.5262 8.13943 16.9037C8.13943 17.2812 8.22201 17.6273 8.38717 17.9419C8.5602 18.2565 8.79221 18.5278 9.08321 18.7559C9.38207 18.984 9.72813 19.1649 10.1214 19.2986C10.5146 19.4244 10.9354 19.4873 11.3837 19.4873C11.832 19.4873 12.2527 19.4244 12.646 19.2986C13.0471 19.1649 13.3931 18.984 13.6841 18.7559C13.983 18.5278 14.215 18.2565 14.3802 17.9419C14.5532 17.6273 14.6397 17.2812 14.6397 16.9037Z" fill="#1A181E"/>
</g>
<defs>
<linearGradient id="paint0_linear_1409_49371" x1="17.3928" y1="27.5256" x2="17.3928" y2="47.1648" gradientUnits="userSpaceOnUse">
<stop stop-color="white" stop-opacity="0.5"/>
<stop offset="1" stop-color="white" stop-opacity="0"/>
</linearGradient>
<linearGradient id="paint1_linear_1409_49371" x1="9.57828" y1="23.4021" x2="9.57828" y2="27.9897" gradientUnits="userSpaceOnUse">
<stop stop-color="white" stop-opacity="0.5"/>
<stop offset="1" stop-color="white" stop-opacity="0"/>
</linearGradient>
<clipPath id="clip0_1409_49371">
<rect width="36" height="50" rx="3.81" fill="white"/>
</clipPath>
</defs>
</svg>
