<svg width="36" height="50" viewBox="0 0 36 50" fill="none" xmlns="http://www.w3.org/2000/svg">
<g clip-path="url(#clip0_1409_49296)">
<rect x="0.541237" y="0.541237" width="34.9175" height="48.9175" rx="3.2732" fill="white" stroke="white" stroke-width="1.08247"/>
<mask id="mask0_1409_49296" style="mask-type:alpha" maskUnits="userSpaceOnUse" x="12" y="27" width="20" height="21">
<path d="M22.2129 27.5667C22.9696 28.7633 25.0608 31.6177 27.6074 33.8059C30.8284 36.5735 31.8223 37.8511 31.8223 40.2727C31.8221 42.5947 29.9392 44.4768 27.6172 44.4768H26.6318C24.3099 44.4767 22.4279 42.5946 22.4277 40.2727C22.3742 41.8873 23.0722 45.5252 26.293 47.1643H18.1055C21.3262 45.5252 22.0243 41.8873 21.9707 40.2727C21.9705 42.5946 20.0886 44.4767 17.7666 44.4768H16.7812C14.4592 44.4768 12.5764 42.5947 12.5762 40.2727C12.5762 37.8511 13.57 36.5735 16.791 33.8059C19.3377 31.6177 21.4288 28.7633 22.1855 27.5667V27.5256C22.1899 27.5325 22.1948 27.5391 22.1992 27.5461C22.2036 27.5391 22.2086 27.5325 22.2129 27.5256V27.5667Z" fill="#EE5252"/>
</mask>
<g mask="url(#mask0_1409_49296)">
<path d="M22.2129 27.5667C22.9696 28.7633 25.0608 31.6177 27.6074 33.8059C30.8284 36.5735 31.8223 37.8511 31.8223 40.2727C31.8221 42.5947 29.9392 44.4768 27.6172 44.4768H26.6318C24.3099 44.4767 22.4279 42.5946 22.4277 40.2727C22.3742 41.8873 23.0722 45.5252 26.293 47.1643H18.1055C21.3262 45.5252 22.0243 41.8873 21.9707 40.2727C21.9705 42.5946 20.0886 44.4767 17.7666 44.4768H16.7812C14.4592 44.4768 12.5764 42.5947 12.5762 40.2727C12.5762 37.8511 13.57 36.5735 16.791 33.8059C19.3377 31.6177 21.4288 28.7633 22.1855 27.5667V27.5256C22.1899 27.5325 22.1948 27.5391 22.1992 27.5461C22.2036 27.5391 22.2086 27.5325 22.2129 27.5256V27.5667Z" fill="#1A181E"/>
<rect x="12.5762" y="27.5256" width="9.63331" height="19.6392" fill="url(#paint0_linear_1409_49296)" fill-opacity="0.6"/>
</g>
<mask id="mask1_1409_49296" style="mask-type:alpha" maskUnits="userSpaceOnUse" x="8" y="23" width="5" height="5">
<path d="M10.7041 23.4119C10.881 23.6915 11.3692 24.3579 11.9639 24.8689C12.7163 25.5154 12.9482 25.814 12.9482 26.3796C12.9482 26.9221 12.5083 27.3621 11.9658 27.3621H11.7363C11.1939 27.3621 10.7539 26.9221 10.7539 26.3796C10.7414 26.7568 10.9048 27.6071 11.6572 27.99H9.74414C10.4965 27.6071 10.66 26.7568 10.6475 26.3796C10.6475 26.9221 10.2075 27.3621 9.66504 27.3621H9.43457C8.89234 27.3618 8.45312 26.9219 8.45312 26.3796C8.45313 25.814 8.68511 25.5154 9.4375 24.8689C10.0321 24.3579 10.5204 23.6915 10.6973 23.4119V23.4021C10.6982 23.4037 10.6992 23.4054 10.7002 23.407C10.7013 23.4053 10.703 23.4038 10.7041 23.4021V23.4119Z" fill="#EE5252"/>
</mask>
<g mask="url(#mask1_1409_49296)">
<path d="M10.7041 23.4119C10.881 23.6915 11.3692 24.3579 11.9639 24.8689C12.7163 25.5154 12.9482 25.814 12.9482 26.3796C12.9482 26.9221 12.5083 27.3621 11.9658 27.3621H11.7363C11.1939 27.3621 10.7539 26.9221 10.7539 26.3796C10.7414 26.7568 10.9048 27.6071 11.6572 27.99H9.74414C10.4965 27.6071 10.66 26.7568 10.6475 26.3796C10.6475 26.9221 10.2075 27.3621 9.66504 27.3621H9.43457C8.89234 27.3618 8.45312 26.9219 8.45312 26.3796C8.45313 25.814 8.68511 25.5154 9.4375 24.8689C10.0321 24.3579 10.5204 23.6915 10.6973 23.4119V23.4021C10.6982 23.4037 10.6992 23.4054 10.7002 23.407C10.7013 23.4053 10.703 23.4038 10.7041 23.4021V23.4119Z" fill="#1A181E"/>
<rect x="8.45312" y="23.4021" width="2.2503" height="4.58763" fill="url(#paint1_linear_1409_49296)" fill-opacity="0.6"/>
</g>
<path d="M17.884 11.1349C17.884 12.2202 17.7738 13.282 17.5536 14.3201C17.3413 15.3504 17.0306 16.3256 16.6216 17.2458C16.2127 18.166 15.7133 19.0154 15.1234 19.794C14.5335 20.5727 13.865 21.253 13.1179 21.835H8.55233C9.03209 21.5282 9.49611 21.1861 9.94441 20.8086C10.3927 20.4311 10.8174 20.026 11.2185 19.5935C11.6275 19.1609 12.005 18.7048 12.351 18.225C12.6971 17.7452 13.0038 17.2498 13.2712 16.7386C12.9252 16.9666 12.5555 17.1633 12.1623 17.3284C11.769 17.4857 11.364 17.5644 10.9472 17.5644C9.98766 17.5644 9.12647 17.4071 8.36358 17.0925C7.60069 16.77 6.94791 16.3256 6.40523 15.7594C5.87043 15.1852 5.45752 14.5049 5.16652 13.7185C4.88339 12.932 4.74182 12.0708 4.74182 11.1349C4.74182 10.2225 4.90305 9.36134 5.22551 8.55126C5.55583 7.73332 6.00806 7.02155 6.58219 6.41596C7.15633 5.8025 7.83663 5.31882 8.62312 4.9649C9.4096 4.61098 10.2629 4.43402 11.1831 4.43402C12.1112 4.43402 12.9802 4.61098 13.7903 4.9649C14.6083 5.31882 15.32 5.8025 15.9256 6.41596C16.5312 7.02155 17.007 7.73332 17.3531 8.55126C17.707 9.36134 17.884 10.2225 17.884 11.1349ZM14.2622 11.1349C14.2622 10.7023 14.1875 10.2855 14.0381 9.88435C13.8886 9.48324 13.6763 9.12933 13.401 8.8226C13.1336 8.51587 12.8111 8.27206 12.4336 8.09117C12.0561 7.91028 11.6393 7.81983 11.1831 7.81983C10.7191 7.81983 10.2983 7.91028 9.92081 8.09117C9.55117 8.2642 9.23264 8.50014 8.96524 8.799C8.69783 9.09787 8.49335 9.44785 8.35178 9.84896C8.21021 10.2501 8.13943 10.6787 8.13943 11.1349C8.13943 11.5832 8.21021 12.0079 8.35178 12.409C8.49335 12.8022 8.69783 13.1483 8.96524 13.4471C9.23264 13.746 9.55117 13.9819 9.92081 14.155C10.2983 14.328 10.7191 14.4145 11.1831 14.4145C11.6471 14.4145 12.0679 14.328 12.4454 14.155C12.8308 13.9819 13.1572 13.746 13.4246 13.4471C13.692 13.1483 13.8965 12.8022 14.0381 12.409C14.1875 12.0079 14.2622 11.5832 14.2622 11.1349Z" fill="#1A181E"/>
</g>
<defs>
<linearGradient id="paint0_linear_1409_49296" x1="17.3928" y1="27.5256" x2="17.3928" y2="47.1648" gradientUnits="userSpaceOnUse">
<stop stop-color="white" stop-opacity="0.5"/>
<stop offset="1" stop-color="white" stop-opacity="0"/>
</linearGradient>
<linearGradient id="paint1_linear_1409_49296" x1="9.57828" y1="23.4021" x2="9.57828" y2="27.9897" gradientUnits="userSpaceOnUse">
<stop stop-color="white" stop-opacity="0.5"/>
<stop offset="1" stop-color="white" stop-opacity="0"/>
</linearGradient>
<clipPath id="clip0_1409_49296">
<rect width="36" height="50" rx="3.81" fill="white"/>
</clipPath>
</defs>
</svg>
