<svg width="36" height="50" viewBox="0 0 36 50" fill="none" xmlns="http://www.w3.org/2000/svg">
<g clip-path="url(#clip0_1409_49396)">
<rect x="0.541237" y="0.541237" width="34.9175" height="48.9175" rx="3.2732" fill="white" stroke="white" stroke-width="1.08247"/>
<mask id="mask0_1409_49396" style="mask-type:alpha" maskUnits="userSpaceOnUse" x="12" y="27" width="20" height="21">
<path d="M22.2129 27.5667C22.9696 28.7633 25.0608 31.6177 27.6074 33.8059C30.8284 36.5735 31.8223 37.8511 31.8223 40.2727C31.8221 42.5947 29.9392 44.4768 27.6172 44.4768H26.6318C24.3099 44.4767 22.4279 42.5946 22.4277 40.2727C22.3742 41.8873 23.0722 45.5252 26.293 47.1643H18.1055C21.3262 45.5252 22.0243 41.8873 21.9707 40.2727C21.9705 42.5946 20.0886 44.4767 17.7666 44.4768H16.7812C14.4592 44.4768 12.5764 42.5947 12.5762 40.2727C12.5762 37.8511 13.57 36.5735 16.791 33.8059C19.3377 31.6177 21.4288 28.7633 22.1855 27.5667V27.5256C22.1899 27.5325 22.1948 27.5391 22.1992 27.5461C22.2036 27.5391 22.2086 27.5325 22.2129 27.5256V27.5667Z" fill="#EE5252"/>
</mask>
<g mask="url(#mask0_1409_49396)">
<path d="M22.2129 27.5667C22.9696 28.7633 25.0608 31.6177 27.6074 33.8059C30.8284 36.5735 31.8223 37.8511 31.8223 40.2727C31.8221 42.5947 29.9392 44.4768 27.6172 44.4768H26.6318C24.3099 44.4767 22.4279 42.5946 22.4277 40.2727C22.3742 41.8873 23.0722 45.5252 26.293 47.1643H18.1055C21.3262 45.5252 22.0243 41.8873 21.9707 40.2727C21.9705 42.5946 20.0886 44.4767 17.7666 44.4768H16.7812C14.4592 44.4768 12.5764 42.5947 12.5762 40.2727C12.5762 37.8511 13.57 36.5735 16.791 33.8059C19.3377 31.6177 21.4288 28.7633 22.1855 27.5667V27.5256C22.1899 27.5325 22.1948 27.5391 22.1992 27.5461C22.2036 27.5391 22.2086 27.5325 22.2129 27.5256V27.5667Z" fill="#1A181E"/>
<rect x="12.5762" y="27.5256" width="9.63331" height="19.6392" fill="url(#paint0_linear_1409_49396)" fill-opacity="0.6"/>
</g>
<mask id="mask1_1409_49396" style="mask-type:alpha" maskUnits="userSpaceOnUse" x="8" y="23" width="5" height="5">
<path d="M10.7041 23.4119C10.881 23.6915 11.3692 24.3579 11.9639 24.8689C12.7163 25.5154 12.9482 25.814 12.9482 26.3796C12.9482 26.9221 12.5083 27.3621 11.9658 27.3621H11.7363C11.1939 27.3621 10.7539 26.9221 10.7539 26.3796C10.7414 26.7568 10.9048 27.6071 11.6572 27.99H9.74414C10.4965 27.6071 10.66 26.7568 10.6475 26.3796C10.6475 26.9221 10.2075 27.3621 9.66504 27.3621H9.43457C8.89234 27.3618 8.45312 26.9219 8.45312 26.3796C8.45313 25.814 8.68511 25.5154 9.4375 24.8689C10.0321 24.3579 10.5204 23.6915 10.6973 23.4119V23.4021C10.6982 23.4037 10.6992 23.4054 10.7002 23.407C10.7013 23.4053 10.703 23.4038 10.7041 23.4021V23.4119Z" fill="#EE5252"/>
</mask>
<g mask="url(#mask1_1409_49396)">
<path d="M10.7041 23.4119C10.881 23.6915 11.3692 24.3579 11.9639 24.8689C12.7163 25.5154 12.9482 25.814 12.9482 26.3796C12.9482 26.9221 12.5083 27.3621 11.9658 27.3621H11.7363C11.1939 27.3621 10.7539 26.9221 10.7539 26.3796C10.7414 26.7568 10.9048 27.6071 11.6572 27.99H9.74414C10.4965 27.6071 10.66 26.7568 10.6475 26.3796C10.6475 26.9221 10.2075 27.3621 9.66504 27.3621H9.43457C8.89234 27.3618 8.45312 26.9219 8.45312 26.3796C8.45313 25.814 8.68511 25.5154 9.4375 24.8689C10.0321 24.3579 10.5204 23.6915 10.6973 23.4119V23.4021C10.6982 23.4037 10.6992 23.4054 10.7002 23.407C10.7013 23.4053 10.703 23.4038 10.7041 23.4021V23.4119Z" fill="#1A181E"/>
<rect x="8.45312" y="23.4021" width="2.2503" height="4.58763" fill="url(#paint1_linear_1409_49396)" fill-opacity="0.6"/>
</g>
<path d="M9.90902 21.835H6.52321V8.30352H4.8362V4.91771H9.90902V21.835ZM22.4264 13.3763C22.4264 11.4966 22.1118 10.1006 21.4826 9.18831C20.8613 8.27599 19.9922 7.81983 18.8754 7.81983C17.7665 7.81983 16.9053 8.27206 16.2918 9.17652C15.6783 10.081 15.3716 11.4809 15.3716 13.3763C15.3716 15.256 15.6783 16.652 16.2918 17.5644C16.9053 18.4767 17.7665 18.9328 18.8754 18.9328C19.4338 18.9328 19.9332 18.8227 20.3736 18.6025C20.8141 18.3744 21.1837 18.0323 21.4826 17.5762C21.7893 17.12 22.0213 16.5459 22.1786 15.8538C22.3438 15.1538 22.4264 14.328 22.4264 13.3763ZM25.647 13.3763C25.647 14.9808 25.4701 16.3374 25.1161 17.4464C24.7622 18.5553 24.2785 19.4519 23.6651 20.1362C23.0516 20.8204 22.332 21.3159 21.5062 21.6226C20.6882 21.9215 19.8113 22.0709 18.8754 22.0709C17.9395 22.0709 17.0586 21.9175 16.2328 21.6108C15.4149 21.2962 14.6992 20.7968 14.0857 20.1126C13.4801 19.4205 13.0004 18.5239 12.6464 17.4228C12.2925 16.3139 12.1156 14.965 12.1156 13.3763C12.1156 11.7719 12.2925 10.4192 12.6464 9.31808C13.0004 8.20914 13.4801 7.31255 14.0857 6.62831C14.6992 5.94407 15.4149 5.44859 16.2328 5.14186C17.0586 4.83513 17.9395 4.68177 18.8754 4.68177C19.8113 4.68177 20.6882 4.83906 21.5062 5.15366C22.332 5.46038 23.0516 5.9598 23.6651 6.65191C24.2785 7.34401 24.7622 8.2406 25.1161 9.34168C25.4701 10.4428 25.647 11.7876 25.647 13.3763Z" fill="#1A181E"/>
</g>
<defs>
<linearGradient id="paint0_linear_1409_49396" x1="17.3928" y1="27.5256" x2="17.3928" y2="47.1648" gradientUnits="userSpaceOnUse">
<stop stop-color="white" stop-opacity="0.5"/>
<stop offset="1" stop-color="white" stop-opacity="0"/>
</linearGradient>
<linearGradient id="paint1_linear_1409_49396" x1="9.57828" y1="23.4021" x2="9.57828" y2="27.9897" gradientUnits="userSpaceOnUse">
<stop stop-color="white" stop-opacity="0.5"/>
<stop offset="1" stop-color="white" stop-opacity="0"/>
</linearGradient>
<clipPath id="clip0_1409_49396">
<rect width="36" height="50" rx="3.81" fill="white"/>
</clipPath>
</defs>
</svg>
