<svg width="36" height="50" viewBox="0 0 36 50" fill="none" xmlns="http://www.w3.org/2000/svg">
<g clip-path="url(#clip0_1409_49246)">
<rect x="0.541237" y="0.541237" width="34.9175" height="48.9175" rx="3.2732" fill="white" stroke="white" stroke-width="1.08247"/>
<mask id="mask0_1409_49246" style="mask-type:alpha" maskUnits="userSpaceOnUse" x="12" y="27" width="20" height="21">
<path d="M22.2129 27.5667C22.9696 28.7633 25.0608 31.6177 27.6074 33.8059C30.8284 36.5735 31.8223 37.8511 31.8223 40.2727C31.8221 42.5947 29.9392 44.4768 27.6172 44.4768H26.6318C24.3099 44.4767 22.4279 42.5946 22.4277 40.2727C22.3742 41.8873 23.0722 45.5252 26.293 47.1643H18.1055C21.3262 45.5252 22.0243 41.8873 21.9707 40.2727C21.9705 42.5946 20.0886 44.4767 17.7666 44.4768H16.7812C14.4592 44.4768 12.5764 42.5947 12.5762 40.2727C12.5762 37.8511 13.57 36.5735 16.791 33.8059C19.3377 31.6177 21.4288 28.7633 22.1855 27.5667V27.5256C22.1899 27.5325 22.1948 27.5391 22.1992 27.5461C22.2036 27.5391 22.2086 27.5325 22.2129 27.5256V27.5667Z" fill="#EE5252"/>
</mask>
<g mask="url(#mask0_1409_49246)">
<path d="M22.2129 27.5667C22.9696 28.7633 25.0608 31.6177 27.6074 33.8059C30.8284 36.5735 31.8223 37.8511 31.8223 40.2727C31.8221 42.5947 29.9392 44.4768 27.6172 44.4768H26.6318C24.3099 44.4767 22.4279 42.5946 22.4277 40.2727C22.3742 41.8873 23.0722 45.5252 26.293 47.1643H18.1055C21.3262 45.5252 22.0243 41.8873 21.9707 40.2727C21.9705 42.5946 20.0886 44.4767 17.7666 44.4768H16.7812C14.4592 44.4768 12.5764 42.5947 12.5762 40.2727C12.5762 37.8511 13.57 36.5735 16.791 33.8059C19.3377 31.6177 21.4288 28.7633 22.1855 27.5667V27.5256C22.1899 27.5325 22.1948 27.5391 22.1992 27.5461C22.2036 27.5391 22.2086 27.5325 22.2129 27.5256V27.5667Z" fill="#1A181E"/>
<rect x="12.5762" y="27.5256" width="9.63331" height="19.6392" fill="url(#paint0_linear_1409_49246)" fill-opacity="0.6"/>
</g>
<mask id="mask1_1409_49246" style="mask-type:alpha" maskUnits="userSpaceOnUse" x="8" y="23" width="5" height="5">
<path d="M10.7041 23.4119C10.881 23.6915 11.3692 24.3579 11.9639 24.8689C12.7163 25.5154 12.9482 25.814 12.9482 26.3796C12.9482 26.9221 12.5083 27.3621 11.9658 27.3621H11.7363C11.1939 27.3621 10.7539 26.9221 10.7539 26.3796C10.7414 26.7568 10.9048 27.6071 11.6572 27.99H9.74414C10.4965 27.6071 10.66 26.7568 10.6475 26.3796C10.6475 26.9221 10.2075 27.3621 9.66504 27.3621H9.43457C8.89234 27.3618 8.45312 26.9219 8.45312 26.3796C8.45313 25.814 8.68511 25.5154 9.4375 24.8689C10.0321 24.3579 10.5204 23.6915 10.6973 23.4119V23.4021C10.6982 23.4037 10.6992 23.4054 10.7002 23.407C10.7013 23.4053 10.703 23.4038 10.7041 23.4021V23.4119Z" fill="#EE5252"/>
</mask>
<g mask="url(#mask1_1409_49246)">
<path d="M10.7041 23.4119C10.881 23.6915 11.3692 24.3579 11.9639 24.8689C12.7163 25.5154 12.9482 25.814 12.9482 26.3796C12.9482 26.9221 12.5083 27.3621 11.9658 27.3621H11.7363C11.1939 27.3621 10.7539 26.9221 10.7539 26.3796C10.7414 26.7568 10.9048 27.6071 11.6572 27.99H9.74414C10.4965 27.6071 10.66 26.7568 10.6475 26.3796C10.6475 26.9221 10.2075 27.3621 9.66504 27.3621H9.43457C8.89234 27.3618 8.45312 26.9219 8.45312 26.3796C8.45313 25.814 8.68511 25.5154 9.4375 24.8689C10.0321 24.3579 10.5204 23.6915 10.6973 23.4119V23.4021C10.6982 23.4037 10.6992 23.4054 10.7002 23.407C10.7013 23.4053 10.703 23.4038 10.7041 23.4021V23.4119Z" fill="#1A181E"/>
<rect x="8.45312" y="23.4021" width="2.2503" height="4.58763" fill="url(#paint1_linear_1409_49246)" fill-opacity="0.6"/>
</g>
<path d="M19.7951 25.2208H15.9492L13.9201 22.1771C13.81 22.1928 13.7038 22.2007 13.6016 22.2007C13.5072 22.2007 13.4128 22.2007 13.3184 22.2007C12.5162 22.2007 11.7415 22.0945 10.9944 21.8821C10.2551 21.6777 9.55903 21.3867 8.90625 21.0092C8.26133 20.6238 7.67147 20.1637 7.13666 19.6289C6.60186 19.0941 6.14176 18.5042 5.75639 17.8593C5.37887 17.2065 5.08394 16.5105 4.87159 15.7712C4.66711 15.024 4.56486 14.2493 4.56486 13.4471C4.56486 12.6449 4.66711 11.8702 4.87159 11.1231C5.08394 10.3759 5.37887 9.67987 5.75639 9.03495C6.14176 8.39003 6.60186 7.80017 7.13666 7.26536C7.67147 6.73055 8.26133 6.27439 8.90625 5.89688C9.55903 5.51937 10.2551 5.22837 10.9944 5.02389C11.7415 4.81154 12.5162 4.70536 13.3184 4.70536C14.1206 4.70536 14.8953 4.81154 15.6425 5.02389C16.3896 5.22837 17.0857 5.51937 17.7306 5.89688C18.3755 6.27439 18.9654 6.73055 19.5002 7.26536C20.035 7.80017 20.4911 8.39003 20.8687 9.03495C21.2462 9.67987 21.5372 10.3759 21.7417 11.1231C21.954 11.8702 22.0602 12.6449 22.0602 13.4471C22.0602 14.2808 21.9422 15.0909 21.7063 15.8774C21.4782 16.6638 21.1518 17.3992 20.7271 18.0834C20.3024 18.7598 19.7872 19.3733 19.1817 19.9238C18.5839 20.4743 17.9154 20.9344 17.1761 21.3041L19.7951 25.2208ZM18.698 13.4471C18.698 12.7078 18.5564 12.0118 18.2733 11.359C17.9901 10.6984 17.6048 10.1282 17.1171 9.64841C16.6374 9.16079 16.0672 8.77541 15.4065 8.49228C14.7538 8.20914 14.0577 8.06758 13.3184 8.06758C12.5713 8.06758 11.8713 8.20914 11.2185 8.49228C10.5657 8.77541 9.99553 9.16079 9.50791 9.64841C9.02029 10.1282 8.63491 10.6984 8.35178 11.359C8.06865 12.0118 7.92708 12.7078 7.92708 13.4471C7.92708 14.1864 8.06865 14.8825 8.35178 15.5352C8.63491 16.1801 9.02029 16.7464 9.50791 17.234C9.99553 17.7217 10.5657 18.107 11.2185 18.3902C11.8713 18.6733 12.5713 18.8149 13.3184 18.8149C14.0577 18.8149 14.7538 18.6733 15.4065 18.3902C16.0672 18.107 16.6374 17.7217 17.1171 17.234C17.6048 16.7464 17.9901 16.1801 18.2733 15.5352C18.5564 14.8825 18.698 14.1864 18.698 13.4471Z" fill="#1A181E"/>
</g>
<defs>
<linearGradient id="paint0_linear_1409_49246" x1="17.3928" y1="27.5256" x2="17.3928" y2="47.1648" gradientUnits="userSpaceOnUse">
<stop stop-color="white" stop-opacity="0.5"/>
<stop offset="1" stop-color="white" stop-opacity="0"/>
</linearGradient>
<linearGradient id="paint1_linear_1409_49246" x1="9.57828" y1="23.4021" x2="9.57828" y2="27.9897" gradientUnits="userSpaceOnUse">
<stop stop-color="white" stop-opacity="0.5"/>
<stop offset="1" stop-color="white" stop-opacity="0"/>
</linearGradient>
<clipPath id="clip0_1409_49246">
<rect width="36" height="50" rx="3.81" fill="white"/>
</clipPath>
</defs>
</svg>
