<svg width="36" height="50" viewBox="0 0 36 50" fill="none" xmlns="http://www.w3.org/2000/svg">
<g clip-path="url(#clip0_1409_49321)">
<rect x="0.541237" y="0.541237" width="34.9175" height="48.9175" rx="3.2732" fill="white" stroke="white" stroke-width="1.08247"/>
<mask id="mask0_1409_49321" style="mask-type:alpha" maskUnits="userSpaceOnUse" x="12" y="27" width="20" height="21">
<path d="M22.2129 27.5667C22.9696 28.7633 25.0608 31.6177 27.6074 33.8059C30.8284 36.5735 31.8223 37.8511 31.8223 40.2727C31.8221 42.5947 29.9392 44.4768 27.6172 44.4768H26.6318C24.3099 44.4767 22.4279 42.5946 22.4277 40.2727C22.3742 41.8873 23.0722 45.5252 26.293 47.1643H18.1055C21.3262 45.5252 22.0243 41.8873 21.9707 40.2727C21.9705 42.5946 20.0886 44.4767 17.7666 44.4768H16.7812C14.4592 44.4768 12.5764 42.5947 12.5762 40.2727C12.5762 37.8511 13.57 36.5735 16.791 33.8059C19.3377 31.6177 21.4288 28.7633 22.1855 27.5667V27.5256C22.1899 27.5325 22.1948 27.5391 22.1992 27.5461C22.2036 27.5391 22.2086 27.5325 22.2129 27.5256V27.5667Z" fill="#EE5252"/>
</mask>
<g mask="url(#mask0_1409_49321)">
<path d="M22.2129 27.5667C22.9696 28.7633 25.0608 31.6177 27.6074 33.8059C30.8284 36.5735 31.8223 37.8511 31.8223 40.2727C31.8221 42.5947 29.9392 44.4768 27.6172 44.4768H26.6318C24.3099 44.4767 22.4279 42.5946 22.4277 40.2727C22.3742 41.8873 23.0722 45.5252 26.293 47.1643H18.1055C21.3262 45.5252 22.0243 41.8873 21.9707 40.2727C21.9705 42.5946 20.0886 44.4767 17.7666 44.4768H16.7812C14.4592 44.4768 12.5764 42.5947 12.5762 40.2727C12.5762 37.8511 13.57 36.5735 16.791 33.8059C19.3377 31.6177 21.4288 28.7633 22.1855 27.5667V27.5256C22.1899 27.5325 22.1948 27.5391 22.1992 27.5461C22.2036 27.5391 22.2086 27.5325 22.2129 27.5256V27.5667Z" fill="#1A181E"/>
<rect x="12.5762" y="27.5256" width="9.63331" height="19.6392" fill="url(#paint0_linear_1409_49321)" fill-opacity="0.6"/>
</g>
<mask id="mask1_1409_49321" style="mask-type:alpha" maskUnits="userSpaceOnUse" x="8" y="23" width="5" height="5">
<path d="M10.7041 23.4119C10.881 23.6915 11.3692 24.3579 11.9639 24.8689C12.7163 25.5154 12.9482 25.814 12.9482 26.3796C12.9482 26.9221 12.5083 27.3621 11.9658 27.3621H11.7363C11.1939 27.3621 10.7539 26.9221 10.7539 26.3796C10.7414 26.7568 10.9048 27.6071 11.6572 27.99H9.74414C10.4965 27.6071 10.66 26.7568 10.6475 26.3796C10.6475 26.9221 10.2075 27.3621 9.66504 27.3621H9.43457C8.89234 27.3618 8.45312 26.9219 8.45312 26.3796C8.45313 25.814 8.68511 25.5154 9.4375 24.8689C10.0321 24.3579 10.5204 23.6915 10.6973 23.4119V23.4021C10.6982 23.4037 10.6992 23.4054 10.7002 23.407C10.7013 23.4053 10.703 23.4038 10.7041 23.4021V23.4119Z" fill="#EE5252"/>
</mask>
<g mask="url(#mask1_1409_49321)">
<path d="M10.7041 23.4119C10.881 23.6915 11.3692 24.3579 11.9639 24.8689C12.7163 25.5154 12.9482 25.814 12.9482 26.3796C12.9482 26.9221 12.5083 27.3621 11.9658 27.3621H11.7363C11.1939 27.3621 10.7539 26.9221 10.7539 26.3796C10.7414 26.7568 10.9048 27.6071 11.6572 27.99H9.74414C10.4965 27.6071 10.66 26.7568 10.6475 26.3796C10.6475 26.9221 10.2075 27.3621 9.66504 27.3621H9.43457C8.89234 27.3618 8.45312 26.9219 8.45312 26.3796C8.45313 25.814 8.68511 25.5154 9.4375 24.8689C10.0321 24.3579 10.5204 23.6915 10.6973 23.4119V23.4021C10.6982 23.4037 10.6992 23.4054 10.7002 23.407C10.7013 23.4053 10.703 23.4038 10.7041 23.4021V23.4119Z" fill="#1A181E"/>
<rect x="8.45312" y="23.4021" width="2.2503" height="4.58763" fill="url(#paint1_linear_1409_49321)" fill-opacity="0.6"/>
</g>
<path d="M17.9547 15.6296C17.9547 16.5419 17.7896 17.4031 17.4593 18.2132C17.1368 19.0233 16.6885 19.7351 16.1144 20.3485C15.5402 20.9541 14.856 21.4339 14.0616 21.7878C13.2752 22.1417 12.4218 22.3186 11.5016 22.3186C10.5815 22.3186 9.7124 22.1417 8.89445 21.7878C8.08438 21.4339 7.37654 20.9541 6.77095 20.3485C6.16536 19.7351 5.6856 19.0233 5.33169 18.2132C4.98563 17.4031 4.81261 16.5419 4.81261 15.6296C4.81261 14.5443 4.91878 13.4864 5.13113 12.4562C5.34348 11.418 5.65414 10.4388 6.06311 9.51864C6.47209 8.59059 6.9715 7.73725 7.56136 6.95863C8.15123 6.18002 8.81974 5.49971 9.5669 4.91771H14.1324C13.6605 5.22444 13.2004 5.56656 12.7522 5.94407C12.3039 6.32158 11.8752 6.72662 11.4663 7.15919C11.0651 7.59175 10.6916 8.04791 10.3455 8.52767C9.99946 9.00742 9.69273 9.50684 9.42533 10.0259C9.76352 9.79784 10.1292 9.60515 10.5225 9.44785C10.9236 9.28269 11.3326 9.20011 11.7494 9.20011C12.701 9.20011 13.5583 9.36134 14.3212 9.6838C15.0919 9.99839 15.7447 10.4428 16.2795 11.0169C16.8143 11.5832 17.2272 12.2595 17.5182 13.046C17.8092 13.8325 17.9547 14.6937 17.9547 15.6296ZM14.5689 15.6296C14.5689 15.1813 14.4942 14.7605 14.3448 14.3673C14.2032 13.9662 13.9987 13.6162 13.7313 13.3173C13.4639 13.0106 13.1415 12.7707 12.7639 12.5977C12.3864 12.4247 11.9657 12.3382 11.5016 12.3382C11.0376 12.3382 10.6169 12.4247 10.2393 12.5977C9.86183 12.7707 9.53937 13.0106 9.27197 13.3173C9.01243 13.6162 8.81187 13.9662 8.67031 14.3673C8.52874 14.7605 8.45796 15.1813 8.45796 15.6296C8.45796 16.0622 8.52874 16.479 8.67031 16.8801C8.81974 17.2734 9.02816 17.6233 9.29556 17.9301C9.56296 18.2368 9.88149 18.4806 10.2511 18.6615C10.6286 18.8424 11.0455 18.9328 11.5016 18.9328C11.9657 18.9328 12.3864 18.8463 12.7639 18.6733C13.1415 18.5003 13.4639 18.2643 13.7313 17.9655C13.9987 17.6587 14.2032 17.3048 14.3448 16.9037C14.4942 16.5026 14.5689 16.0779 14.5689 15.6296Z" fill="#1A181E"/>
</g>
<defs>
<linearGradient id="paint0_linear_1409_49321" x1="17.3928" y1="27.5256" x2="17.3928" y2="47.1648" gradientUnits="userSpaceOnUse">
<stop stop-color="white" stop-opacity="0.5"/>
<stop offset="1" stop-color="white" stop-opacity="0"/>
</linearGradient>
<linearGradient id="paint1_linear_1409_49321" x1="9.57828" y1="23.4021" x2="9.57828" y2="27.9897" gradientUnits="userSpaceOnUse">
<stop stop-color="white" stop-opacity="0.5"/>
<stop offset="1" stop-color="white" stop-opacity="0"/>
</linearGradient>
<clipPath id="clip0_1409_49321">
<rect width="36" height="50" rx="3.81" fill="white"/>
</clipPath>
</defs>
</svg>
