<svg width="36" height="50" viewBox="0 0 36 50" fill="none" xmlns="http://www.w3.org/2000/svg">
<g clip-path="url(#clip0_1409_48993)">
<rect x="0.541237" y="0.541237" width="34.9175" height="48.9175" rx="3.2732" fill="white" stroke="white" stroke-width="1.08247"/>
<mask id="mask0_1409_48993" style="mask-type:alpha" maskUnits="userSpaceOnUse" x="12" y="27" width="20" height="21">
<path d="M22.1992 27.5256C24.7662 27.5257 26.8467 29.6071 26.8467 32.1741C26.8465 33.6761 26.1338 35.011 25.0283 35.8606C25.6702 35.526 26.3999 35.3362 27.1738 35.3362C29.7408 35.3363 31.8213 37.4176 31.8213 39.9846C31.8211 42.5514 29.7407 44.6319 27.1738 44.6321C25.2563 44.6321 23.6098 43.4712 22.8994 41.8137C22.977 44.8065 25.0324 46.6231 26.0703 47.1643H18.3164C19.3513 46.6246 21.3964 44.817 21.4854 41.8401C20.7687 43.4831 19.1317 44.6321 17.2246 44.6321C14.6577 44.6321 12.5764 42.5515 12.5762 39.9846C12.5762 37.4175 14.6575 35.3362 17.2246 35.3362C17.9983 35.3362 18.7274 35.5262 19.3691 35.8606C18.2638 35.011 17.5509 33.6759 17.5508 32.1741C17.5508 29.607 19.6321 27.5256 22.1992 27.5256Z" fill="#D9D9D9"/>
</mask>
<g mask="url(#mask0_1409_48993)">
<path d="M22.1992 27.5256C24.7662 27.5257 26.8467 29.6071 26.8467 32.1741C26.8465 33.6761 26.1338 35.011 25.0283 35.8606C25.6702 35.526 26.3999 35.3362 27.1738 35.3362C29.7408 35.3363 31.8213 37.4176 31.8213 39.9846C31.8211 42.5514 29.7407 44.6319 27.1738 44.6321C25.2563 44.6321 23.6098 43.4712 22.8994 41.8137C22.977 44.8065 25.0324 46.6231 26.0703 47.1643H18.3164C19.3513 46.6246 21.3964 44.817 21.4854 41.8401C20.7687 43.4831 19.1317 44.6321 17.2246 44.6321C14.6577 44.6321 12.5764 42.5515 12.5762 39.9846C12.5762 37.4175 14.6575 35.3362 17.2246 35.3362C17.9983 35.3362 18.7274 35.5262 19.3691 35.8606C18.2638 35.011 17.5509 33.6759 17.5508 32.1741C17.5508 29.607 19.6321 27.5256 22.1992 27.5256Z" fill="#1A181E"/>
<rect x="12.5762" y="27.5256" width="9.63328" height="19.6391" fill="url(#paint0_linear_1409_48993)" fill-opacity="0.6"/>
</g>
<mask id="mask1_1409_48993" style="mask-type:alpha" maskUnits="userSpaceOnUse" x="8" y="23" width="5" height="5">
<path d="M10.7002 23.4019C11.2999 23.4019 11.7861 23.8881 11.7861 24.4878C11.7861 24.84 11.6174 25.1518 11.3574 25.3501C11.5082 25.2708 11.6801 25.2261 11.8623 25.2261C12.4619 25.2261 12.9482 25.7124 12.9482 26.312C12.9482 26.9117 12.462 27.3979 11.8623 27.3979C11.4154 27.3978 11.0317 27.1276 10.8652 26.7417C10.8845 27.4389 11.3632 27.8632 11.6055 27.9897H9.79492C10.0369 27.8634 10.5127 27.4401 10.5332 26.7446C10.3659 27.1288 9.9838 27.3979 9.53809 27.3979C8.93865 27.3977 8.45312 26.9115 8.45312 26.312C8.45318 25.7126 8.93868 25.2263 9.53809 25.2261C9.72059 25.2261 9.89298 25.2715 10.0439 25.3511C9.78357 25.1528 9.6153 24.8403 9.61523 24.4878C9.61523 23.8883 10.1007 23.4021 10.7002 23.4019Z" fill="#D9D9D9"/>
</mask>
<g mask="url(#mask1_1409_48993)">
<path d="M10.7002 23.4019C11.2999 23.4019 11.7861 23.8881 11.7861 24.4878C11.7861 24.84 11.6174 25.1518 11.3574 25.3501C11.5082 25.2708 11.6801 25.2261 11.8623 25.2261C12.4619 25.2261 12.9482 25.7124 12.9482 26.312C12.9482 26.9117 12.462 27.3979 11.8623 27.3979C11.4154 27.3978 11.0317 27.1276 10.8652 26.7417C10.8845 27.4389 11.3632 27.8632 11.6055 27.9897H9.79492C10.0369 27.8634 10.5127 27.4401 10.5332 26.7446C10.3659 27.1288 9.9838 27.3979 9.53809 27.3979C8.93865 27.3977 8.45312 26.9115 8.45312 26.312C8.45318 25.7126 8.93868 25.2263 9.53809 25.2261C9.72059 25.2261 9.89298 25.2715 10.0439 25.3511C9.78357 25.1528 9.6153 24.8403 9.61523 24.4878C9.61523 23.8883 10.1007 23.4021 10.7002 23.4019Z" fill="#1A181E"/>
<rect x="8.45312" y="23.4019" width="2.2503" height="4.58763" fill="url(#paint1_linear_1409_48993)" fill-opacity="0.6"/>
</g>
<path d="M9.90902 21.835H6.52321V8.30352H4.8362V4.91771H9.90902V21.835ZM22.4264 13.3763C22.4264 11.4966 22.1118 10.1006 21.4826 9.18831C20.8613 8.27599 19.9922 7.81983 18.8754 7.81983C17.7665 7.81983 16.9053 8.27206 16.2918 9.17652C15.6783 10.081 15.3716 11.4809 15.3716 13.3763C15.3716 15.256 15.6783 16.652 16.2918 17.5644C16.9053 18.4767 17.7665 18.9328 18.8754 18.9328C19.4338 18.9328 19.9332 18.8227 20.3736 18.6025C20.8141 18.3744 21.1837 18.0323 21.4826 17.5762C21.7893 17.12 22.0213 16.5459 22.1786 15.8538C22.3438 15.1538 22.4264 14.328 22.4264 13.3763ZM25.647 13.3763C25.647 14.9808 25.4701 16.3374 25.1161 17.4464C24.7622 18.5553 24.2785 19.4519 23.6651 20.1362C23.0516 20.8204 22.332 21.3159 21.5062 21.6226C20.6882 21.9215 19.8113 22.0709 18.8754 22.0709C17.9395 22.0709 17.0586 21.9175 16.2328 21.6108C15.4149 21.2962 14.6992 20.7968 14.0857 20.1126C13.4801 19.4205 13.0004 18.5239 12.6464 17.4228C12.2925 16.3139 12.1156 14.965 12.1156 13.3763C12.1156 11.7719 12.2925 10.4192 12.6464 9.31808C13.0004 8.20914 13.4801 7.31255 14.0857 6.62831C14.6992 5.94407 15.4149 5.44859 16.2328 5.14186C17.0586 4.83513 17.9395 4.68177 18.8754 4.68177C19.8113 4.68177 20.6882 4.83906 21.5062 5.15366C22.332 5.46038 23.0516 5.9598 23.6651 6.65191C24.2785 7.34401 24.7622 8.2406 25.1161 9.34168C25.4701 10.4428 25.647 11.7876 25.647 13.3763Z" fill="#1A181E"/>
</g>
<defs>
<linearGradient id="paint0_linear_1409_48993" x1="17.3928" y1="27.5256" x2="17.3928" y2="47.1648" gradientUnits="userSpaceOnUse">
<stop stop-color="white" stop-opacity="0.5"/>
<stop offset="1" stop-color="white" stop-opacity="0"/>
</linearGradient>
<linearGradient id="paint1_linear_1409_48993" x1="9.57828" y1="23.4019" x2="9.57828" y2="27.9895" gradientUnits="userSpaceOnUse">
<stop stop-color="white" stop-opacity="0.5"/>
<stop offset="1" stop-color="white" stop-opacity="0"/>
</linearGradient>
<clipPath id="clip0_1409_48993">
<rect width="36" height="50" rx="3.81" fill="white"/>
</clipPath>
</defs>
</svg>
