<svg width="36" height="50" viewBox="0 0 36 50" fill="none" xmlns="http://www.w3.org/2000/svg">
<g clip-path="url(#clip0_1409_48834)">
<rect x="0.541237" y="0.541237" width="34.9175" height="48.9175" rx="3.2732" fill="white" stroke="white" stroke-width="1.08247"/>
<mask id="mask0_1409_48834" style="mask-type:alpha" maskUnits="userSpaceOnUse" x="12" y="27" width="20" height="21">
<path d="M22.1992 27.5256C24.7662 27.5257 26.8467 29.6071 26.8467 32.1741C26.8465 33.6761 26.1338 35.011 25.0283 35.8606C25.6702 35.526 26.3999 35.3362 27.1738 35.3362C29.7408 35.3363 31.8213 37.4176 31.8213 39.9846C31.8211 42.5514 29.7407 44.6319 27.1738 44.6321C25.2563 44.6321 23.6098 43.4712 22.8994 41.8137C22.977 44.8065 25.0324 46.6231 26.0703 47.1643H18.3164C19.3513 46.6246 21.3964 44.817 21.4854 41.8401C20.7687 43.4831 19.1317 44.6321 17.2246 44.6321C14.6577 44.6321 12.5764 42.5515 12.5762 39.9846C12.5762 37.4175 14.6575 35.3362 17.2246 35.3362C17.9983 35.3362 18.7274 35.5262 19.3691 35.8606C18.2638 35.011 17.5509 33.6759 17.5508 32.1741C17.5508 29.607 19.6321 27.5256 22.1992 27.5256Z" fill="#D9D9D9"/>
</mask>
<g mask="url(#mask0_1409_48834)">
<path d="M22.1992 27.5256C24.7662 27.5257 26.8467 29.6071 26.8467 32.1741C26.8465 33.6761 26.1338 35.011 25.0283 35.8606C25.6702 35.526 26.3999 35.3362 27.1738 35.3362C29.7408 35.3363 31.8213 37.4176 31.8213 39.9846C31.8211 42.5514 29.7407 44.6319 27.1738 44.6321C25.2563 44.6321 23.6098 43.4712 22.8994 41.8137C22.977 44.8065 25.0324 46.6231 26.0703 47.1643H18.3164C19.3513 46.6246 21.3964 44.817 21.4854 41.8401C20.7687 43.4831 19.1317 44.6321 17.2246 44.6321C14.6577 44.6321 12.5764 42.5515 12.5762 39.9846C12.5762 37.4175 14.6575 35.3362 17.2246 35.3362C17.9983 35.3362 18.7274 35.5262 19.3691 35.8606C18.2638 35.011 17.5509 33.6759 17.5508 32.1741C17.5508 29.607 19.6321 27.5256 22.1992 27.5256Z" fill="#1A181E"/>
<rect x="12.5762" y="27.5256" width="9.63328" height="19.6391" fill="url(#paint0_linear_1409_48834)" fill-opacity="0.6"/>
</g>
<mask id="mask1_1409_48834" style="mask-type:alpha" maskUnits="userSpaceOnUse" x="8" y="23" width="5" height="5">
<path d="M10.7002 23.4019C11.2999 23.4019 11.7861 23.8881 11.7861 24.4878C11.7861 24.84 11.6174 25.1518 11.3574 25.3501C11.5082 25.2708 11.6801 25.2261 11.8623 25.2261C12.4619 25.2261 12.9482 25.7124 12.9482 26.312C12.9482 26.9117 12.462 27.3979 11.8623 27.3979C11.4154 27.3978 11.0317 27.1276 10.8652 26.7417C10.8845 27.4389 11.3632 27.8632 11.6055 27.9897H9.79492C10.0369 27.8634 10.5127 27.4401 10.5332 26.7446C10.3659 27.1288 9.9838 27.3979 9.53809 27.3979C8.93865 27.3977 8.45312 26.9115 8.45312 26.312C8.45318 25.7126 8.93868 25.2263 9.53809 25.2261C9.72059 25.2261 9.89298 25.2715 10.0439 25.3511C9.78357 25.1528 9.6153 24.8403 9.61523 24.4878C9.61523 23.8883 10.1007 23.4021 10.7002 23.4019Z" fill="#D9D9D9"/>
</mask>
<g mask="url(#mask1_1409_48834)">
<path d="M10.7002 23.4019C11.2999 23.4019 11.7861 23.8881 11.7861 24.4878C11.7861 24.84 11.6174 25.1518 11.3574 25.3501C11.5082 25.2708 11.6801 25.2261 11.8623 25.2261C12.4619 25.2261 12.9482 25.7124 12.9482 26.312C12.9482 26.9117 12.462 27.3979 11.8623 27.3979C11.4154 27.3978 11.0317 27.1276 10.8652 26.7417C10.8845 27.4389 11.3632 27.8632 11.6055 27.9897H9.79492C10.0369 27.8634 10.5127 27.4401 10.5332 26.7446C10.3659 27.1288 9.9838 27.3979 9.53809 27.3979C8.93865 27.3977 8.45312 26.9115 8.45312 26.312C8.45318 25.7126 8.93868 25.2263 9.53809 25.2261C9.72059 25.2261 9.89298 25.2715 10.0439 25.3511C9.78357 25.1528 9.6153 24.8403 9.61523 24.4878C9.61523 23.8883 10.1007 23.4021 10.7002 23.4019Z" fill="#1A181E"/>
<rect x="8.45312" y="23.4019" width="2.2503" height="4.58763" fill="url(#paint1_linear_1409_48834)" fill-opacity="0.6"/>
</g>
<path d="M19.7951 25.2208H15.9492L13.9201 22.1771C13.81 22.1928 13.7038 22.2007 13.6016 22.2007C13.5072 22.2007 13.4128 22.2007 13.3184 22.2007C12.5162 22.2007 11.7415 22.0945 10.9944 21.8821C10.2551 21.6777 9.55903 21.3867 8.90625 21.0092C8.26133 20.6238 7.67147 20.1637 7.13666 19.6289C6.60186 19.0941 6.14176 18.5042 5.75639 17.8593C5.37887 17.2065 5.08394 16.5105 4.87159 15.7712C4.66711 15.024 4.56486 14.2493 4.56486 13.4471C4.56486 12.6449 4.66711 11.8702 4.87159 11.1231C5.08394 10.3759 5.37887 9.67987 5.75639 9.03495C6.14176 8.39003 6.60186 7.80017 7.13666 7.26536C7.67147 6.73055 8.26133 6.27439 8.90625 5.89688C9.55903 5.51937 10.2551 5.22837 10.9944 5.02389C11.7415 4.81154 12.5162 4.70536 13.3184 4.70536C14.1206 4.70536 14.8953 4.81154 15.6425 5.02389C16.3896 5.22837 17.0857 5.51937 17.7306 5.89688C18.3755 6.27439 18.9654 6.73055 19.5002 7.26536C20.035 7.80017 20.4911 8.39003 20.8687 9.03495C21.2462 9.67987 21.5372 10.3759 21.7417 11.1231C21.954 11.8702 22.0602 12.6449 22.0602 13.4471C22.0602 14.2808 21.9422 15.0909 21.7063 15.8774C21.4782 16.6638 21.1518 17.3992 20.7271 18.0834C20.3024 18.7598 19.7872 19.3733 19.1817 19.9238C18.5839 20.4743 17.9154 20.9344 17.1761 21.3041L19.7951 25.2208ZM18.698 13.4471C18.698 12.7078 18.5564 12.0118 18.2733 11.359C17.9901 10.6984 17.6048 10.1282 17.1171 9.64841C16.6374 9.16079 16.0672 8.77541 15.4065 8.49228C14.7538 8.20914 14.0577 8.06758 13.3184 8.06758C12.5713 8.06758 11.8713 8.20914 11.2185 8.49228C10.5657 8.77541 9.99553 9.16079 9.50791 9.64841C9.02029 10.1282 8.63491 10.6984 8.35178 11.359C8.06865 12.0118 7.92708 12.7078 7.92708 13.4471C7.92708 14.1864 8.06865 14.8825 8.35178 15.5352C8.63491 16.1801 9.02029 16.7464 9.50791 17.234C9.99553 17.7217 10.5657 18.107 11.2185 18.3902C11.8713 18.6733 12.5713 18.8149 13.3184 18.8149C14.0577 18.8149 14.7538 18.6733 15.4065 18.3902C16.0672 18.107 16.6374 17.7217 17.1171 17.234C17.6048 16.7464 17.9901 16.1801 18.2733 15.5352C18.5564 14.8825 18.698 14.1864 18.698 13.4471Z" fill="#1A181E"/>
</g>
<defs>
<linearGradient id="paint0_linear_1409_48834" x1="17.3928" y1="27.5256" x2="17.3928" y2="47.1648" gradientUnits="userSpaceOnUse">
<stop stop-color="white" stop-opacity="0.5"/>
<stop offset="1" stop-color="white" stop-opacity="0"/>
</linearGradient>
<linearGradient id="paint1_linear_1409_48834" x1="9.57828" y1="23.4019" x2="9.57828" y2="27.9895" gradientUnits="userSpaceOnUse">
<stop stop-color="white" stop-opacity="0.5"/>
<stop offset="1" stop-color="white" stop-opacity="0"/>
</linearGradient>
<clipPath id="clip0_1409_48834">
<rect width="36" height="50" rx="3.81" fill="white"/>
</clipPath>
</defs>
</svg>
