<svg width="36" height="50" viewBox="0 0 36 50" fill="none" xmlns="http://www.w3.org/2000/svg">
<g clip-path="url(#clip0_1409_48940)">
<rect x="0.541237" y="0.541237" width="34.9175" height="48.9175" rx="3.2732" fill="white" stroke="white" stroke-width="1.08247"/>
<mask id="mask0_1409_48940" style="mask-type:alpha" maskUnits="userSpaceOnUse" x="12" y="27" width="20" height="21">
<path d="M22.1992 27.5256C24.7662 27.5257 26.8467 29.6071 26.8467 32.1741C26.8465 33.6761 26.1338 35.011 25.0283 35.8606C25.6702 35.526 26.3999 35.3362 27.1738 35.3362C29.7408 35.3363 31.8213 37.4176 31.8213 39.9846C31.8211 42.5514 29.7407 44.6319 27.1738 44.6321C25.2563 44.6321 23.6098 43.4712 22.8994 41.8137C22.977 44.8065 25.0324 46.6231 26.0703 47.1643H18.3164C19.3513 46.6246 21.3964 44.817 21.4854 41.8401C20.7687 43.4831 19.1317 44.6321 17.2246 44.6321C14.6577 44.6321 12.5764 42.5515 12.5762 39.9846C12.5762 37.4175 14.6575 35.3362 17.2246 35.3362C17.9983 35.3362 18.7274 35.5262 19.3691 35.8606C18.2638 35.011 17.5509 33.6759 17.5508 32.1741C17.5508 29.607 19.6321 27.5256 22.1992 27.5256Z" fill="#D9D9D9"/>
</mask>
<g mask="url(#mask0_1409_48940)">
<path d="M22.1992 27.5256C24.7662 27.5257 26.8467 29.6071 26.8467 32.1741C26.8465 33.6761 26.1338 35.011 25.0283 35.8606C25.6702 35.526 26.3999 35.3362 27.1738 35.3362C29.7408 35.3363 31.8213 37.4176 31.8213 39.9846C31.8211 42.5514 29.7407 44.6319 27.1738 44.6321C25.2563 44.6321 23.6098 43.4712 22.8994 41.8137C22.977 44.8065 25.0324 46.6231 26.0703 47.1643H18.3164C19.3513 46.6246 21.3964 44.817 21.4854 41.8401C20.7687 43.4831 19.1317 44.6321 17.2246 44.6321C14.6577 44.6321 12.5764 42.5515 12.5762 39.9846C12.5762 37.4175 14.6575 35.3362 17.2246 35.3362C17.9983 35.3362 18.7274 35.5262 19.3691 35.8606C18.2638 35.011 17.5509 33.6759 17.5508 32.1741C17.5508 29.607 19.6321 27.5256 22.1992 27.5256Z" fill="#1A181E"/>
<rect x="12.5762" y="27.5256" width="9.63328" height="19.6391" fill="url(#paint0_linear_1409_48940)" fill-opacity="0.6"/>
</g>
<mask id="mask1_1409_48940" style="mask-type:alpha" maskUnits="userSpaceOnUse" x="8" y="23" width="5" height="5">
<path d="M10.7002 23.4019C11.2999 23.4019 11.7861 23.8881 11.7861 24.4878C11.7861 24.84 11.6174 25.1518 11.3574 25.3501C11.5082 25.2708 11.6801 25.2261 11.8623 25.2261C12.4619 25.2261 12.9482 25.7124 12.9482 26.312C12.9482 26.9117 12.462 27.3979 11.8623 27.3979C11.4154 27.3978 11.0317 27.1276 10.8652 26.7417C10.8845 27.4389 11.3632 27.8632 11.6055 27.9897H9.79492C10.0369 27.8634 10.5127 27.4401 10.5332 26.7446C10.3659 27.1288 9.9838 27.3979 9.53809 27.3979C8.93865 27.3977 8.45312 26.9115 8.45312 26.312C8.45318 25.7126 8.93868 25.2263 9.53809 25.2261C9.72059 25.2261 9.89298 25.2715 10.0439 25.3511C9.78357 25.1528 9.6153 24.8403 9.61523 24.4878C9.61523 23.8883 10.1007 23.4021 10.7002 23.4019Z" fill="#D9D9D9"/>
</mask>
<g mask="url(#mask1_1409_48940)">
<path d="M10.7002 23.4019C11.2999 23.4019 11.7861 23.8881 11.7861 24.4878C11.7861 24.84 11.6174 25.1518 11.3574 25.3501C11.5082 25.2708 11.6801 25.2261 11.8623 25.2261C12.4619 25.2261 12.9482 25.7124 12.9482 26.312C12.9482 26.9117 12.462 27.3979 11.8623 27.3979C11.4154 27.3978 11.0317 27.1276 10.8652 26.7417C10.8845 27.4389 11.3632 27.8632 11.6055 27.9897H9.79492C10.0369 27.8634 10.5127 27.4401 10.5332 26.7446C10.3659 27.1288 9.9838 27.3979 9.53809 27.3979C8.93865 27.3977 8.45312 26.9115 8.45312 26.312C8.45318 25.7126 8.93868 25.2263 9.53809 25.2261C9.72059 25.2261 9.89298 25.2715 10.0439 25.3511C9.78357 25.1528 9.6153 24.8403 9.61523 24.4878C9.61523 23.8883 10.1007 23.4021 10.7002 23.4019Z" fill="#1A181E"/>
<rect x="8.45312" y="23.4019" width="2.2503" height="4.58763" fill="url(#paint1_linear_1409_48940)" fill-opacity="0.6"/>
</g>
<path d="M17.884 11.1349C17.884 12.2202 17.7738 13.282 17.5536 14.3201C17.3413 15.3504 17.0306 16.3256 16.6216 17.2458C16.2127 18.166 15.7133 19.0154 15.1234 19.794C14.5335 20.5727 13.865 21.253 13.1179 21.835H8.55233C9.03209 21.5282 9.49611 21.1861 9.94441 20.8086C10.3927 20.4311 10.8174 20.026 11.2185 19.5935C11.6275 19.1609 12.005 18.7048 12.351 18.225C12.6971 17.7452 13.0038 17.2498 13.2712 16.7386C12.9252 16.9666 12.5555 17.1633 12.1623 17.3284C11.769 17.4857 11.364 17.5644 10.9472 17.5644C9.98766 17.5644 9.12647 17.4071 8.36358 17.0925C7.60069 16.77 6.94791 16.3256 6.40523 15.7594C5.87043 15.1852 5.45752 14.5049 5.16652 13.7185C4.88339 12.932 4.74182 12.0708 4.74182 11.1349C4.74182 10.2225 4.90305 9.36134 5.22551 8.55126C5.55583 7.73332 6.00806 7.02155 6.58219 6.41596C7.15633 5.8025 7.83663 5.31882 8.62312 4.9649C9.4096 4.61098 10.2629 4.43402 11.1831 4.43402C12.1112 4.43402 12.9802 4.61098 13.7903 4.9649C14.6083 5.31882 15.32 5.8025 15.9256 6.41596C16.5312 7.02155 17.007 7.73332 17.3531 8.55126C17.707 9.36134 17.884 10.2225 17.884 11.1349ZM14.2622 11.1349C14.2622 10.7023 14.1875 10.2855 14.0381 9.88435C13.8886 9.48324 13.6763 9.12933 13.401 8.8226C13.1336 8.51587 12.8111 8.27206 12.4336 8.09117C12.0561 7.91028 11.6393 7.81983 11.1831 7.81983C10.7191 7.81983 10.2983 7.91028 9.92081 8.09117C9.55117 8.2642 9.23264 8.50014 8.96524 8.799C8.69783 9.09787 8.49335 9.44785 8.35178 9.84896C8.21021 10.2501 8.13943 10.6787 8.13943 11.1349C8.13943 11.5832 8.21021 12.0079 8.35178 12.409C8.49335 12.8022 8.69783 13.1483 8.96524 13.4471C9.23264 13.746 9.55117 13.9819 9.92081 14.155C10.2983 14.328 10.7191 14.4145 11.1831 14.4145C11.6471 14.4145 12.0679 14.328 12.4454 14.155C12.8308 13.9819 13.1572 13.746 13.4246 13.4471C13.692 13.1483 13.8965 12.8022 14.0381 12.409C14.1875 12.0079 14.2622 11.5832 14.2622 11.1349Z" fill="#1A181E"/>
</g>
<defs>
<linearGradient id="paint0_linear_1409_48940" x1="17.3928" y1="27.5256" x2="17.3928" y2="47.1648" gradientUnits="userSpaceOnUse">
<stop stop-color="white" stop-opacity="0.5"/>
<stop offset="1" stop-color="white" stop-opacity="0"/>
</linearGradient>
<linearGradient id="paint1_linear_1409_48940" x1="9.57828" y1="23.4019" x2="9.57828" y2="27.9895" gradientUnits="userSpaceOnUse">
<stop stop-color="white" stop-opacity="0.5"/>
<stop offset="1" stop-color="white" stop-opacity="0"/>
</linearGradient>
<clipPath id="clip0_1409_48940">
<rect width="36" height="50" rx="3.81" fill="white"/>
</clipPath>
</defs>
</svg>
