<svg width="36" height="50" viewBox="0 0 36 50" fill="none" xmlns="http://www.w3.org/2000/svg">
<g clip-path="url(#clip0_1409_45743)">
<rect x="0.541237" y="0.541237" width="34.9175" height="48.9175" rx="3.2732" fill="white" stroke="white" stroke-width="1.08247"/>
<mask id="mask0_1409_45743" style="mask-type:alpha" maskUnits="userSpaceOnUse" x="11" y="27" width="22" height="21">
<path d="M27.0039 27.5256C29.8117 27.5256 32.0879 29.8018 32.0879 32.6096V32.9856C32.0879 34.4264 31.5385 37.0468 28.1396 40.0999C25.4209 42.542 22.6944 45.8724 21.9199 47.1643C21.1455 45.8725 18.4181 42.5421 15.6992 40.0999C12.3007 37.047 11.752 34.4263 11.752 32.9856V32.6096C11.752 29.8018 14.0281 27.5256 16.8359 27.5256C19.6437 27.5257 21.9199 29.8018 21.9199 32.6096C21.9199 29.8018 24.196 27.5256 27.0039 27.5256Z" fill="#FF0100"/>
</mask>
<g mask="url(#mask0_1409_45743)">
<path d="M27.0039 27.5256C29.8117 27.5256 32.0879 29.8018 32.0879 32.6096V32.9856C32.0879 34.4264 31.5385 37.0468 28.1396 40.0999C25.4209 42.542 22.6944 45.8724 21.9199 47.1643C21.1455 45.8725 18.4181 42.5421 15.6992 40.0999C12.3007 37.047 11.752 34.4263 11.752 32.9856V32.6096C11.752 29.8018 14.0281 27.5256 16.8359 27.5256C19.6437 27.5257 21.9199 29.8018 21.9199 32.6096C21.9199 29.8018 24.196 27.5256 27.0039 27.5256Z" fill="#FF0100"/>
<rect x="10.3145" y="27.5256" width="11.609" height="19.6392" fill="url(#paint0_linear_1409_45743)"/>
</g>
<mask id="mask1_1409_45743" style="mask-type:alpha" maskUnits="userSpaceOnUse" x="8" y="23" width="5" height="5">
<path d="M11.5752 23.4021C12.2309 23.4024 12.7626 23.9339 12.7627 24.5896V24.6775C12.7627 25.014 12.6338 25.6264 11.8398 26.3396C11.2048 26.9101 10.5675 27.6883 10.3867 27.99C10.2059 27.6883 9.56876 26.9101 8.93359 26.3396C8.13979 25.6265 8.01172 25.014 8.01172 24.6775V24.5896C8.01177 23.9338 8.54345 23.4022 9.19922 23.4021C9.8551 23.4021 10.3867 23.9337 10.3867 24.5896C10.3868 23.9337 10.9193 23.4021 11.5752 23.4021Z" fill="#FF0100"/>
</mask>
<g mask="url(#mask1_1409_45743)">
<path d="M11.5752 23.4021C12.2309 23.4024 12.7626 23.9339 12.7627 24.5896V24.6775C12.7627 25.014 12.6338 25.6264 11.8398 26.3396C11.2048 26.9101 10.5675 27.6883 10.3867 27.99C10.2059 27.6883 9.56876 26.9101 8.93359 26.3396C8.13979 25.6265 8.01172 25.014 8.01172 24.6775V24.5896C8.01177 23.9338 8.54345 23.4022 9.19922 23.4021C9.8551 23.4021 10.3867 23.9337 10.3867 24.5896C10.3868 23.9337 10.9193 23.4021 11.5752 23.4021Z" fill="#FF0100"/>
</g>
<path d="M16.6824 16.7621C16.6824 17.4621 16.5487 18.1188 16.2813 18.7323C16.0139 19.3457 15.6481 19.8845 15.1841 20.3485C14.728 20.8047 14.1931 21.1665 13.5797 21.4339C12.9662 21.7013 12.3095 21.835 11.6095 21.835H4.83793V18.4492H11.6095C11.8455 18.4492 12.0657 18.4059 12.2702 18.3194C12.4747 18.2329 12.6516 18.1149 12.8011 17.9655C12.9584 17.8082 13.0803 17.6273 13.1668 17.4228C13.2533 17.2183 13.2966 16.9981 13.2966 16.7621C13.2966 16.5262 13.2533 16.306 13.1668 16.1015C13.0803 15.897 12.9584 15.7201 12.8011 15.5706C12.6516 15.4133 12.4747 15.2914 12.2702 15.2049C12.0657 15.1184 11.8455 15.0751 11.6095 15.0751H6.99682V11.6893H11.6095C11.8455 11.6893 12.0657 11.6461 12.2702 11.5596C12.4747 11.473 12.6516 11.3551 12.8011 11.2056C12.9584 11.0483 13.0803 10.8675 13.1668 10.663C13.2533 10.4506 13.2966 10.2265 13.2966 9.99053C13.2966 9.75458 13.2533 9.53437 13.1668 9.32988C13.0803 9.1254 12.9584 8.94844 12.8011 8.799C12.6516 8.64171 12.4747 8.5198 12.2702 8.43329C12.0657 8.34678 11.8455 8.30352 11.6095 8.30352H4.83793V4.91771H11.6095C12.3095 4.91771 12.9662 5.05141 13.5797 5.31882C14.1931 5.58622 14.728 5.95194 15.1841 6.41596C15.6481 6.87212 16.0139 7.40693 16.2813 8.02039C16.5487 8.63384 16.6824 9.29056 16.6824 9.99053C16.6824 10.6118 16.5683 11.2174 16.3402 11.8073C16.1122 12.3893 15.7897 12.9123 15.3729 13.3763C15.7897 13.8404 16.1122 14.3673 16.3402 14.9572C16.5683 15.5392 16.6824 16.1408 16.6824 16.7621Z" fill="#FF0100"/>
</g>
<defs>
<linearGradient id="paint0_linear_1409_45743" x1="16.119" y1="27.5256" x2="16.119" y2="47.1648" gradientUnits="userSpaceOnUse">
<stop stop-color="white" stop-opacity="0.5"/>
<stop offset="1" stop-color="white" stop-opacity="0"/>
</linearGradient>
<clipPath id="clip0_1409_45743">
<rect width="36" height="50" rx="3.81" fill="white"/>
</clipPath>
</defs>
</svg>
