<svg width="36" height="50" viewBox="0 0 36 50" fill="none" xmlns="http://www.w3.org/2000/svg">
<g clip-path="url(#clip0_1409_45768)">
<rect x="0.541237" y="0.541237" width="34.9175" height="48.9175" rx="3.2732" fill="white" stroke="white" stroke-width="1.08247"/>
<mask id="mask0_1409_45768" style="mask-type:alpha" maskUnits="userSpaceOnUse" x="11" y="27" width="22" height="21">
<path d="M27.0039 27.5256C29.8117 27.5256 32.0879 29.8018 32.0879 32.6096V32.9856C32.0879 34.4264 31.5385 37.0468 28.1396 40.0999C25.4209 42.542 22.6944 45.8724 21.9199 47.1643C21.1455 45.8725 18.4181 42.5421 15.6992 40.0999C12.3007 37.047 11.752 34.4263 11.752 32.9856V32.6096C11.752 29.8018 14.0281 27.5256 16.8359 27.5256C19.6437 27.5257 21.9199 29.8018 21.9199 32.6096C21.9199 29.8018 24.196 27.5256 27.0039 27.5256Z" fill="#FF0100"/>
</mask>
<g mask="url(#mask0_1409_45768)">
<path d="M27.0039 27.5256C29.8117 27.5256 32.0879 29.8018 32.0879 32.6096V32.9856C32.0879 34.4264 31.5385 37.0468 28.1396 40.0999C25.4209 42.542 22.6944 45.8724 21.9199 47.1643C21.1455 45.8725 18.4181 42.5421 15.6992 40.0999C12.3007 37.047 11.752 34.4263 11.752 32.9856V32.6096C11.752 29.8018 14.0281 27.5256 16.8359 27.5256C19.6437 27.5257 21.9199 29.8018 21.9199 32.6096C21.9199 29.8018 24.196 27.5256 27.0039 27.5256Z" fill="#FF0100"/>
<rect x="10.3145" y="27.5256" width="11.609" height="19.6392" fill="url(#paint0_linear_1409_45768)"/>
</g>
<mask id="mask1_1409_45768" style="mask-type:alpha" maskUnits="userSpaceOnUse" x="8" y="23" width="5" height="5">
<path d="M11.5752 23.4021C12.2309 23.4024 12.7626 23.9339 12.7627 24.5896V24.6775C12.7627 25.014 12.6338 25.6264 11.8398 26.3396C11.2048 26.9101 10.5675 27.6883 10.3867 27.99C10.2059 27.6883 9.56876 26.9101 8.93359 26.3396C8.13979 25.6265 8.01172 25.014 8.01172 24.6775V24.5896C8.01177 23.9338 8.54345 23.4022 9.19922 23.4021C9.8551 23.4021 10.3867 23.9337 10.3867 24.5896C10.3868 23.9337 10.9193 23.4021 11.5752 23.4021Z" fill="#FF0100"/>
</mask>
<g mask="url(#mask1_1409_45768)">
<path d="M11.5752 23.4021C12.2309 23.4024 12.7626 23.9339 12.7627 24.5896V24.6775C12.7627 25.014 12.6338 25.6264 11.8398 26.3396C11.2048 26.9101 10.5675 27.6883 10.3867 27.99C10.2059 27.6883 9.56876 26.9101 8.93359 26.3396C8.13979 25.6265 8.01172 25.014 8.01172 24.6775V24.5896C8.01177 23.9338 8.54345 23.4022 9.19922 23.4021C9.8551 23.4021 10.3867 23.9337 10.3867 24.5896C10.3868 23.9337 10.9193 23.4021 11.5752 23.4021Z" fill="#FF0100"/>
</g>
<path d="M17.8857 18.4492H16.1987V21.835H12.8129V18.4492H4.35424L6.2418 4.91771H9.62761L8.15295 15.0751H12.8129V6.61651H16.1987V15.0751H17.8857V18.4492Z" fill="#FF0100"/>
</g>
<defs>
<linearGradient id="paint0_linear_1409_45768" x1="16.119" y1="27.5256" x2="16.119" y2="47.1648" gradientUnits="userSpaceOnUse">
<stop stop-color="white" stop-opacity="0.5"/>
<stop offset="1" stop-color="white" stop-opacity="0"/>
</linearGradient>
<clipPath id="clip0_1409_45768">
<rect width="36" height="50" rx="3.81" fill="white"/>
</clipPath>
</defs>
</svg>
