<svg width="36" height="50" viewBox="0 0 36 50" fill="none" xmlns="http://www.w3.org/2000/svg">
<g clip-path="url(#clip0_1409_45818)">
<rect x="0.541237" y="0.541237" width="34.9175" height="48.9175" rx="3.2732" fill="white" stroke="white" stroke-width="1.08247"/>
<mask id="mask0_1409_45818" style="mask-type:alpha" maskUnits="userSpaceOnUse" x="11" y="27" width="22" height="21">
<path d="M27.0039 27.5256C29.8117 27.5256 32.0879 29.8018 32.0879 32.6096V32.9856C32.0879 34.4264 31.5385 37.0468 28.1396 40.0999C25.4209 42.542 22.6944 45.8724 21.9199 47.1643C21.1455 45.8725 18.4181 42.5421 15.6992 40.0999C12.3007 37.047 11.752 34.4263 11.752 32.9856V32.6096C11.752 29.8018 14.0281 27.5256 16.8359 27.5256C19.6437 27.5257 21.9199 29.8018 21.9199 32.6096C21.9199 29.8018 24.196 27.5256 27.0039 27.5256Z" fill="#FF0100"/>
</mask>
<g mask="url(#mask0_1409_45818)">
<path d="M27.0039 27.5256C29.8117 27.5256 32.0879 29.8018 32.0879 32.6096V32.9856C32.0879 34.4264 31.5385 37.0468 28.1396 40.0999C25.4209 42.542 22.6944 45.8724 21.9199 47.1643C21.1455 45.8725 18.4181 42.5421 15.6992 40.0999C12.3007 37.047 11.752 34.4263 11.752 32.9856V32.6096C11.752 29.8018 14.0281 27.5256 16.8359 27.5256C19.6437 27.5257 21.9199 29.8018 21.9199 32.6096C21.9199 29.8018 24.196 27.5256 27.0039 27.5256Z" fill="#FF0100"/>
<rect x="10.3145" y="27.5256" width="11.609" height="19.6392" fill="url(#paint0_linear_1409_45818)"/>
</g>
<mask id="mask1_1409_45818" style="mask-type:alpha" maskUnits="userSpaceOnUse" x="8" y="23" width="5" height="5">
<path d="M11.5752 23.4021C12.2309 23.4024 12.7626 23.9339 12.7627 24.5896V24.6775C12.7627 25.014 12.6338 25.6264 11.8398 26.3396C11.2048 26.9101 10.5675 27.6883 10.3867 27.99C10.2059 27.6883 9.56876 26.9101 8.93359 26.3396C8.13979 25.6265 8.01172 25.014 8.01172 24.6775V24.5896C8.01177 23.9338 8.54345 23.4022 9.19922 23.4021C9.8551 23.4021 10.3867 23.9337 10.3867 24.5896C10.3868 23.9337 10.9193 23.4021 11.5752 23.4021Z" fill="#FF0100"/>
</mask>
<g mask="url(#mask1_1409_45818)">
<path d="M11.5752 23.4021C12.2309 23.4024 12.7626 23.9339 12.7627 24.5896V24.6775C12.7627 25.014 12.6338 25.6264 11.8398 26.3396C11.2048 26.9101 10.5675 27.6883 10.3867 27.99C10.2059 27.6883 9.56876 26.9101 8.93359 26.3396C8.13979 25.6265 8.01172 25.014 8.01172 24.6775V24.5896C8.01177 23.9338 8.54345 23.4022 9.19922 23.4021C9.8551 23.4021 10.3867 23.9337 10.3867 24.5896C10.3868 23.9337 10.9193 23.4021 11.5752 23.4021Z" fill="#FF0100"/>
</g>
<path d="M17.6969 15.6296C17.6969 16.5419 17.5318 17.4031 17.2014 18.2132C16.879 19.0233 16.4307 19.7351 15.8566 20.3485C15.2824 20.9541 14.5982 21.4339 13.8038 21.7878C13.0174 22.1417 12.164 22.3186 11.2438 22.3186C10.3236 22.3186 9.45458 22.1417 8.63664 21.7878C7.82656 21.4339 7.11873 20.9541 6.51314 20.3485C5.90754 19.7351 5.42779 19.0233 5.07387 18.2132C4.72782 17.4031 4.55479 16.5419 4.55479 15.6296C4.55479 14.5443 4.66097 13.4864 4.87332 12.4562C5.08567 11.418 5.39633 10.4388 5.8053 9.51864C6.21427 8.59059 6.71369 7.73725 7.30355 6.95863C7.89341 6.18002 8.56192 5.49971 9.30908 4.91771H13.8746C13.4027 5.22444 12.9426 5.56656 12.4943 5.94407C12.046 6.32158 11.6174 6.72662 11.2084 7.15919C10.8073 7.59175 10.4338 8.04791 10.0877 8.52767C9.74165 9.00742 9.43492 9.50684 9.16752 10.0259C9.5057 9.79784 9.87142 9.60515 10.2647 9.44785C10.6658 9.28269 11.0747 9.20011 11.4916 9.20011C12.4432 9.20011 13.3005 9.36134 14.0634 9.6838C14.8341 9.99839 15.4869 10.4428 16.0217 11.0169C16.5565 11.5832 16.9694 12.2595 17.2604 13.046C17.5514 13.8325 17.6969 14.6937 17.6969 15.6296ZM14.3111 15.6296C14.3111 15.1813 14.2364 14.7605 14.087 14.3673C13.9454 13.9662 13.7409 13.6162 13.4735 13.3173C13.2061 13.0106 12.8836 12.7707 12.5061 12.5977C12.1286 12.4247 11.7079 12.3382 11.2438 12.3382C10.7798 12.3382 10.359 12.4247 9.98153 12.5977C9.60401 12.7707 9.28156 13.0106 9.01415 13.3173C8.75461 13.6162 8.55406 13.9662 8.41249 14.3673C8.27093 14.7605 8.20014 15.1813 8.20014 15.6296C8.20014 16.0622 8.27093 16.479 8.41249 16.8801C8.56192 17.2734 8.77034 17.6233 9.03775 17.9301C9.30515 18.2368 9.62368 18.4806 9.99332 18.6615C10.3708 18.8424 10.7877 18.9328 11.2438 18.9328C11.7079 18.9328 12.1286 18.8463 12.5061 18.6733C12.8836 18.5003 13.2061 18.2643 13.4735 17.9655C13.7409 17.6587 13.9454 17.3048 14.087 16.9037C14.2364 16.5026 14.3111 16.0779 14.3111 15.6296Z" fill="#FF0100"/>
</g>
<defs>
<linearGradient id="paint0_linear_1409_45818" x1="16.119" y1="27.5256" x2="16.119" y2="47.1648" gradientUnits="userSpaceOnUse">
<stop stop-color="white" stop-opacity="0.5"/>
<stop offset="1" stop-color="white" stop-opacity="0"/>
</linearGradient>
<clipPath id="clip0_1409_45818">
<rect width="36" height="50" rx="3.81" fill="white"/>
</clipPath>
</defs>
</svg>
