<svg width="36" height="50" viewBox="0 0 36 50" fill="none" xmlns="http://www.w3.org/2000/svg">
<g clip-path="url(#clip0_1409_45893)">
<rect x="0.541237" y="0.541237" width="34.9175" height="48.9175" rx="3.2732" fill="white" stroke="white" stroke-width="1.08247"/>
<mask id="mask0_1409_45893" style="mask-type:alpha" maskUnits="userSpaceOnUse" x="11" y="27" width="22" height="21">
<path d="M27.0039 27.5256C29.8117 27.5256 32.0879 29.8018 32.0879 32.6096V32.9856C32.0879 34.4264 31.5385 37.0468 28.1396 40.0999C25.4209 42.542 22.6944 45.8724 21.9199 47.1643C21.1455 45.8725 18.4181 42.5421 15.6992 40.0999C12.3007 37.047 11.752 34.4263 11.752 32.9856V32.6096C11.752 29.8018 14.0281 27.5256 16.8359 27.5256C19.6437 27.5257 21.9199 29.8018 21.9199 32.6096C21.9199 29.8018 24.196 27.5256 27.0039 27.5256Z" fill="#FF0100"/>
</mask>
<g mask="url(#mask0_1409_45893)">
<path d="M27.0039 27.5256C29.8117 27.5256 32.0879 29.8018 32.0879 32.6096V32.9856C32.0879 34.4264 31.5385 37.0468 28.1396 40.0999C25.4209 42.542 22.6944 45.8724 21.9199 47.1643C21.1455 45.8725 18.4181 42.5421 15.6992 40.0999C12.3007 37.047 11.752 34.4263 11.752 32.9856V32.6096C11.752 29.8018 14.0281 27.5256 16.8359 27.5256C19.6437 27.5257 21.9199 29.8018 21.9199 32.6096C21.9199 29.8018 24.196 27.5256 27.0039 27.5256Z" fill="#FF0100"/>
<rect x="10.3145" y="27.5256" width="11.609" height="19.6392" fill="url(#paint0_linear_1409_45893)"/>
</g>
<mask id="mask1_1409_45893" style="mask-type:alpha" maskUnits="userSpaceOnUse" x="8" y="23" width="5" height="5">
<path d="M11.5752 23.4021C12.2309 23.4024 12.7626 23.9339 12.7627 24.5896V24.6775C12.7627 25.014 12.6338 25.6264 11.8398 26.3396C11.2048 26.9101 10.5675 27.6883 10.3867 27.99C10.2059 27.6883 9.56876 26.9101 8.93359 26.3396C8.13979 25.6265 8.01172 25.014 8.01172 24.6775V24.5896C8.01177 23.9338 8.54345 23.4022 9.19922 23.4021C9.8551 23.4021 10.3867 23.9337 10.3867 24.5896C10.3868 23.9337 10.9193 23.4021 11.5752 23.4021Z" fill="#FF0100"/>
</mask>
<g mask="url(#mask1_1409_45893)">
<path d="M11.5752 23.4021C12.2309 23.4024 12.7626 23.9339 12.7627 24.5896V24.6775C12.7627 25.014 12.6338 25.6264 11.8398 26.3396C11.2048 26.9101 10.5675 27.6883 10.3867 27.99C10.2059 27.6883 9.56876 26.9101 8.93359 26.3396C8.13979 25.6265 8.01172 25.014 8.01172 24.6775V24.5896C8.01177 23.9338 8.54345 23.4022 9.19922 23.4021C9.8551 23.4021 10.3867 23.9337 10.3867 24.5896C10.3868 23.9337 10.9193 23.4021 11.5752 23.4021Z" fill="#FF0100"/>
</g>
<path d="M17.6261 11.1349C17.6261 12.2202 17.516 13.282 17.2958 14.3201C17.0835 15.3504 16.7728 16.3256 16.3638 17.2458C15.9549 18.166 15.4554 19.0154 14.8656 19.794C14.2757 20.5727 13.6072 21.253 12.8601 21.835H8.29452C8.77428 21.5282 9.2383 21.1861 9.6866 20.8086C10.1349 20.4311 10.5596 20.026 10.9607 19.5935C11.3697 19.1609 11.7472 18.7048 12.0932 18.225C12.4393 17.7452 12.746 17.2498 13.0134 16.7386C12.6674 16.9666 12.2977 17.1633 11.9045 17.3284C11.5112 17.4857 11.1062 17.5644 10.6894 17.5644C9.72985 17.5644 8.86865 17.4071 8.10576 17.0925C7.34288 16.77 6.6901 16.3256 6.14742 15.7594C5.61261 15.1852 5.19971 14.5049 4.90871 13.7185C4.62558 12.932 4.48401 12.0708 4.48401 11.1349C4.48401 10.2225 4.64524 9.36134 4.9677 8.55126C5.29802 7.73332 5.75025 7.02155 6.32438 6.41596C6.89851 5.8025 7.57882 5.31882 8.3653 4.9649C9.15179 4.61098 10.0051 4.43402 10.9253 4.43402C11.8534 4.43402 12.7224 4.61098 13.5325 4.9649C14.3504 5.31882 15.0622 5.8025 15.6678 6.41596C16.2734 7.02155 16.7492 7.73332 17.0953 8.55126C17.4492 9.36134 17.6261 10.2225 17.6261 11.1349ZM14.0044 11.1349C14.0044 10.7023 13.9297 10.2855 13.7802 9.88435C13.6308 9.48324 13.4185 9.12933 13.1432 8.8226C12.8758 8.51587 12.5533 8.27206 12.1758 8.09117C11.7983 7.91028 11.3815 7.81983 10.9253 7.81983C10.4613 7.81983 10.0405 7.91028 9.663 8.09117C9.29335 8.2642 8.97483 8.50014 8.70742 8.799C8.44002 9.09787 8.23553 9.44785 8.09397 9.84896C7.9524 10.2501 7.88162 10.6787 7.88162 11.1349C7.88162 11.5832 7.9524 12.0079 8.09397 12.409C8.23553 12.8022 8.44002 13.1483 8.70742 13.4471C8.97483 13.746 9.29335 13.9819 9.663 14.155C10.0405 14.328 10.4613 14.4145 10.9253 14.4145C11.3893 14.4145 11.8101 14.328 12.1876 14.155C12.573 13.9819 12.8994 13.746 13.1668 13.4471C13.4342 13.1483 13.6387 12.8022 13.7802 12.409C13.9297 12.0079 14.0044 11.5832 14.0044 11.1349Z" fill="#FF0100"/>
</g>
<defs>
<linearGradient id="paint0_linear_1409_45893" x1="16.119" y1="27.5256" x2="16.119" y2="47.1648" gradientUnits="userSpaceOnUse">
<stop stop-color="white" stop-opacity="0.5"/>
<stop offset="1" stop-color="white" stop-opacity="0"/>
</linearGradient>
<clipPath id="clip0_1409_45893">
<rect width="36" height="50" rx="3.81" fill="white"/>
</clipPath>
</defs>
</svg>
