<svg width="36" height="50" viewBox="0 0 36 50" fill="none" xmlns="http://www.w3.org/2000/svg">
<g clip-path="url(#clip0_1409_45968)">
<rect x="0.541237" y="0.541237" width="34.9175" height="48.9175" rx="3.2732" fill="white" stroke="white" stroke-width="1.08247"/>
<mask id="mask0_1409_45968" style="mask-type:alpha" maskUnits="userSpaceOnUse" x="11" y="27" width="22" height="21">
<path d="M27.0039 27.5256C29.8117 27.5256 32.0879 29.8018 32.0879 32.6096V32.9856C32.0879 34.4264 31.5385 37.0468 28.1396 40.0999C25.4209 42.542 22.6944 45.8724 21.9199 47.1643C21.1455 45.8725 18.4181 42.5421 15.6992 40.0999C12.3007 37.047 11.752 34.4263 11.752 32.9856V32.6096C11.752 29.8018 14.0281 27.5256 16.8359 27.5256C19.6437 27.5257 21.9199 29.8018 21.9199 32.6096C21.9199 29.8018 24.196 27.5256 27.0039 27.5256Z" fill="#FF0100"/>
</mask>
<g mask="url(#mask0_1409_45968)">
<path d="M27.0039 27.5256C29.8117 27.5256 32.0879 29.8018 32.0879 32.6096V32.9856C32.0879 34.4264 31.5385 37.0468 28.1396 40.0999C25.4209 42.542 22.6944 45.8724 21.9199 47.1643C21.1455 45.8725 18.4181 42.5421 15.6992 40.0999C12.3007 37.047 11.752 34.4263 11.752 32.9856V32.6096C11.752 29.8018 14.0281 27.5256 16.8359 27.5256C19.6437 27.5257 21.9199 29.8018 21.9199 32.6096C21.9199 29.8018 24.196 27.5256 27.0039 27.5256Z" fill="#FF0100"/>
<rect x="10.3145" y="27.5256" width="11.609" height="19.6392" fill="url(#paint0_linear_1409_45968)"/>
</g>
<mask id="mask1_1409_45968" style="mask-type:alpha" maskUnits="userSpaceOnUse" x="8" y="23" width="5" height="5">
<path d="M11.5752 23.4021C12.2309 23.4024 12.7626 23.9339 12.7627 24.5896V24.6775C12.7627 25.014 12.6338 25.6264 11.8398 26.3396C11.2048 26.9101 10.5675 27.6883 10.3867 27.99C10.2059 27.6883 9.56876 26.9101 8.93359 26.3396C8.13979 25.6265 8.01172 25.014 8.01172 24.6775V24.5896C8.01177 23.9338 8.54345 23.4022 9.19922 23.4021C9.8551 23.4021 10.3867 23.9337 10.3867 24.5896C10.3868 23.9337 10.9193 23.4021 11.5752 23.4021Z" fill="#FF0100"/>
</mask>
<g mask="url(#mask1_1409_45968)">
<path d="M11.5752 23.4021C12.2309 23.4024 12.7626 23.9339 12.7627 24.5896V24.6775C12.7627 25.014 12.6338 25.6264 11.8398 26.3396C11.2048 26.9101 10.5675 27.6883 10.3867 27.99C10.2059 27.6883 9.56876 26.9101 8.93359 26.3396C8.13979 25.6265 8.01172 25.014 8.01172 24.6775V24.5896C8.01177 23.9338 8.54345 23.4022 9.19922 23.4021C9.8551 23.4021 10.3867 23.9337 10.3867 24.5896C10.3868 23.9337 10.9193 23.4021 11.5752 23.4021Z" fill="#FF0100"/>
</g>
<path d="M19.5373 25.2208H15.6914L13.6623 22.1771C13.5522 22.1928 13.446 22.2007 13.3437 22.2007C13.2494 22.2007 13.155 22.2007 13.0606 22.2007C12.2584 22.2007 11.4837 22.0945 10.7366 21.8821C9.99726 21.6777 9.30122 21.3867 8.64844 21.0092C8.00352 20.6238 7.41366 20.1637 6.87885 19.6289C6.34404 19.0941 5.88395 18.5042 5.49857 17.8593C5.12106 17.2065 4.82613 16.5105 4.61378 15.7712C4.40929 15.024 4.30705 14.2493 4.30705 13.4471C4.30705 12.6449 4.40929 11.8702 4.61378 11.1231C4.82613 10.3759 5.12106 9.67987 5.49857 9.03495C5.88395 8.39003 6.34404 7.80017 6.87885 7.26536C7.41366 6.73055 8.00352 6.27439 8.64844 5.89688C9.30122 5.51937 9.99726 5.22837 10.7366 5.02389C11.4837 4.81154 12.2584 4.70536 13.0606 4.70536C13.8628 4.70536 14.6375 4.81154 15.3847 5.02389C16.1318 5.22837 16.8279 5.51937 17.4728 5.89688C18.1177 6.27439 18.7076 6.73055 19.2424 7.26536C19.7772 7.80017 20.2333 8.39003 20.6108 9.03495C20.9884 9.67987 21.2794 10.3759 21.4838 11.1231C21.6962 11.8702 21.8024 12.6449 21.8024 13.4471C21.8024 14.2808 21.6844 15.0909 21.4484 15.8774C21.2204 16.6638 20.894 17.3992 20.4693 18.0834C20.0446 18.7598 19.5294 19.3733 18.9238 19.9238C18.3261 20.4743 17.6576 20.9344 16.9183 21.3041L19.5373 25.2208ZM18.4402 13.4471C18.4402 12.7078 18.2986 12.0118 18.0155 11.359C17.7323 10.6984 17.3469 10.1282 16.8593 9.64841C16.3796 9.16079 15.8094 8.77541 15.1487 8.49228C14.4959 8.20914 13.7999 8.06758 13.0606 8.06758C12.3134 8.06758 11.6135 8.20914 10.9607 8.49228C10.3079 8.77541 9.73772 9.16079 9.2501 9.64841C8.76248 10.1282 8.3771 10.6984 8.09397 11.359C7.81083 12.0118 7.66927 12.7078 7.66927 13.4471C7.66927 14.1864 7.81083 14.8825 8.09397 15.5352C8.3771 16.1801 8.76248 16.7464 9.2501 17.234C9.73772 17.7217 10.3079 18.107 10.9607 18.3902C11.6135 18.6733 12.3134 18.8149 13.0606 18.8149C13.7999 18.8149 14.4959 18.6733 15.1487 18.3902C15.8094 18.107 16.3796 17.7217 16.8593 17.234C17.3469 16.7464 17.7323 16.1801 18.0155 15.5352C18.2986 14.8825 18.4402 14.1864 18.4402 13.4471Z" fill="#FF0100"/>
</g>
<defs>
<linearGradient id="paint0_linear_1409_45968" x1="16.119" y1="27.5256" x2="16.119" y2="47.1648" gradientUnits="userSpaceOnUse">
<stop stop-color="white" stop-opacity="0.5"/>
<stop offset="1" stop-color="white" stop-opacity="0"/>
</linearGradient>
<clipPath id="clip0_1409_45968">
<rect width="36" height="50" rx="3.81" fill="white"/>
</clipPath>
</defs>
</svg>
