<svg width="36" height="50" viewBox="0 0 36 50" fill="none" xmlns="http://www.w3.org/2000/svg">
<g clip-path="url(#clip0_1409_48403)">
<rect x="0.541237" y="0.541237" width="34.9175" height="48.9175" rx="3.2732" fill="white" stroke="white" stroke-width="1.08247"/>
<mask id="mask0_1409_48403" style="mask-type:alpha" maskUnits="userSpaceOnUse" x="14" y="27" width="16" height="21">
<path d="M14.2409 37.3455L21.9329 27.5259L29.6249 37.3455L21.9329 47.165L14.2409 37.3455Z" fill="#FF0100"/>
</mask>
<g mask="url(#mask0_1409_48403)">
<path d="M14.2409 37.3455L21.9329 27.5259L29.6249 37.3455L21.9329 47.165L14.2409 37.3455Z" fill="#FF0100"/>
<rect x="14.2012" y="27.5259" width="7.70862" height="19.7533" fill="url(#paint0_linear_1409_48403)"/>
</g>
<path d="M8.98783 26.6477L11.2034 23.8193L13.419 26.6477L11.2034 29.4761L8.98783 26.6477Z" fill="#FF0100"/>
<path d="M10.0125 21.835H6.62672V8.30352H4.93972V4.91771H10.0125V21.835ZM22.5299 13.3763C22.5299 11.4966 22.2153 10.1006 21.5861 9.18831C20.9648 8.27599 20.0957 7.81983 18.9789 7.81983C17.87 7.81983 17.0088 8.27206 16.3953 9.17652C15.7819 10.081 15.4751 11.4809 15.4751 13.3763C15.4751 15.256 15.7819 16.652 16.3953 17.5644C17.0088 18.4767 17.87 18.9328 18.9789 18.9328C19.5373 18.9328 20.0367 18.8227 20.4772 18.6025C20.9176 18.3744 21.2872 18.0323 21.5861 17.5762C21.8928 17.12 22.1248 16.5459 22.2821 15.8538C22.4473 15.1538 22.5299 14.328 22.5299 13.3763ZM25.7505 13.3763C25.7505 14.9808 25.5736 16.3374 25.2197 17.4464C24.8657 18.5553 24.382 19.4519 23.7686 20.1362C23.1551 20.8204 22.4355 21.3159 21.6097 21.6226C20.7918 21.9215 19.9148 22.0709 18.9789 22.0709C18.043 22.0709 17.1621 21.9175 16.3363 21.6108C15.5184 21.2962 14.8027 20.7968 14.1892 20.1126C13.5836 19.4205 13.1039 18.5239 12.75 17.4228C12.396 16.3139 12.2191 14.965 12.2191 13.3763C12.2191 11.7719 12.396 10.4192 12.75 9.31808C13.1039 8.20914 13.5836 7.31255 14.1892 6.62831C14.8027 5.94407 15.5184 5.44859 16.3363 5.14186C17.1621 4.83513 18.043 4.68177 18.9789 4.68177C19.9148 4.68177 20.7918 4.83906 21.6097 5.15366C22.4355 5.46038 23.1551 5.9598 23.7686 6.65191C24.382 7.34401 24.8657 8.2406 25.2197 9.34168C25.5736 10.4428 25.7505 11.7876 25.7505 13.3763Z" fill="#FF0100"/>
</g>
<defs>
<linearGradient id="paint0_linear_1409_48403" x1="18.0555" y1="27.5259" x2="18.0555" y2="47.2792" gradientUnits="userSpaceOnUse">
<stop stop-color="white" stop-opacity="0.5"/>
<stop offset="1" stop-color="white" stop-opacity="0"/>
</linearGradient>
<clipPath id="clip0_1409_48403">
<rect width="36" height="50" rx="3.81" fill="white"/>
</clipPath>
</defs>
</svg>
