<svg width="36" height="50" viewBox="0 0 36 50" fill="none" xmlns="http://www.w3.org/2000/svg">
<g clip-path="url(#clip0_1409_48315)">
<rect x="0.541237" y="0.541237" width="34.9175" height="48.9175" rx="3.2732" fill="white" stroke="white" stroke-width="1.08247"/>
<mask id="mask0_1409_48315" style="mask-type:alpha" maskUnits="userSpaceOnUse" x="14" y="27" width="16" height="21">
<path d="M14.2409 37.3455L21.9329 27.5259L29.6249 37.3455L21.9329 47.165L14.2409 37.3455Z" fill="#FF0100"/>
</mask>
<g mask="url(#mask0_1409_48315)">
<path d="M14.2409 37.3455L21.9329 27.5259L29.6249 37.3455L21.9329 47.165L14.2409 37.3455Z" fill="#FF0100"/>
<rect x="14.2012" y="27.5259" width="7.70862" height="19.7533" fill="url(#paint0_linear_1409_48315)"/>
</g>
<path d="M8.98783 26.6477L11.2034 23.8193L13.419 26.6477L11.2034 29.4761L8.98783 26.6477Z" fill="#FF0100"/>
<path d="M18.0583 15.6296C18.0583 16.5419 17.8931 17.4031 17.5628 18.2132C17.2403 19.0233 16.792 19.7351 16.2179 20.3485C15.6438 20.9541 14.9595 21.4339 14.1652 21.7878C13.3787 22.1417 12.5253 22.3186 11.6052 22.3186C10.685 22.3186 9.81591 22.1417 8.99797 21.7878C8.18789 21.4339 7.48006 20.9541 6.87446 20.3485C6.26887 19.7351 5.78912 19.0233 5.4352 18.2132C5.08915 17.4031 4.91612 16.5419 4.91612 15.6296C4.91612 14.5443 5.0223 13.4864 5.23465 12.4562C5.447 11.418 5.75766 10.4388 6.16663 9.51864C6.5756 8.59059 7.07502 7.73725 7.66488 6.95863C8.25474 6.18002 8.92325 5.49971 9.67041 4.91771H14.2359C13.7641 5.22444 13.304 5.56656 12.8557 5.94407C12.4074 6.32158 11.9787 6.72662 11.5698 7.15919C11.1687 7.59175 10.7951 8.04791 10.449 8.52767C10.103 9.00742 9.79625 9.50684 9.52884 10.0259C9.86703 9.79784 10.2327 9.60515 10.626 9.44785C11.0271 9.28269 11.4361 9.20011 11.8529 9.20011C12.8045 9.20011 13.6618 9.36134 14.4247 9.6838C15.1955 9.99839 15.8482 10.4428 16.383 11.0169C16.9179 11.5832 17.3308 12.2595 17.6218 13.046C17.9128 13.8325 18.0583 14.6937 18.0583 15.6296ZM14.6724 15.6296C14.6724 15.1813 14.5977 14.7605 14.4483 14.3673C14.3067 13.9662 14.1022 13.6162 13.8348 13.3173C13.5674 13.0106 13.245 12.7707 12.8675 12.5977C12.49 12.4247 12.0692 12.3382 11.6052 12.3382C11.1411 12.3382 10.7204 12.4247 10.3429 12.5977C9.96534 12.7707 9.64288 13.0106 9.37548 13.3173C9.11594 13.6162 8.91539 13.9662 8.77382 14.3673C8.63225 14.7605 8.56147 15.1813 8.56147 15.6296C8.56147 16.0622 8.63225 16.479 8.77382 16.8801C8.92325 17.2734 9.13167 17.6233 9.39908 17.9301C9.66648 18.2368 9.98501 18.4806 10.3547 18.6615C10.7322 18.8424 11.149 18.9328 11.6052 18.9328C12.0692 18.9328 12.49 18.8463 12.8675 18.6733C13.245 18.5003 13.5674 18.2643 13.8348 17.9655C14.1022 17.6587 14.3067 17.3048 14.4483 16.9037C14.5977 16.5026 14.6724 16.0779 14.6724 15.6296Z" fill="#FF0100"/>
</g>
<defs>
<linearGradient id="paint0_linear_1409_48315" x1="18.0555" y1="27.5259" x2="18.0555" y2="47.2792" gradientUnits="userSpaceOnUse">
<stop stop-color="white" stop-opacity="0.5"/>
<stop offset="1" stop-color="white" stop-opacity="0"/>
</linearGradient>
<clipPath id="clip0_1409_48315">
<rect width="36" height="50" rx="3.81" fill="white"/>
</clipPath>
</defs>
</svg>
