<svg width="36" height="50" viewBox="0 0 36 50" fill="none" xmlns="http://www.w3.org/2000/svg">
<g clip-path="url(#clip0_1409_48425)">
<rect x="0.541237" y="0.541237" width="34.9175" height="48.9175" rx="3.2732" fill="white" stroke="white" stroke-width="1.08247"/>
<mask id="mask0_1409_48425" style="mask-type:alpha" maskUnits="userSpaceOnUse" x="14" y="27" width="16" height="21">
<path d="M14.2409 37.3455L21.9329 27.5259L29.6249 37.3455L21.9329 47.165L14.2409 37.3455Z" fill="#FF0100"/>
</mask>
<g mask="url(#mask0_1409_48425)">
<path d="M14.2409 37.3455L21.9329 27.5259L29.6249 37.3455L21.9329 47.165L14.2409 37.3455Z" fill="#FF0100"/>
<rect x="14.2012" y="27.5259" width="7.70862" height="19.7533" fill="url(#paint0_linear_1409_48425)"/>
</g>
<path d="M8.98783 26.6477L11.2034 23.8193L13.419 26.6477L11.2034 29.4761L8.98783 26.6477Z" fill="#FF0100"/>
<path d="M19.8986 25.2208H16.0527L14.0236 22.1771C13.9135 22.1928 13.8073 22.2007 13.7051 22.2007C13.6107 22.2007 13.5163 22.2007 13.4219 22.2007C12.6197 22.2007 11.845 22.0945 11.0979 21.8821C10.3586 21.6777 9.66255 21.3867 9.00977 21.0092C8.36485 20.6238 7.77499 20.1637 7.24018 19.6289C6.70537 19.0941 6.24528 18.5042 5.8599 17.8593C5.48239 17.2065 5.18746 16.5105 4.97511 15.7712C4.77062 15.024 4.66838 14.2493 4.66838 13.4471C4.66838 12.6449 4.77062 11.8702 4.97511 11.1231C5.18746 10.3759 5.48239 9.67987 5.8599 9.03495C6.24528 8.39003 6.70537 7.80017 7.24018 7.26536C7.77499 6.73055 8.36485 6.27439 9.00977 5.89688C9.66255 5.51937 10.3586 5.22837 11.0979 5.02389C11.845 4.81154 12.6197 4.70536 13.4219 4.70536C14.2241 4.70536 14.9988 4.81154 15.746 5.02389C16.4932 5.22837 17.1892 5.51937 17.8341 5.89688C18.479 6.27439 19.0689 6.73055 19.6037 7.26536C20.1385 7.80017 20.5947 8.39003 20.9722 9.03495C21.3497 9.67987 21.6407 10.3759 21.8452 11.1231C22.0575 11.8702 22.1637 12.6449 22.1637 13.4471C22.1637 14.2808 22.0457 15.0909 21.8098 15.8774C21.5817 16.6638 21.2553 17.3992 20.8306 18.0834C20.4059 18.7598 19.8908 19.3733 19.2852 19.9238C18.6874 20.4743 18.0189 20.9344 17.2796 21.3041L19.8986 25.2208ZM18.8015 13.4471C18.8015 12.7078 18.6599 12.0118 18.3768 11.359C18.0936 10.6984 17.7083 10.1282 17.2206 9.64841C16.7409 9.16079 16.1707 8.77541 15.51 8.49228C14.8573 8.20914 14.1612 8.06758 13.4219 8.06758C12.6748 8.06758 11.9748 8.20914 11.322 8.49228C10.6692 8.77541 10.099 9.16079 9.61143 9.64841C9.12381 10.1282 8.73843 10.6984 8.4553 11.359C8.17216 12.0118 8.03059 12.7078 8.03059 13.4471C8.03059 14.1864 8.17216 14.8825 8.4553 15.5352C8.73843 16.1801 9.12381 16.7464 9.61143 17.234C10.099 17.7217 10.6692 18.107 11.322 18.3902C11.9748 18.6733 12.6748 18.8149 13.4219 18.8149C14.1612 18.8149 14.8573 18.6733 15.51 18.3902C16.1707 18.107 16.7409 17.7217 17.2206 17.234C17.7083 16.7464 18.0936 16.1801 18.3768 15.5352C18.6599 14.8825 18.8015 14.1864 18.8015 13.4471Z" fill="#FF0100"/>
</g>
<defs>
<linearGradient id="paint0_linear_1409_48425" x1="18.0555" y1="27.5259" x2="18.0555" y2="47.2792" gradientUnits="userSpaceOnUse">
<stop stop-color="white" stop-opacity="0.5"/>
<stop offset="1" stop-color="white" stop-opacity="0"/>
</linearGradient>
<clipPath id="clip0_1409_48425">
<rect width="36" height="50" rx="3.81" fill="white"/>
</clipPath>
</defs>
</svg>
