<svg width="28" height="28" viewBox="0 0 28 28" fill="none" xmlns="http://www.w3.org/2000/svg">
<rect width="28" height="28" rx="8" fill="white"/>
<rect x="0.5" y="0.5" width="27" height="27" rx="7.5" stroke="black" stroke-opacity="0.1"/>
<path d="M17.375 8.5C20.4816 8.5 23 10.9624 23 14C23 17.0376 20.4816 19.5 17.375 19.5H10.625C7.5184 19.5 5 17.0376 5 14C5 10.9624 7.5184 8.5 10.625 8.5H17.375ZM10.625 9.4625C8.06205 9.4625 5.98438 11.494 5.98438 14C5.98438 16.506 8.06205 18.5375 10.625 18.5375H17.375C19.9379 18.5375 22.0156 16.506 22.0156 14C22.0156 11.494 19.9379 9.4625 17.375 9.4625H10.625ZM17.2344 10.2875C19.3313 10.2875 21.0312 11.9496 21.0312 14V14.275C21.0312 16.1735 19.4573 17.7125 17.5156 17.7125H17.105C16.7996 17.7125 16.5011 17.6241 16.247 17.4584L15.4444 16.9353C15.1903 16.7697 14.8918 16.6813 14.5864 16.6813H13.4136C13.1082 16.6813 12.8097 16.7697 12.5556 16.9353L11.753 17.4584C11.4989 17.6241 11.2004 17.7125 10.895 17.7125H10.4844C8.54275 17.7125 6.96875 16.1735 6.96875 14.275V14C6.96875 11.9496 8.66867 10.2875 10.7656 10.2875H17.2344Z" fill="#3772FF"/>
</svg>
