<svg width="16" height="16" viewBox="0 0 16 16" fill="none" xmlns="http://www.w3.org/2000/svg">
<g clip-path="url(#clip0_2803_342107)">
<path d="M3.60671 11.1922C3.73787 11.097 3.92082 11.1267 4.02344 11.2521C4.47323 11.8022 5.03305 12.2538 5.66802 12.5774C6.30301 12.9009 6.99757 13.0883 7.70696 13.1289C7.86373 13.1379 7.99208 13.2608 7.99994 13.4158L8.00033 13.4309V15.0455L7.99994 15.0606C7.99207 15.2157 7.86375 15.3394 7.70686 15.3332L7.60777 15.3285C6.58512 15.2737 5.58364 15.0053 4.66856 14.5391C3.72396 14.0578 2.89574 13.3781 2.24022 12.5478L2.23123 12.5357C2.14177 12.4091 2.17348 12.2336 2.30051 12.1412L3.60671 11.1922ZM10.5636 12.4519C10.6997 12.3736 10.8743 12.406 10.9658 12.5314L10.9744 12.5438L11.8586 13.8947L11.8666 13.9076C11.9449 14.0417 11.9053 14.2155 11.7707 14.2962L11.6806 14.3493C10.7464 14.8908 9.7036 15.2198 8.62691 15.3121L8.61181 15.3129C8.4619 15.3178 8.33615 15.2027 8.32169 15.0531L8.32054 15.038L8.24715 13.4252C8.23978 13.2632 8.36523 13.1268 8.52647 13.1102C9.24412 13.0363 9.93839 12.8119 10.5636 12.4519ZM15.0608 8.00046C15.2159 8.00835 15.3397 8.13664 15.3334 8.29354L15.3287 8.39264C15.274 9.41531 15.0056 10.4168 14.5393 11.3318C14.058 12.2765 13.3784 13.1047 12.5481 13.7602L12.5359 13.7692C12.4094 13.8586 12.2338 13.8269 12.1415 13.6999L11.1925 12.3937C11.0972 12.2625 11.1269 12.0796 11.2524 11.977C11.8024 11.5272 12.2541 10.9674 12.5776 10.3324C12.9012 9.69738 13.0886 9.00286 13.1292 8.29345C13.1382 8.13667 13.261 8.00834 13.416 8.00046L13.4311 8.00008H15.0457L15.0608 8.00046ZM8.00023 3.49887C10.5132 3.49889 12.5504 5.51414 12.5504 8.00008C12.5503 10.486 10.5132 12.5013 8.00023 12.5013C5.48727 12.5013 3.45012 10.486 3.45009 8.00008C3.45009 5.51413 5.48726 3.49887 8.00023 3.49887ZM2.57496 8.24691C2.73685 8.2396 2.87328 8.36503 2.88992 8.52623C2.96385 9.24389 3.18814 9.93814 3.54813 10.5634C3.62644 10.6994 3.594 10.8741 3.46863 10.9656L3.45621 10.9742L2.10529 11.8585L2.09248 11.8664C1.95839 11.9448 1.78456 11.9052 1.70384 11.7705L1.65081 11.6803C1.10928 10.7461 0.780248 9.70338 0.687955 8.62666L0.687095 8.61156C0.682234 8.46168 0.797332 8.33591 0.94692 8.32145L0.962019 8.3204L2.57496 8.24691ZM7.99593 5.65153C7.95503 5.69797 7.9237 5.73559 7.89043 5.77126C7.30845 6.39767 6.72548 7.02333 6.14428 7.65053C5.79264 8.02998 5.71325 8.47025 5.8878 8.94965C6.162 9.70281 7.0803 9.89838 7.64093 9.32902C7.75051 9.2179 7.85526 9.10231 7.96229 8.98864C7.96912 8.99255 7.97601 8.99648 7.98284 9.00059C7.7848 9.51193 7.47559 9.95156 7.07933 10.3484H8.89944C8.73057 10.135 8.55381 9.9263 8.39374 9.70562C8.19731 9.435 8.03457 9.08889 8.03587 8.98023C8.1429 9.09487 8.24663 9.20721 8.3517 9.31832C8.73681 9.72576 9.33211 9.77613 9.75928 9.43806C10.3142 8.99883 10.351 8.15933 9.84853 7.6317C9.35346 7.11174 8.86872 6.58195 8.37893 6.05689C8.25546 5.9246 8.13036 5.79362 7.99593 5.65153ZM3.46471 2.23099C3.59127 2.14153 3.76686 2.17323 3.85918 2.30027L4.80818 3.60647C4.90343 3.73762 4.87374 3.92058 4.74826 4.0232C4.19822 4.473 3.7466 5.03279 3.42305 5.66777C3.09949 6.30279 2.91206 6.99731 2.87148 7.70672C2.86248 7.86348 2.73964 7.99181 2.58461 7.9997L2.56951 8.00008H0.954947L0.939849 7.9997C0.784745 7.99182 0.660968 7.86352 0.667219 7.70662L0.671901 7.60753C0.726679 6.58485 0.995058 5.58342 1.46131 4.66832C1.94263 3.7237 2.6223 2.8955 3.45257 2.23997L3.46471 2.23099ZM13.9078 4.13348C14.0419 4.05512 14.2157 4.09465 14.2964 4.22932L14.3495 4.31943C14.891 5.25364 15.22 6.29641 15.3123 7.37312L15.3132 7.38831C15.318 7.53818 15.2029 7.66396 15.0533 7.67843L15.0382 7.67948L13.4254 7.75287C13.2635 7.76024 13.127 7.6348 13.1103 7.47355C13.0364 6.75592 12.8121 6.06172 12.4521 5.43652C12.3738 5.30042 12.4062 5.12571 12.5316 5.03421L12.5441 5.02561L13.895 4.14141L13.9078 4.13348ZM8.29379 0.666975L8.39288 0.671657C9.41553 0.726442 10.417 0.994821 11.3321 1.46107C12.2767 1.94238 13.1049 2.62206 13.7604 3.45233L13.7694 3.46447C13.8589 3.59103 13.8272 3.76662 13.7001 3.85893L12.3939 4.80793C12.2628 4.9032 12.0798 4.87348 11.9772 4.74802C11.5274 4.19798 10.9676 3.74635 10.3326 3.4228C9.69763 3.09926 9.00308 2.91182 8.29369 2.87124C8.13692 2.86224 8.00858 2.7394 8.00071 2.58437L8.00033 2.56927V0.954703L8.00071 0.939605C8.00857 0.784484 8.13688 0.660726 8.29379 0.666975ZM7.38846 0.686947C7.53837 0.68207 7.66423 0.79716 7.67867 0.946772L7.67972 0.961774L7.75311 2.57472C7.76044 2.73663 7.63493 2.87306 7.4737 2.88968C6.75605 2.9636 6.06188 3.18799 5.43667 3.54798C5.30059 3.62628 5.12596 3.59375 5.03446 3.46838L5.02586 3.45596L4.14165 2.10504L4.13372 2.09224C4.05535 1.95815 4.09486 1.78431 4.22956 1.7036L4.31968 1.65056C5.25389 1.10904 6.29664 0.780097 7.37336 0.687807L7.38846 0.686947Z" fill="#868686"/>
</g>
<defs>
<clipPath id="clip0_2803_342107">
<rect width="16" height="16" fill="white"/>
</clipPath>
</defs>
</svg>
