<svg width="16" height="16" viewBox="0 0 16 16" fill="none" xmlns="http://www.w3.org/2000/svg">
<path d="M10.739 7.8327C10.8485 7.68742 11.0254 7.60852 11.1966 7.65692C12.7393 8.09337 13.9472 9.43016 14.2207 11.139L14.649 13.8141C14.7763 14.6094 14.1872 15.3334 13.4128 15.3334H2.58651C1.81214 15.3334 1.22307 14.6094 1.35036 13.8141L1.77863 11.139C2.04687 9.46331 3.2135 8.14537 4.71332 7.68332C4.88594 7.63014 5.06691 7.70798 5.17884 7.85477C5.8881 8.78499 6.86803 9.36044 7.95052 9.36044C9.04157 9.36044 10.0285 8.77592 10.739 7.8327ZM7.95052 0.666748C9.85503 0.666748 11.3989 1.78671 11.3989 4.28368C11.3989 6.78066 9.85503 8.80487 7.95052 8.80487C6.04601 8.80487 4.5021 6.78066 4.5021 4.28368C4.50211 1.78671 6.04601 0.66675 7.95052 0.666748Z" fill="#868686"/>
</svg>
