<svg width="24" height="24" viewBox="0 0 24 24" fill="none" xmlns="http://www.w3.org/2000/svg">
<path d="M11.9992 23C12.1953 23 12.4766 22.9233 12.7322 22.7699C18.9291 19.2325 21.0004 17.8346 21.0004 13.9732V5.58583C21.0004 4.41806 20.5402 4.04301 19.5599 3.63387C18.0938 3.04572 14.3603 1.67339 12.8942 1.17048C12.6045 1.06819 12.2976 1 11.9992 1C11.7009 1 11.4026 1.08524 11.1127 1.17048C9.64665 1.63077 5.90468 3.05425 4.43858 3.63387C3.45833 4.02596 2.99805 4.41806 2.99805 5.58583V13.9732C2.99805 17.8346 5.09491 19.1984 11.2662 22.7699C11.5304 22.9233 11.8117 23 11.9992 23ZM11.9992 21.3208C11.8202 21.3208 11.6242 21.2356 11.3429 21.0566C6.24563 17.9198 4.48972 17.0078 4.48972 13.6493V5.87564C4.48972 5.38978 4.58348 5.20226 4.95853 5.05735C6.49283 4.44364 9.97055 3.23325 11.5048 2.62806C11.7009 2.55134 11.8714 2.50872 11.9992 2.50872C12.1271 2.50872 12.2976 2.55134 12.4936 2.62806C14.0364 3.23325 17.4801 4.5033 19.0485 5.05735C19.415 5.19373 19.5087 5.38978 19.5087 5.87564V13.6493C19.5087 17.0078 17.7443 17.9028 12.6556 21.0566C12.3743 21.2356 12.1782 21.3208 11.9992 21.3208Z" fill="#3772FF"/>
</svg>
