<svg width="24" height="24" viewBox="0 0 24 24" fill="none" xmlns="http://www.w3.org/2000/svg">
<path d="M4.34036 22.0898H19.651C21.8751 22.0898 23 20.9735 23 18.7839V5.21629C23 3.0266 21.8751 1.91028 19.651 1.91028H4.34036C2.12491 1.91028 1 3.01801 1 5.21629V18.7839C1 20.9822 2.12491 22.0898 4.34036 22.0898ZM4.22015 20.5699C3.121 20.5699 2.51991 19.986 2.51991 18.8526V8.60817C2.51991 7.4661 3.121 6.89077 4.22015 6.89077H19.7627C20.8532 6.89077 21.4715 7.4661 21.4715 8.60817V18.8526C21.4715 19.986 20.8532 20.5699 19.7627 20.5699H4.22015ZM9.81029 10.8408H10.4629C10.8321 10.8408 10.9352 10.7378 10.9352 10.3771V9.73308C10.9352 9.37242 10.8321 9.27797 10.4629 9.27797H9.81029C9.44966 9.27797 9.34662 9.37242 9.34662 9.73308V10.3771C9.34662 10.7378 9.44966 10.8408 9.81029 10.8408ZM13.5457 10.8408H14.1983C14.5589 10.8408 14.662 10.7378 14.662 10.3771V9.73308C14.662 9.37242 14.5589 9.27797 14.1983 9.27797H13.5457C13.1765 9.27797 13.0734 9.37242 13.0734 9.73308V10.3771C13.0734 10.7378 13.1765 10.8408 13.5457 10.8408ZM17.2725 10.8408H17.925C18.2857 10.8408 18.3974 10.7378 18.3974 10.3771V9.73308C18.3974 9.37242 18.2857 9.27797 17.925 9.27797H17.2725C16.9118 9.27797 16.8002 9.37242 16.8002 9.73308V10.3771C16.8002 10.7378 16.9118 10.8408 17.2725 10.8408ZM6.08353 14.5075H6.73615C7.0968 14.5075 7.20844 14.413 7.20844 14.0524V13.3998C7.20844 13.0477 7.0968 12.9446 6.73615 12.9446H6.08353C5.72288 12.9446 5.61125 13.0477 5.61125 13.3998V14.0524C5.61125 14.413 5.72288 14.5075 6.08353 14.5075ZM9.81029 14.5075H10.4629C10.8321 14.5075 10.9352 14.413 10.9352 14.0524V13.3998C10.9352 13.0477 10.8321 12.9446 10.4629 12.9446H9.81029C9.44966 12.9446 9.34662 13.0477 9.34662 13.3998V14.0524C9.34662 14.413 9.44966 14.5075 9.81029 14.5075ZM13.5457 14.5075H14.1983C14.5589 14.5075 14.662 14.413 14.662 14.0524V13.3998C14.662 13.0477 14.5589 12.9446 14.1983 12.9446H13.5457C13.1765 12.9446 13.0734 13.0477 13.0734 13.3998V14.0524C13.0734 14.413 13.1765 14.5075 13.5457 14.5075ZM17.2725 14.5075H17.925C18.2857 14.5075 18.3974 14.413 18.3974 14.0524V13.3998C18.3974 13.0477 18.2857 12.9446 17.925 12.9446H17.2725C16.9118 12.9446 16.8002 13.0477 16.8002 13.3998V14.0524C16.8002 14.413 16.9118 14.5075 17.2725 14.5075ZM6.08353 18.1828H6.73615C7.0968 18.1828 7.20844 18.0883 7.20844 17.7276V17.075C7.20844 16.7143 7.0968 16.6199 6.73615 16.6199H6.08353C5.72288 16.6199 5.61125 16.7143 5.61125 17.075V17.7276C5.61125 18.0883 5.72288 18.1828 6.08353 18.1828ZM9.81029 18.1828H10.4629C10.8321 18.1828 10.9352 18.0883 10.9352 17.7276V17.075C10.9352 16.7143 10.8321 16.6199 10.4629 16.6199H9.81029C9.44966 16.6199 9.34662 16.7143 9.34662 17.075V17.7276C9.34662 18.0883 9.44966 18.1828 9.81029 18.1828ZM13.5457 18.1828H14.1983C14.5589 18.1828 14.662 18.0883 14.662 17.7276V17.075C14.662 16.7143 14.5589 16.6199 14.1983 16.6199H13.5457C13.1765 16.6199 13.0734 16.7143 13.0734 17.075V17.7276C13.0734 18.0883 13.1765 18.1828 13.5457 18.1828Z" fill="#3772FF"/>
</svg>
