<svg width="24" height="24" viewBox="0 0 24 24" fill="none" xmlns="http://www.w3.org/2000/svg">
<path d="M1 15.762C1 16.2128 1.31206 16.5248 1.77147 16.5248H2.97635V20.2175C2.97635 20.7029 3.29708 21.0236 3.7825 21.0236H7.4665V22.2285C7.4665 22.6879 7.77855 23 8.2293 23C8.68872 23 9.00077 22.6879 9.00077 22.2285V21.0236H11.2285V22.2285C11.2285 22.6879 11.5493 23 12 23C12.4594 23 12.7714 22.6879 12.7714 22.2285V21.0236H14.9992V22.2285C14.9992 22.6879 15.3112 23 15.7706 23C16.2214 23 16.5335 22.6879 16.5335 22.2285V21.0236H20.2175C20.7029 21.0236 21.0236 20.7029 21.0236 20.2175V16.5162H22.2285C22.6879 16.5162 23 16.2041 23 15.7533C23 15.2939 22.6879 14.9818 22.2285 14.9818H21.0236V12.7454H22.2285C22.6879 12.7454 23 12.4334 23 11.9826C23 11.5233 22.6879 11.2112 22.2285 11.2112H21.0236V8.97477H22.2285C22.6879 8.97477 23 8.66271 23 8.21197C23 7.75255 22.6879 7.4405 22.2285 7.4405H21.0236V3.7825C21.0236 3.29708 20.7029 2.97636 20.2175 2.97636H16.5335V1.77147C16.5335 1.31206 16.2214 1 15.7706 1C15.3112 1 14.9992 1.31206 14.9992 1.77147V2.97636H12.7714V1.77147C12.7714 1.31206 12.4594 1 12 1C11.5493 1 11.2285 1.31206 11.2285 1.77147V2.97636H9.00077V1.77147C9.00077 1.31206 8.68872 1 8.2293 1C7.77855 1 7.4665 1.31206 7.4665 1.77147V2.97636H3.7825C3.29708 2.97636 2.97635 3.29708 2.97635 3.7825V7.44916H1.77147C1.31206 7.44916 1 7.76121 1 8.22063C1 8.67138 1.31206 8.98344 1.77147 8.98344H2.97635V11.2199H1.77147C1.31206 11.2199 1 11.5319 1 11.9913C1 12.442 1.31206 12.7541 1.77147 12.7541H2.97635V14.9905H1.77147C1.31206 14.9905 1 15.3026 1 15.762ZM4.51063 19.186V4.81402C4.51063 4.59731 4.59731 4.51064 4.81402 4.51064H19.186C19.4026 4.51064 19.4893 4.59731 19.4893 4.81402V19.186C19.4893 19.4026 19.4026 19.4893 19.186 19.4893H4.81402C4.59731 19.4893 4.51063 19.4026 4.51063 19.186ZM7.66587 17.1142H16.3514C16.8629 17.1142 17.1229 16.8629 17.1229 16.3341V7.66586C17.1229 7.1371 16.8629 6.88573 16.3514 6.88573H7.66587C7.14577 6.88573 6.89439 7.1371 6.89439 7.66586V16.3341C6.89439 16.8629 7.14577 17.1142 7.66587 17.1142ZM8.15996 15.5886V8.41134C8.15996 8.2553 8.26397 8.15995 8.42001 8.15995H15.5886C15.7446 8.15995 15.8487 8.2553 15.8487 8.41134V15.5886C15.8487 15.736 15.7446 15.84 15.5886 15.84H8.42001C8.26397 15.84 8.15996 15.736 8.15996 15.5886Z" fill="#3772FF"/>
</svg>
