<svg width="18" height="18" viewBox="0 0 18 18" fill="none" xmlns="http://www.w3.org/2000/svg">
<path d="M13.7236 8.15293C14.5358 8.15293 15.1943 8.82098 15.1943 9.64491V15.5376C15.1943 16.3615 14.5358 17.0295 13.7236 17.0295H8.66504L8.58936 17.0276C7.81229 16.9877 7.19434 16.3358 7.19434 15.5376V9.64491C7.19434 8.84669 7.81229 8.19481 8.58936 8.15491L8.66504 8.15293H13.7236ZM4.67554 2.34078C4.67102 2.38916 4.6687 2.43874 4.6687 2.48913V3.19896C4.6687 3.22771 4.66941 3.25623 4.67236 3.28367H4.50684C3.75494 3.28368 3.36865 3.68642 3.36865 4.42272V14.8634C3.36867 15.5996 3.75496 16.0022 4.50684 16.0022H5.97549C6.23443 16.0022 6.44434 16.2121 6.44434 16.471C6.44434 16.73 6.23443 16.9399 5.97549 16.9399H4.45459C3.1179 16.9399 2.44434 16.2512 2.44434 14.8792V4.40687C2.44434 3.03493 3.1179 2.3408 4.45459 2.34078H4.67554ZM8.66504 9.04802C8.34017 9.04802 8.07666 9.31534 8.07666 9.64491V15.5376C8.07666 15.8671 8.34017 16.1344 8.66504 16.1344H13.7236C14.0485 16.1344 14.312 15.8671 14.312 15.5376V9.64491C14.312 9.31534 14.0485 9.04802 13.7236 9.04802H8.66504ZM12.0972 13.9723C12.3007 13.9723 12.4626 14.1364 12.4626 14.3376C12.4626 14.5442 12.3007 14.7083 12.0972 14.7083H9.72168C9.51805 14.7083 9.3562 14.5442 9.3562 14.3376C9.35623 14.1364 9.51807 13.9723 9.72168 13.9723H12.0972ZM12.0972 12.2215C12.3007 12.2215 12.4626 12.3858 12.4626 12.587C12.4626 12.7936 12.3007 12.9577 12.0972 12.9578H9.72168C9.51808 12.9578 9.35624 12.7936 9.3562 12.587C9.3562 12.3858 9.51805 12.2215 9.72168 12.2215H12.0972ZM12.865 10.4655C13.0687 10.4655 13.2307 10.6297 13.2307 10.8362C13.2307 11.0375 13.0634 11.207 12.865 11.207H9.72168C9.5233 11.207 9.35625 11.0375 9.3562 10.8362C9.3562 10.6297 9.51805 10.4655 9.72168 10.4655H12.865ZM11.6448 2.34078C12.9815 2.34078 13.655 3.03491 13.655 4.40687V6.92954C13.655 7.18472 13.4482 7.39158 13.193 7.39158C12.9378 7.39158 12.731 7.18472 12.731 6.92954V4.42272C12.731 3.68641 12.3444 3.28367 11.5925 3.28367H11.427C11.4299 3.25623 11.4307 3.22772 11.4307 3.19896V2.48913C11.4307 2.43874 11.4284 2.38916 11.4238 2.34078H11.6448ZM8.05249 0.529541C8.79391 0.529541 9.40483 1.13335 9.44141 1.8749H10.115C10.4805 1.8749 10.705 2.10275 10.7051 2.48938V3.19921C10.7051 3.5859 10.4805 3.81369 10.115 3.81369H5.98486C5.61935 3.81369 5.39478 3.5859 5.39478 3.19921V2.48938C5.39482 2.10275 5.61939 1.8749 5.98486 1.8749H6.65845C6.69506 1.13338 7.30587 0.529586 8.05249 0.529541ZM8.05249 1.30823C7.71834 1.30827 7.45215 1.57851 7.45215 1.9175C7.45221 2.24056 7.71837 2.52128 8.05249 2.52133C8.3814 2.52133 8.64789 2.24058 8.64795 1.9175C8.64795 1.57849 8.38143 1.30823 8.05249 1.30823Z" fill="#777E90"/>
</svg>
