<svg width="24" height="24" viewBox="0 0 24 24" fill="none" xmlns="http://www.w3.org/2000/svg">
<path d="M6.76962 23H17.2312C18.7982 23 19.6825 22.0983 19.6825 20.4175V12.4508C19.6825 10.77 18.7982 9.86829 17.2312 9.86829H6.76962C5.19381 9.86829 4.31836 10.77 4.31836 12.4508V20.4175C4.31836 22.0983 5.19381 23 6.76962 23ZM6.80463 21.5381C6.23559 21.5381 5.87666 21.1528 5.87666 20.5138V12.3458C5.87666 11.7068 6.23559 11.3303 6.80463 11.3303H17.205C17.774 11.3303 18.1154 11.7068 18.1154 12.3458V20.5138C18.1154 21.1528 17.774 21.5381 17.205 21.5381H6.80463ZM6.32314 10.6037H7.86393V7.03184C7.86393 4.11659 9.71112 2.462 11.996 2.462C14.281 2.462 16.1457 4.11659 16.1457 7.03184V10.6037H17.6864V7.20693C17.6864 3.13609 15.0251 1 11.996 1C8.97574 1 6.32314 3.13609 6.32314 7.20693V10.6037Z" fill="#3772FF"/>
</svg>
