<svg width="124" height="32" viewBox="0 0 124 32" fill="none" xmlns="http://www.w3.org/2000/svg">
<path d="M12.1592 0.740967C13.9233 -0.250108 16.0767 -0.250108 17.8408 0.740967L27.041 5.90991C28.8687 6.93677 30 8.87015 30 10.9666V21.033C30 23.1293 28.8686 25.0627 27.041 26.0896L17.8408 31.2585C16.0766 32.2498 13.9234 32.2498 12.1592 31.2585L2.95898 26.0896C1.13138 25.0627 0 23.1293 0 21.033V10.9666C2.61785e-05 8.87015 1.13129 6.93677 2.95898 5.90991L12.1592 0.740967ZM16.3867 11.2048C15.5092 10.7165 14.3907 11.0131 13.8887 11.8669C13.3869 12.7208 13.6911 13.809 14.5684 14.2976L22.7812 18.8699V20.3162L14.6689 24.8757L6.26562 20.0339C5.39561 19.5327 4.27288 19.8133 3.75781 20.6599C3.24284 21.5065 3.53042 22.5991 4.40039 23.1003L13.1494 28.1404C14.0741 28.6731 15.2218 28.6789 16.1523 28.156L25.0703 23.1443C25.9196 22.6669 26.4424 21.7843 26.4424 20.8298V18.3533C26.4422 17.395 25.9152 16.5098 25.0605 16.0339L16.3867 11.2048ZM16.8525 3.83179C15.9278 3.29905 14.7792 3.29313 13.8486 3.81616L4.93164 8.82788C4.08226 9.30528 3.55859 10.1878 3.55859 11.1423V14.0769C3.55859 15.0586 4.11239 15.9618 5 16.4285L14.4736 21.4089C15.363 21.8765 16.4734 21.5536 16.9541 20.6882C17.4347 19.8226 17.1034 18.7418 16.2139 18.2742L7.2207 13.5457V11.656L15.332 7.09644L23.7363 11.9382C24.6063 12.4393 25.7291 12.1588 26.2441 11.3123C26.759 10.4657 26.4715 9.37299 25.6016 8.87183L16.8525 3.83179Z" fill="#23262F"/>
<path d="M51.872 12.4298C51.872 13.3258 51.656 14.1658 51.224 14.9498C50.808 15.7338 50.144 16.3658 49.232 16.8458C48.336 17.3258 47.2 17.5658 45.824 17.5658H43.016V23.9978H39.656V7.2458H45.824C47.12 7.2458 48.224 7.4698 49.136 7.9178C50.048 8.3658 50.728 8.9818 51.176 9.7658C51.64 10.5498 51.872 11.4378 51.872 12.4298ZM45.68 14.8538C46.608 14.8538 47.296 14.6458 47.744 14.2298C48.192 13.7978 48.416 13.1978 48.416 12.4298C48.416 10.7978 47.504 9.9818 45.68 9.9818H43.016V14.8538H45.68ZM71.2323 12.4298C71.2323 13.3258 71.0163 14.1658 70.5843 14.9498C70.1683 15.7338 69.5043 16.3658 68.5923 16.8458C67.6963 17.3258 66.5603 17.5658 65.1843 17.5658H62.3763V23.9978H59.0163V7.2458H65.1843C66.4803 7.2458 67.5843 7.4698 68.4963 7.9178C69.4083 8.3658 70.0883 8.9818 70.5363 9.7658C71.0003 10.5498 71.2323 11.4378 71.2323 12.4298ZM65.0403 14.8538C65.9683 14.8538 66.6563 14.6458 67.1043 14.2298C67.5523 13.7978 67.7763 13.1978 67.7763 12.4298C67.7763 10.7978 66.8643 9.9818 65.0403 9.9818H62.3763V14.8538H65.0403ZM79.0419 24.2138C77.7619 24.2138 76.6099 23.9338 75.5859 23.3738C74.5619 22.7978 73.7539 21.9898 73.1619 20.9498C72.5859 19.9098 72.2979 18.7098 72.2979 17.3498C72.2979 15.9898 72.5939 14.7898 73.1859 13.7498C73.7939 12.7098 74.6179 11.9098 75.6579 11.3498C76.6979 10.7738 77.8579 10.4858 79.1379 10.4858C80.4179 10.4858 81.5779 10.7738 82.6179 11.3498C83.6579 11.9098 84.4739 12.7098 85.0659 13.7498C85.6739 14.7898 85.9779 15.9898 85.9779 17.3498C85.9779 18.7098 85.6659 19.9098 85.0419 20.9498C84.4339 21.9898 83.6019 22.7978 82.5459 23.3738C81.5059 23.9338 80.3379 24.2138 79.0419 24.2138ZM79.0419 21.2858C79.6499 21.2858 80.2179 21.1418 80.7459 20.8538C81.2899 20.5498 81.7219 20.1018 82.0419 19.5098C82.3619 18.9178 82.5219 18.1978 82.5219 17.3498C82.5219 16.0858 82.1859 15.1178 81.5139 14.4458C80.8579 13.7578 80.0499 13.4138 79.0899 13.4138C78.1299 13.4138 77.3219 13.7578 76.6659 14.4458C76.0259 15.1178 75.7059 16.0858 75.7059 17.3498C75.7059 18.6138 76.0179 19.5898 76.6419 20.2778C77.2819 20.9498 78.0819 21.2858 79.0419 21.2858ZM95.8346 23.9978L91.3226 18.3338V23.9978H87.9626V6.2378H91.3226V16.3418L95.7866 10.7018H100.155L94.2986 17.3738L100.203 23.9978H95.8346ZM113.858 17.0618C113.858 17.5418 113.826 17.9738 113.762 18.3578H104.042C104.122 19.3178 104.458 20.0698 105.05 20.6138C105.642 21.1578 106.37 21.4298 107.234 21.4298C108.482 21.4298 109.37 20.8938 109.898 19.8218H113.522C113.138 21.1018 112.402 22.1578 111.314 22.9898C110.226 23.8058 108.89 24.2138 107.306 24.2138C106.026 24.2138 104.874 23.9338 103.85 23.3738C102.842 22.7978 102.05 21.9898 101.474 20.9498C100.914 19.9098 100.634 18.7098 100.634 17.3498C100.634 15.9738 100.914 14.7658 101.474 13.7258C102.034 12.6858 102.818 11.8858 103.826 11.3258C104.834 10.7658 105.994 10.4858 107.306 10.4858C108.57 10.4858 109.698 10.7578 110.69 11.3018C111.698 11.8458 112.474 12.6218 113.018 13.6298C113.578 14.6218 113.858 15.7658 113.858 17.0618ZM110.378 16.1018C110.362 15.2378 110.05 14.5498 109.442 14.0378C108.834 13.5098 108.09 13.2458 107.21 13.2458C106.378 13.2458 105.674 13.5018 105.098 14.0138C104.538 14.5098 104.194 15.2058 104.066 16.1018H110.378ZM119.191 12.7658C119.623 12.0618 120.183 11.5098 120.871 11.1098C121.575 10.7098 122.375 10.5098 123.271 10.5098V14.0378H122.383C121.327 14.0378 120.527 14.2858 119.983 14.7818C119.455 15.2778 119.191 16.1418 119.191 17.3738V23.9978H115.831V10.7018H119.191V12.7658Z" fill="#23262F"/>
</svg>
