<svg width="36" height="36" viewBox="0 0 36 36" fill="none" xmlns="http://www.w3.org/2000/svg">
<g filter="url(#filter0_d_1588_38268)">
<rect x="2" width="32" height="32" rx="8" fill="white" shape-rendering="crispEdges"/>
<path d="M22.1989 15.247C22.9208 15.247 23.5062 15.8409 23.5062 16.5733V21.8112C23.5062 22.5435 22.9208 23.1374 22.1989 23.1374H17.7024L17.6351 23.1356C16.9444 23.1001 16.3951 22.5207 16.3951 21.8112V16.5733C16.3951 15.8637 16.9444 15.2843 17.6351 15.2488L17.7024 15.247H22.1989ZM14.1561 10.0807C14.1521 10.1237 14.1501 10.1678 14.1501 10.2126V10.8435C14.1501 10.8691 14.1507 10.8944 14.1533 10.9188H14.0062C13.3378 10.9188 12.9945 11.2768 12.9945 11.9313V21.2119C12.9945 21.8664 13.3378 22.2242 14.0062 22.2242H15.3117C15.5418 22.2242 15.7284 22.4108 15.7284 22.6409C15.7284 22.8711 15.5418 23.0577 15.3117 23.0577H13.9597C12.7716 23.0577 12.1729 22.4455 12.1729 21.226V11.9172C12.1729 10.6977 12.7716 10.0807 13.9597 10.0807H14.1561ZM17.7024 16.0427C17.4136 16.0427 17.1794 16.2803 17.1794 16.5733V21.8112C17.1794 22.1041 17.4136 22.3417 17.7024 22.3417H22.1989C22.4877 22.3417 22.7219 22.1041 22.7219 21.8112V16.5733C22.7219 16.2803 22.4877 16.0427 22.1989 16.0427H17.7024ZM20.7531 20.4198C20.9341 20.4198 21.078 20.5657 21.078 20.7445C21.078 20.9281 20.9341 21.074 20.7531 21.0741H18.6416C18.4606 21.0741 18.3167 20.9282 18.3167 20.7445C18.3168 20.5657 18.4606 20.4198 18.6416 20.4198H20.7531ZM20.7531 18.8635C20.9341 18.8636 21.078 19.0096 21.078 19.1885C21.078 19.3721 20.9341 19.518 20.7531 19.518H18.6416C18.4606 19.518 18.3168 19.3721 18.3167 19.1885C18.3167 19.0096 18.4606 18.8635 18.6416 18.8635H20.7531ZM21.4357 17.3026C21.6167 17.3026 21.7607 17.4486 21.7607 17.6322C21.7607 17.8111 21.612 17.9618 21.4357 17.9618H18.6416C18.4653 17.9617 18.3168 17.8111 18.3167 17.6322C18.3167 17.4486 18.4606 17.3026 18.6416 17.3026H21.4357ZM20.351 10.0807C21.5392 10.0807 22.1379 10.6977 22.1379 11.9172V14.1596C22.1379 14.3864 21.954 14.5703 21.7272 14.5703C21.5004 14.5703 21.3165 14.3864 21.3165 14.1596V11.9313C21.3165 11.2768 20.9729 10.9188 20.3046 10.9188H20.1574C20.16 10.8944 20.1607 10.8691 20.1607 10.8435V10.2126C20.1607 10.1678 20.1587 10.1237 20.1546 10.0807H20.351ZM17.1579 8.4707C17.8169 8.4707 18.36 9.00743 18.3925 9.66658H18.9912C19.3161 9.66658 19.5157 9.86911 19.5157 10.2128V10.8437C19.5157 11.1875 19.3161 11.3899 18.9912 11.3899H15.32C14.9951 11.3899 14.7955 11.1875 14.7955 10.8437V10.2128C14.7955 9.86911 14.9951 9.66658 15.32 9.66658H15.9187C15.9513 9.00745 16.4942 8.47074 17.1579 8.4707ZM17.1579 9.16287C16.8609 9.16291 16.6242 9.40312 16.6242 9.70445C16.6243 9.9916 16.8609 10.2411 17.1579 10.2412C17.4502 10.2412 17.6871 9.99163 17.6872 9.70445C17.6872 9.4031 17.4503 9.16287 17.1579 9.16287Z" fill="#777E90"/>
</g>
<defs>
<filter id="filter0_d_1588_38268" x="0" y="0" width="36" height="36" filterUnits="userSpaceOnUse" color-interpolation-filters="sRGB">
<feFlood flood-opacity="0" result="BackgroundImageFix"/>
<feColorMatrix in="SourceAlpha" type="matrix" values="0 0 0 0 0 0 0 0 0 0 0 0 0 0 0 0 0 0 127 0" result="hardAlpha"/>
<feOffset dy="2"/>
<feGaussianBlur stdDeviation="1"/>
<feComposite in2="hardAlpha" operator="out"/>
<feColorMatrix type="matrix" values="0 0 0 0 0 0 0 0 0 0 0 0 0 0 0 0 0 0 0.1 0"/>
<feBlend mode="normal" in2="BackgroundImageFix" result="effect1_dropShadow_1588_38268"/>
<feBlend mode="normal" in="SourceGraphic" in2="effect1_dropShadow_1588_38268" result="shape"/>
</filter>
</defs>
</svg>
