<svg width="352" height="144" viewBox="0 0 352 144" fill="none" xmlns="http://www.w3.org/2000/svg">
<g filter="url(#filter0_dd_1689_97076)">
<path d="M173.39 26.4465C175.218 24.9592 177.839 24.9592 179.668 26.4465L185.907 31.5224C187.007 32.4169 188.436 32.7998 189.835 32.5749L197.777 31.2989C200.104 30.925 202.374 32.2356 203.214 34.4378L206.079 41.9535C206.584 43.2779 207.631 44.324 208.955 44.829L216.471 47.6948C218.673 48.5345 219.983 50.8045 219.61 53.1315L218.334 61.0732C218.109 62.4727 218.492 63.9016 219.386 65.0011L224.462 71.2409C225.949 73.0692 225.949 75.6903 224.462 77.5186L219.386 83.7584C218.492 84.8579 218.109 86.2868 218.334 87.6863L219.61 95.628C219.983 97.9551 218.673 100.225 216.471 101.065L208.955 103.931C207.631 104.436 206.584 105.482 206.079 106.806L203.214 114.322C202.374 116.524 200.104 117.835 197.777 117.461L189.835 116.185C188.436 115.96 187.007 116.343 185.907 117.237L179.668 122.313C177.839 123.8 175.218 123.8 173.39 122.313L167.15 117.237C166.051 116.343 164.622 115.96 163.222 116.185L155.28 117.461C152.953 117.835 150.683 116.524 149.844 114.322L146.978 106.806C146.473 105.482 145.427 104.436 144.102 103.931L136.587 101.065C134.385 100.225 133.074 97.955 133.448 95.628L134.724 87.6863C134.949 86.2868 134.566 84.8579 133.671 83.7584L128.595 77.5186C127.108 75.6903 127.108 73.0692 128.595 71.2409L133.671 65.0011C134.566 63.9016 134.949 62.4727 134.724 61.0732L133.448 53.1315C133.074 50.8045 134.385 48.5345 136.587 47.6948L144.102 44.829C145.427 44.324 146.473 43.2779 146.978 41.9535L149.844 34.4378C150.683 32.2356 152.953 30.925 155.28 31.2989L163.222 32.5749C164.622 32.7998 166.051 32.4169 167.15 31.5224L173.39 26.4465Z" fill="#19B02C"/>
<mask id="mask0_1689_97076" style="mask-type:alpha" maskUnits="userSpaceOnUse" x="127" y="24" width="99" height="99">
<path d="M173.39 25.1648C175.218 23.6775 177.839 23.6775 179.668 25.1648L185.907 30.2407C187.007 31.1351 188.436 31.518 189.835 31.2932L197.777 30.0172C200.104 29.6433 202.374 30.9538 203.214 33.156L206.079 40.6718C206.584 41.9962 207.631 43.0422 208.955 43.5472L216.471 46.413C218.673 47.2527 219.983 49.5227 219.61 51.8497L218.334 59.7915C218.109 61.1909 218.492 62.6199 219.386 63.7194L224.462 69.9591C225.949 71.7874 225.949 74.4086 224.462 76.2369L219.386 82.4766C218.492 83.5762 218.109 85.0051 218.334 86.4046L219.61 94.3463C219.983 96.6733 218.673 98.9433 216.471 99.783L208.955 102.649C207.631 103.154 206.584 104.2 206.079 105.524L203.214 113.04C202.374 115.242 200.104 116.553 197.777 116.179L189.835 114.903C188.436 114.678 187.007 115.061 185.907 115.955L179.668 121.031C177.839 122.519 175.218 122.519 173.39 121.031L167.15 115.955C166.051 115.061 164.622 114.678 163.222 114.903L155.28 116.179C152.953 116.553 150.683 115.242 149.844 113.04L146.978 105.524C146.473 104.2 145.427 103.154 144.102 102.649L136.587 99.783C134.385 98.9433 133.074 96.6733 133.448 94.3463L134.724 86.4046C134.949 85.0051 134.566 83.5762 133.671 82.4766L128.595 76.2369C127.108 74.4086 127.108 71.7874 128.595 69.9591L133.671 63.7194C134.566 62.6199 134.949 61.1909 134.724 59.7915L133.448 51.8497C133.074 49.5227 134.385 47.2527 136.587 46.413L144.102 43.5472C145.427 43.0422 146.473 41.9962 146.978 40.6718L149.844 33.156C150.683 30.9538 152.953 29.6433 155.28 30.0172L163.222 31.2932C164.622 31.518 166.051 31.1351 167.15 30.2407L173.39 25.1648Z" fill="#45FF7D"/>
<path d="M173.39 25.1648C175.218 23.6775 177.839 23.6775 179.668 25.1648L185.907 30.2407C187.007 31.1351 188.436 31.518 189.835 31.2932L197.777 30.0172C200.104 29.6433 202.374 30.9538 203.214 33.156L206.079 40.6718C206.584 41.9962 207.631 43.0422 208.955 43.5472L216.471 46.413C218.673 47.2527 219.983 49.5227 219.61 51.8497L218.334 59.7915C218.109 61.1909 218.492 62.6199 219.386 63.7194L224.462 69.9591C225.949 71.7874 225.949 74.4086 224.462 76.2369L219.386 82.4766C218.492 83.5762 218.109 85.0051 218.334 86.4046L219.61 94.3463C219.983 96.6733 218.673 98.9433 216.471 99.783L208.955 102.649C207.631 103.154 206.584 104.2 206.079 105.524L203.214 113.04C202.374 115.242 200.104 116.553 197.777 116.179L189.835 114.903C188.436 114.678 187.007 115.061 185.907 115.955L179.668 121.031C177.839 122.519 175.218 122.519 173.39 121.031L167.15 115.955C166.051 115.061 164.622 114.678 163.222 114.903L155.28 116.179C152.953 116.553 150.683 115.242 149.844 113.04L146.978 105.524C146.473 104.2 145.427 103.154 144.102 102.649L136.587 99.783C134.385 98.9433 133.074 96.6733 133.448 94.3463L134.724 86.4046C134.949 85.0051 134.566 83.5762 133.671 82.4766L128.595 76.2369C127.108 74.4086 127.108 71.7874 128.595 69.9591L133.671 63.7194C134.566 62.6199 134.949 61.1909 134.724 59.7915L133.448 51.8497C133.074 49.5227 134.385 47.2527 136.587 46.413L144.102 43.5472C145.427 43.0422 146.473 41.9962 146.978 40.6718L149.844 33.156C150.683 30.9538 152.953 29.6433 155.28 30.0172L163.222 31.2932C164.622 31.518 166.051 31.1351 167.15 30.2407L173.39 25.1648Z" fill="url(#paint0_linear_1689_97076)" fill-opacity="0.2"/>
<path d="M173.469 25.2607C175.251 23.8111 177.806 23.8111 179.589 25.2607L185.829 30.3369C186.956 31.2536 188.42 31.6463 189.854 31.416L197.797 30.1396C200.066 29.7752 202.279 31.0532 203.098 33.2002L205.963 40.7158C206.48 42.0732 207.553 43.1454 208.91 43.6631L216.427 46.5293C218.574 47.3481 219.851 49.5614 219.486 51.8301L218.211 59.7715C217.98 61.2059 218.373 62.6708 219.29 63.7979L224.365 70.0381C225.815 71.8207 225.815 74.3756 224.365 76.1582L219.29 82.3984C218.373 83.5254 217.981 84.9895 218.211 86.4238L219.486 94.3662C219.851 96.6349 218.574 98.8482 216.427 99.667L208.91 102.532C207.553 103.05 206.481 104.122 205.963 105.479L203.098 112.996C202.279 115.143 200.066 116.42 197.797 116.056L189.854 114.78C188.42 114.55 186.956 114.943 185.829 115.859L179.589 120.935C177.806 122.385 175.251 122.385 173.469 120.935L167.229 115.859C166.101 114.943 164.637 114.55 163.202 114.78L155.261 116.056C152.992 116.42 150.779 115.143 149.96 112.996L147.094 105.479C146.576 104.122 145.504 103.05 144.146 102.532L136.631 99.667C134.484 98.8483 133.206 96.6349 133.57 94.3662L134.847 86.4238C135.077 84.9895 134.684 83.5253 133.768 82.3984L128.691 76.1582C127.242 74.3758 127.242 71.8206 128.691 70.0381L133.768 63.7979C134.684 62.6708 135.077 61.2059 134.847 59.7715L133.57 51.8301C133.206 49.5613 134.484 47.3481 136.631 46.5293L144.146 43.6631C145.504 43.1455 146.576 42.0733 147.094 40.7158L149.96 33.2002C150.779 31.0531 152.992 29.7751 155.261 30.1396L163.202 31.416C164.637 31.6465 166.101 31.2537 167.229 30.3369L173.469 25.2607Z" stroke="url(#paint1_linear_1689_97076)" stroke-opacity="0.4" stroke-width="0.248703"/>
</mask>
<g mask="url(#mask0_1689_97076)">
<path d="M173.387 25.1668C175.217 23.6783 177.84 23.6783 179.67 25.1668L185.906 30.2396C187.006 31.1347 188.436 31.5179 189.837 31.2929L197.774 30.0177C200.103 29.6435 202.374 30.9551 203.215 33.159L206.079 40.6701C206.584 41.9956 207.631 43.0424 208.957 43.5479L216.468 46.4119C218.672 47.2523 219.983 49.524 219.609 51.8529L218.334 59.7897C218.109 61.1903 218.492 62.6204 219.387 63.7208L224.46 69.9567C225.948 71.7864 225.948 74.4096 224.46 76.2394L219.387 82.4753C218.492 83.5757 218.109 85.0057 218.334 86.4063L219.609 94.3431C219.983 96.672 218.672 98.9438 216.468 99.7841L208.957 102.648C207.631 103.154 206.584 104.2 206.079 105.526L203.215 113.037C202.374 115.241 200.103 116.553 197.774 116.178L189.837 114.903C188.436 114.678 187.006 115.061 185.906 115.956L179.67 121.029C177.84 122.518 175.217 122.518 173.387 121.029L167.151 115.956C166.051 115.061 164.621 114.678 163.22 114.903L155.284 116.178C152.955 116.553 150.683 115.241 149.843 113.037L146.979 105.526C146.473 104.2 145.426 103.154 144.101 102.648L136.59 99.7841C134.386 98.9438 133.074 96.672 133.448 94.3431L134.724 86.4063C134.949 85.0057 134.565 83.5757 133.67 82.4753L128.597 76.2394C127.109 74.4096 127.109 71.7864 128.597 69.9566L133.67 63.7208C134.565 62.6204 134.949 61.1903 134.724 59.7897L133.448 51.8529C133.074 49.524 134.386 47.2523 136.59 46.4119L144.101 43.5479C145.426 43.0424 146.473 41.9956 146.979 40.6701L149.843 33.159C150.683 30.9551 152.955 29.6435 155.284 30.0177L163.22 31.2929C164.621 31.5179 166.051 31.1347 167.151 30.2396L173.387 25.1668Z" fill="url(#paint2_linear_1689_97076)" stroke="url(#paint3_linear_1689_97076)" stroke-opacity="0.3" stroke-width="6.01743"/>
<path d="M158.125 71.8374L172.696 86.3418L195.182 63.9585" stroke="white" stroke-width="6.21757" stroke-linecap="round" stroke-linejoin="round"/>
<g style="mix-blend-mode:overlay" filter="url(#filter1_f_1689_97076)">
<circle cx="176.529" cy="34.7286" r="29.2823" fill="white" fill-opacity="0.6"/>
</g>
<g filter="url(#filter2_f_1689_97076)">
<circle cx="176.529" cy="34.7286" r="29.2823" fill="white" fill-opacity="0.6"/>
</g>
</g>
</g>
<g filter="url(#filter3_d_1689_97076)">
<path d="M130.685 29.4282C130.745 28.884 131.536 28.884 131.596 29.4282C132.065 33.697 135.435 37.0675 139.704 37.5365C140.248 37.5963 140.248 38.3876 139.704 38.4474C135.435 38.9165 132.065 42.287 131.596 46.5558C131.536 47.1 130.745 47.1 130.685 46.5558C130.216 42.287 126.845 38.9165 122.576 38.4474C122.032 38.3876 122.032 37.5963 122.576 37.5365C126.845 37.0675 130.216 33.697 130.685 29.4282Z" fill="white"/>
</g>
<g filter="url(#filter4_d_1689_97076)">
<path d="M210.151 105.049C210.21 104.505 211.002 104.505 211.061 105.049C211.53 109.318 214.901 112.688 219.17 113.157C219.714 113.217 219.714 114.008 219.17 114.068C214.901 114.537 211.53 117.908 211.061 122.176C211.002 122.721 210.21 122.721 210.151 122.176C209.682 117.908 206.311 114.537 202.042 114.068C201.498 114.008 201.498 113.217 202.042 113.157C206.311 112.688 209.682 109.318 210.151 105.049Z" fill="white"/>
</g>
<g filter="url(#filter5_d_1689_97076)">
<path d="M220.599 99.7469C220.634 99.4359 221.086 99.4359 221.12 99.7469C221.388 102.186 223.314 104.112 225.753 104.38C226.064 104.414 226.064 104.867 225.753 104.901C223.314 105.169 221.388 107.095 221.12 109.534C221.086 109.845 220.634 109.845 220.599 109.534C220.331 107.095 218.405 105.169 215.966 104.901C215.655 104.867 215.655 104.414 215.966 104.38C218.405 104.112 220.331 102.186 220.599 99.7469Z" fill="white"/>
</g>
<path d="M74.9675 104.331L75.2948 104.543L80.4789 105.411L81.9911 95.2682C82.0999 94.5387 81.8056 93.8075 81.2218 93.3566L80.7208 92.9697L75.4448 93.0371L74.0604 102.322C73.9427 103.112 74.2973 103.897 74.9675 104.331Z" fill="#3D96E9"/>
<path d="M64.8753 94.7152C64.2522 92.7359 65.3516 90.6262 67.3309 90.0031L70.6772 88.9497C73.0252 88.2105 75.5878 88.7105 77.4857 90.2781L81.3482 93.4683L69.5873 97.1708C67.608 97.7938 65.4984 96.6944 64.8753 94.7152Z" fill="#78B7F2"/>
<path d="M90.7575 101.591C91.5187 103.521 90.5708 105.703 88.6405 106.464L85.3767 107.751C83.0868 108.654 80.4953 108.336 78.4916 106.906L74.4136 103.996L85.884 99.4736C87.8144 98.7124 89.9964 99.6603 90.7575 101.591Z" fill="#78B7F2"/>
<path d="M287.074 56.526L286.817 56.8194L282.067 59.0703L277.842 49.7268C277.538 49.0547 277.621 48.2709 278.059 47.6777L278.436 47.1687L283.529 45.7921L287.398 54.3455C287.727 55.073 287.6 55.9255 287.074 56.526Z" fill="#3D96E9"/>
<path d="M294.156 44.5179C294.215 42.4437 292.581 40.7146 290.507 40.656L287 40.5568C284.54 40.4872 282.211 41.6682 280.814 43.6946L277.97 47.8188L290.295 48.1674C292.369 48.226 294.098 46.5921 294.156 44.5179Z" fill="#78B7F2"/>
<path d="M271.137 58.204C270.932 60.2689 272.44 62.1089 274.504 62.3138L277.996 62.6601C280.445 62.9031 282.851 61.8893 284.388 59.9665L287.516 56.0533L275.246 54.8361C273.181 54.6313 271.341 56.1391 271.137 58.204Z" fill="#78B7F2"/>
<rect x="87.0869" y="34" width="10.6726" height="13.1582" rx="3.05387" transform="rotate(36.2141 87.0869 34)" fill="#63E396"/>
<rect x="255.482" y="91.7979" width="10.6726" height="13.1582" rx="3.05387" transform="rotate(-25.3763 255.482 91.7979)" fill="#63E396"/>
<circle cx="51.8689" cy="59.0466" r="4.8689" fill="#FDD162"/>
<circle cx="299.132" cy="91.4968" r="4.8689" fill="#FDD162"/>
<defs>
<filter id="filter0_dd_1689_97076" x="113.225" y="17.4845" width="126.608" height="126.607" filterUnits="userSpaceOnUse" color-interpolation-filters="sRGB">
<feFlood flood-opacity="0" result="BackgroundImageFix"/>
<feColorMatrix in="SourceAlpha" type="matrix" values="0 0 0 0 0 0 0 0 0 0 0 0 0 0 0 0 0 0 127 0" result="hardAlpha"/>
<feOffset dy="7.69025"/>
<feGaussianBlur stdDeviation="6.40854"/>
<feComposite in2="hardAlpha" operator="out"/>
<feColorMatrix type="matrix" values="0 0 0 0 0.156863 0 0 0 0 0.760784 0 0 0 0 0.380392 0 0 0 0.3 0"/>
<feBlend mode="normal" in2="BackgroundImageFix" result="effect1_dropShadow_1689_97076"/>
<feColorMatrix in="SourceAlpha" type="matrix" values="0 0 0 0 0 0 0 0 0 0 0 0 0 0 0 0 0 0 127 0" result="hardAlpha"/>
<feOffset dy="1.28171"/>
<feGaussianBlur stdDeviation="1.28171"/>
<feComposite in2="hardAlpha" operator="out"/>
<feColorMatrix type="matrix" values="0 0 0 0 0.0509804 0 0 0 0 0.6 0 0 0 0 0.278431 0 0 0 0.4 0"/>
<feBlend mode="normal" in2="effect1_dropShadow_1689_97076" result="effect2_dropShadow_1689_97076"/>
<feBlend mode="normal" in="SourceGraphic" in2="effect2_dropShadow_1689_97076" result="shape"/>
</filter>
<filter id="filter1_f_1689_97076" x="123.013" y="-18.7873" width="107.032" height="107.032" filterUnits="userSpaceOnUse" color-interpolation-filters="sRGB">
<feFlood flood-opacity="0" result="BackgroundImageFix"/>
<feBlend mode="normal" in="SourceGraphic" in2="BackgroundImageFix" result="shape"/>
<feGaussianBlur stdDeviation="12.1168" result="effect1_foregroundBlur_1689_97076"/>
</filter>
<filter id="filter2_f_1689_97076" x="111.906" y="-29.8944" width="129.246" height="129.246" filterUnits="userSpaceOnUse" color-interpolation-filters="sRGB">
<feFlood flood-opacity="0" result="BackgroundImageFix"/>
<feBlend mode="normal" in="SourceGraphic" in2="BackgroundImageFix" result="shape"/>
<feGaussianBlur stdDeviation="17.6703" result="effect1_foregroundBlur_1689_97076"/>
</filter>
<filter id="filter3_d_1689_97076" x="104.224" y="13.6395" width="53.8317" height="53.8317" filterUnits="userSpaceOnUse" color-interpolation-filters="sRGB">
<feFlood flood-opacity="0" result="BackgroundImageFix"/>
<feColorMatrix in="SourceAlpha" type="matrix" values="0 0 0 0 0 0 0 0 0 0 0 0 0 0 0 0 0 0 127 0" result="hardAlpha"/>
<feOffset dy="2.56342"/>
<feGaussianBlur stdDeviation="8.97196"/>
<feComposite in2="hardAlpha" operator="out"/>
<feColorMatrix type="matrix" values="0 0 0 0 0.156863 0 0 0 0 0.756863 0 0 0 0 0.384314 0 0 0 0.4 0"/>
<feBlend mode="normal" in2="BackgroundImageFix" result="effect1_dropShadow_1689_97076"/>
<feBlend mode="normal" in="SourceGraphic" in2="effect1_dropShadow_1689_97076" result="shape"/>
</filter>
<filter id="filter4_d_1689_97076" x="183.69" y="89.2601" width="53.8317" height="53.8317" filterUnits="userSpaceOnUse" color-interpolation-filters="sRGB">
<feFlood flood-opacity="0" result="BackgroundImageFix"/>
<feColorMatrix in="SourceAlpha" type="matrix" values="0 0 0 0 0 0 0 0 0 0 0 0 0 0 0 0 0 0 127 0" result="hardAlpha"/>
<feOffset dy="2.56342"/>
<feGaussianBlur stdDeviation="8.97196"/>
<feComposite in2="hardAlpha" operator="out"/>
<feColorMatrix type="matrix" values="0 0 0 0 0.156863 0 0 0 0 0.756863 0 0 0 0 0.384314 0 0 0 0.4 0"/>
<feBlend mode="normal" in2="BackgroundImageFix" result="effect1_dropShadow_1689_97076"/>
<feBlend mode="normal" in="SourceGraphic" in2="effect1_dropShadow_1689_97076" result="shape"/>
</filter>
<filter id="filter5_d_1689_97076" x="197.789" y="84.1332" width="46.1415" height="46.1418" filterUnits="userSpaceOnUse" color-interpolation-filters="sRGB">
<feFlood flood-opacity="0" result="BackgroundImageFix"/>
<feColorMatrix in="SourceAlpha" type="matrix" values="0 0 0 0 0 0 0 0 0 0 0 0 0 0 0 0 0 0 127 0" result="hardAlpha"/>
<feOffset dy="2.56342"/>
<feGaussianBlur stdDeviation="8.97196"/>
<feComposite in2="hardAlpha" operator="out"/>
<feColorMatrix type="matrix" values="0 0 0 0 0.156863 0 0 0 0 0.756863 0 0 0 0 0.384314 0 0 0 0.4 0"/>
<feBlend mode="normal" in2="BackgroundImageFix" result="effect1_dropShadow_1689_97076"/>
<feBlend mode="normal" in="SourceGraphic" in2="effect1_dropShadow_1689_97076" result="shape"/>
</filter>
<linearGradient id="paint0_linear_1689_97076" x1="176.529" y1="22.6113" x2="176.529" y2="123.585" gradientUnits="userSpaceOnUse">
<stop stop-color="white"/>
<stop offset="1" stop-color="white" stop-opacity="0"/>
</linearGradient>
<linearGradient id="paint1_linear_1689_97076" x1="176.529" y1="22.6113" x2="176.529" y2="123.585" gradientUnits="userSpaceOnUse">
<stop stop-color="white"/>
<stop offset="1" stop-color="white" stop-opacity="0"/>
</linearGradient>
<linearGradient id="paint2_linear_1689_97076" x1="176.529" y1="22.6113" x2="176.529" y2="123.585" gradientUnits="userSpaceOnUse">
<stop stop-color="#23B55F"/>
<stop offset="1" stop-color="#42FF6B"/>
</linearGradient>
<linearGradient id="paint3_linear_1689_97076" x1="176.529" y1="22.6113" x2="176.529" y2="123.585" gradientUnits="userSpaceOnUse">
<stop stop-color="white"/>
<stop offset="1" stop-color="white" stop-opacity="0.5"/>
</linearGradient>
</defs>
</svg>
