<svg width="36" height="50" viewBox="0 0 36 50" fill="none" xmlns="http://www.w3.org/2000/svg">
<g clip-path="url(#clip0_1409_49221)">
<rect x="0.541237" y="0.541237" width="34.9175" height="48.9175" rx="3.2732" fill="white" stroke="white" stroke-width="1.08247"/>
<mask id="mask0_1409_49221" style="mask-type:alpha" maskUnits="userSpaceOnUse" x="12" y="27" width="20" height="21">
<path d="M22.2129 27.5667C22.9696 28.7633 25.0608 31.6177 27.6074 33.8059C30.8284 36.5735 31.8223 37.8511 31.8223 40.2727C31.8221 42.5947 29.9392 44.4768 27.6172 44.4768H26.6318C24.3099 44.4767 22.4279 42.5946 22.4277 40.2727C22.3742 41.8873 23.0722 45.5252 26.293 47.1643H18.1055C21.3262 45.5252 22.0243 41.8873 21.9707 40.2727C21.9705 42.5946 20.0886 44.4767 17.7666 44.4768H16.7812C14.4592 44.4768 12.5764 42.5947 12.5762 40.2727C12.5762 37.8511 13.57 36.5735 16.791 33.8059C19.3377 31.6177 21.4288 28.7633 22.1855 27.5667V27.5256C22.1899 27.5325 22.1948 27.5391 22.1992 27.5461C22.2036 27.5391 22.2086 27.5325 22.2129 27.5256V27.5667Z" fill="#EE5252"/>
</mask>
<g mask="url(#mask0_1409_49221)">
<path d="M22.2129 27.5667C22.9696 28.7633 25.0608 31.6177 27.6074 33.8059C30.8284 36.5735 31.8223 37.8511 31.8223 40.2727C31.8221 42.5947 29.9392 44.4768 27.6172 44.4768H26.6318C24.3099 44.4767 22.4279 42.5946 22.4277 40.2727C22.3742 41.8873 23.0722 45.5252 26.293 47.1643H18.1055C21.3262 45.5252 22.0243 41.8873 21.9707 40.2727C21.9705 42.5946 20.0886 44.4767 17.7666 44.4768H16.7812C14.4592 44.4768 12.5764 42.5947 12.5762 40.2727C12.5762 37.8511 13.57 36.5735 16.791 33.8059C19.3377 31.6177 21.4288 28.7633 22.1855 27.5667V27.5256C22.1899 27.5325 22.1948 27.5391 22.1992 27.5461C22.2036 27.5391 22.2086 27.5325 22.2129 27.5256V27.5667Z" fill="#1A181E"/>
<rect x="12.5762" y="27.5256" width="9.63331" height="19.6392" fill="url(#paint0_linear_1409_49221)" fill-opacity="0.6"/>
</g>
<mask id="mask1_1409_49221" style="mask-type:alpha" maskUnits="userSpaceOnUse" x="8" y="23" width="5" height="5">
<path d="M10.7041 23.4119C10.881 23.6915 11.3692 24.3579 11.9639 24.8689C12.7163 25.5154 12.9482 25.814 12.9482 26.3796C12.9482 26.9221 12.5083 27.3621 11.9658 27.3621H11.7363C11.1939 27.3621 10.7539 26.9221 10.7539 26.3796C10.7414 26.7568 10.9048 27.6071 11.6572 27.99H9.74414C10.4965 27.6071 10.66 26.7568 10.6475 26.3796C10.6475 26.9221 10.2075 27.3621 9.66504 27.3621H9.43457C8.89234 27.3618 8.45312 26.9219 8.45312 26.3796C8.45313 25.814 8.68511 25.5154 9.4375 24.8689C10.0321 24.3579 10.5204 23.6915 10.6973 23.4119V23.4021C10.6982 23.4037 10.6992 23.4054 10.7002 23.407C10.7013 23.4053 10.703 23.4038 10.7041 23.4021V23.4119Z" fill="#EE5252"/>
</mask>
<g mask="url(#mask1_1409_49221)">
<path d="M10.7041 23.4119C10.881 23.6915 11.3692 24.3579 11.9639 24.8689C12.7163 25.5154 12.9482 25.814 12.9482 26.3796C12.9482 26.9221 12.5083 27.3621 11.9658 27.3621H11.7363C11.1939 27.3621 10.7539 26.9221 10.7539 26.3796C10.7414 26.7568 10.9048 27.6071 11.6572 27.99H9.74414C10.4965 27.6071 10.66 26.7568 10.6475 26.3796C10.6475 26.9221 10.2075 27.3621 9.66504 27.3621H9.43457C8.89234 27.3618 8.45312 26.9219 8.45312 26.3796C8.45313 25.814 8.68511 25.5154 9.4375 24.8689C10.0321 24.3579 10.5204 23.6915 10.6973 23.4119V23.4021C10.6982 23.4037 10.6992 23.4054 10.7002 23.407C10.7013 23.4053 10.703 23.4038 10.7041 23.4021V23.4119Z" fill="#1A181E"/>
<rect x="8.45312" y="23.4021" width="2.2503" height="4.58763" fill="url(#paint1_linear_1409_49221)" fill-opacity="0.6"/>
</g>
<path d="M16.9402 16.7621C16.9402 17.4621 16.8065 18.1188 16.5391 18.7323C16.2717 19.3457 15.9059 19.8845 15.4419 20.3485C14.9858 20.8047 14.451 21.1665 13.8375 21.4339C13.224 21.7013 12.5673 21.835 11.8674 21.835H5.09574V18.4492H11.8674C12.1033 18.4492 12.3235 18.4059 12.528 18.3194C12.7325 18.2329 12.9094 18.1149 13.0589 17.9655C13.2162 17.8082 13.3381 17.6273 13.4246 17.4228C13.5111 17.2183 13.5544 16.9981 13.5544 16.7621C13.5544 16.5262 13.5111 16.306 13.4246 16.1015C13.3381 15.897 13.2162 15.7201 13.0589 15.5706C12.9094 15.4133 12.7325 15.2914 12.528 15.2049C12.3235 15.1184 12.1033 15.0751 11.8674 15.0751H7.25464V11.6893H11.8674C12.1033 11.6893 12.3235 11.6461 12.528 11.5596C12.7325 11.473 12.9094 11.3551 13.0589 11.2056C13.2162 11.0483 13.3381 10.8675 13.4246 10.663C13.5111 10.4506 13.5544 10.2265 13.5544 9.99053C13.5544 9.75458 13.5111 9.53437 13.4246 9.32988C13.3381 9.1254 13.2162 8.94844 13.0589 8.799C12.9094 8.64171 12.7325 8.5198 12.528 8.43329C12.3235 8.34678 12.1033 8.30352 11.8674 8.30352H5.09574V4.91771H11.8674C12.5673 4.91771 13.224 5.05141 13.8375 5.31882C14.451 5.58622 14.9858 5.95194 15.4419 6.41596C15.9059 6.87212 16.2717 7.40693 16.5391 8.02039C16.8065 8.63384 16.9402 9.29056 16.9402 9.99053C16.9402 10.6118 16.8261 11.2174 16.5981 11.8073C16.37 12.3893 16.0475 12.9123 15.6307 13.3763C16.0475 13.8404 16.37 14.3673 16.5981 14.9572C16.8261 15.5392 16.9402 16.1408 16.9402 16.7621Z" fill="#1A181E"/>
</g>
<defs>
<linearGradient id="paint0_linear_1409_49221" x1="17.3928" y1="27.5256" x2="17.3928" y2="47.1648" gradientUnits="userSpaceOnUse">
<stop stop-color="white" stop-opacity="0.5"/>
<stop offset="1" stop-color="white" stop-opacity="0"/>
</linearGradient>
<linearGradient id="paint1_linear_1409_49221" x1="9.57828" y1="23.4021" x2="9.57828" y2="27.9897" gradientUnits="userSpaceOnUse">
<stop stop-color="white" stop-opacity="0.5"/>
<stop offset="1" stop-color="white" stop-opacity="0"/>
</linearGradient>
<clipPath id="clip0_1409_49221">
<rect width="36" height="50" rx="3.81" fill="white"/>
</clipPath>
</defs>
</svg>
