<svg width="36" height="50" viewBox="0 0 36 50" fill="none" xmlns="http://www.w3.org/2000/svg">
<g clip-path="url(#clip0_1409_49446)">
<rect x="0.541237" y="0.541237" width="34.9175" height="48.9175" rx="3.2732" fill="white" stroke="white" stroke-width="1.08247"/>
<mask id="mask0_1409_49446" style="mask-type:alpha" maskUnits="userSpaceOnUse" x="12" y="27" width="20" height="21">
<path d="M22.2129 27.5667C22.9696 28.7633 25.0608 31.6177 27.6074 33.8059C30.8284 36.5735 31.8223 37.8511 31.8223 40.2727C31.8221 42.5947 29.9392 44.4768 27.6172 44.4768H26.6318C24.3099 44.4767 22.4279 42.5946 22.4277 40.2727C22.3742 41.8873 23.0722 45.5252 26.293 47.1643H18.1055C21.3262 45.5252 22.0243 41.8873 21.9707 40.2727C21.9705 42.5946 20.0886 44.4767 17.7666 44.4768H16.7812C14.4592 44.4768 12.5764 42.5947 12.5762 40.2727C12.5762 37.8511 13.57 36.5735 16.791 33.8059C19.3377 31.6177 21.4288 28.7633 22.1855 27.5667V27.5256C22.1899 27.5325 22.1948 27.5391 22.1992 27.5461C22.2036 27.5391 22.2086 27.5325 22.2129 27.5256V27.5667Z" fill="#EE5252"/>
</mask>
<g mask="url(#mask0_1409_49446)">
<path d="M22.2129 27.5667C22.9696 28.7633 25.0608 31.6177 27.6074 33.8059C30.8284 36.5735 31.8223 37.8511 31.8223 40.2727C31.8221 42.5947 29.9392 44.4768 27.6172 44.4768H26.6318C24.3099 44.4767 22.4279 42.5946 22.4277 40.2727C22.3742 41.8873 23.0722 45.5252 26.293 47.1643H18.1055C21.3262 45.5252 22.0243 41.8873 21.9707 40.2727C21.9705 42.5946 20.0886 44.4767 17.7666 44.4768H16.7812C14.4592 44.4768 12.5764 42.5947 12.5762 40.2727C12.5762 37.8511 13.57 36.5735 16.791 33.8059C19.3377 31.6177 21.4288 28.7633 22.1855 27.5667V27.5256C22.1899 27.5325 22.1948 27.5391 22.1992 27.5461C22.2036 27.5391 22.2086 27.5325 22.2129 27.5256V27.5667Z" fill="#1A181E"/>
<rect x="12.5762" y="27.5256" width="9.63331" height="19.6392" fill="url(#paint0_linear_1409_49446)" fill-opacity="0.6"/>
</g>
<mask id="mask1_1409_49446" style="mask-type:alpha" maskUnits="userSpaceOnUse" x="8" y="23" width="5" height="5">
<path d="M10.7041 23.4119C10.881 23.6915 11.3692 24.3579 11.9639 24.8689C12.7163 25.5154 12.9482 25.814 12.9482 26.3796C12.9482 26.9221 12.5083 27.3621 11.9658 27.3621H11.7363C11.1939 27.3621 10.7539 26.9221 10.7539 26.3796C10.7414 26.7568 10.9048 27.6071 11.6572 27.99H9.74414C10.4965 27.6071 10.66 26.7568 10.6475 26.3796C10.6475 26.9221 10.2075 27.3621 9.66504 27.3621H9.43457C8.89234 27.3618 8.45312 26.9219 8.45312 26.3796C8.45313 25.814 8.68511 25.5154 9.4375 24.8689C10.0321 24.3579 10.5204 23.6915 10.6973 23.4119V23.4021C10.6982 23.4037 10.6992 23.4054 10.7002 23.407C10.7013 23.4053 10.703 23.4038 10.7041 23.4021V23.4119Z" fill="#EE5252"/>
</mask>
<g mask="url(#mask1_1409_49446)">
<path d="M10.7041 23.4119C10.881 23.6915 11.3692 24.3579 11.9639 24.8689C12.7163 25.5154 12.9482 25.814 12.9482 26.3796C12.9482 26.9221 12.5083 27.3621 11.9658 27.3621H11.7363C11.1939 27.3621 10.7539 26.9221 10.7539 26.3796C10.7414 26.7568 10.9048 27.6071 11.6572 27.99H9.74414C10.4965 27.6071 10.66 26.7568 10.6475 26.3796C10.6475 26.9221 10.2075 27.3621 9.66504 27.3621H9.43457C8.89234 27.3618 8.45312 26.9219 8.45312 26.3796C8.45313 25.814 8.68511 25.5154 9.4375 24.8689C10.0321 24.3579 10.5204 23.6915 10.6973 23.4119V23.4021C10.6982 23.4037 10.6992 23.4054 10.7002 23.407C10.7013 23.4053 10.703 23.4038 10.7041 23.4021V23.4119Z" fill="#1A181E"/>
<rect x="8.45312" y="23.4021" width="2.2503" height="4.58763" fill="url(#paint1_linear_1409_49446)" fill-opacity="0.6"/>
</g>
<path d="M8.87086 21.835H5.48505V4.91771H8.87086V13.3763L15.1706 4.91771H19.0165L13.6723 12.055L19.0165 21.835H15.1706L11.4545 14.9926L8.87086 18.4492V21.835Z" fill="#1A181E"/>
</g>
<defs>
<linearGradient id="paint0_linear_1409_49446" x1="17.3928" y1="27.5256" x2="17.3928" y2="47.1648" gradientUnits="userSpaceOnUse">
<stop stop-color="white" stop-opacity="0.5"/>
<stop offset="1" stop-color="white" stop-opacity="0"/>
</linearGradient>
<linearGradient id="paint1_linear_1409_49446" x1="9.57828" y1="23.4021" x2="9.57828" y2="27.9897" gradientUnits="userSpaceOnUse">
<stop stop-color="white" stop-opacity="0.5"/>
<stop offset="1" stop-color="white" stop-opacity="0"/>
</linearGradient>
<clipPath id="clip0_1409_49446">
<rect width="36" height="50" rx="3.81" fill="white"/>
</clipPath>
</defs>
</svg>
