<svg width="36" height="50" viewBox="0 0 36 50" fill="none" xmlns="http://www.w3.org/2000/svg">
<g clip-path="url(#clip0_1409_48728)">
<rect x="0.541237" y="0.541237" width="34.9175" height="48.9175" rx="3.2732" fill="white" stroke="white" stroke-width="1.08247"/>
<mask id="mask0_1409_48728" style="mask-type:alpha" maskUnits="userSpaceOnUse" x="12" y="27" width="20" height="21">
<path d="M22.1992 27.5256C24.7662 27.5257 26.8467 29.6071 26.8467 32.1741C26.8465 33.6761 26.1338 35.011 25.0283 35.8606C25.6702 35.526 26.3999 35.3362 27.1738 35.3362C29.7408 35.3363 31.8213 37.4176 31.8213 39.9846C31.8211 42.5514 29.7407 44.6319 27.1738 44.6321C25.2563 44.6321 23.6098 43.4712 22.8994 41.8137C22.977 44.8065 25.0324 46.6231 26.0703 47.1643H18.3164C19.3513 46.6246 21.3964 44.817 21.4854 41.8401C20.7687 43.4831 19.1317 44.6321 17.2246 44.6321C14.6577 44.6321 12.5764 42.5515 12.5762 39.9846C12.5762 37.4175 14.6575 35.3362 17.2246 35.3362C17.9983 35.3362 18.7274 35.5262 19.3691 35.8606C18.2638 35.011 17.5509 33.6759 17.5508 32.1741C17.5508 29.607 19.6321 27.5256 22.1992 27.5256Z" fill="#D9D9D9"/>
</mask>
<g mask="url(#mask0_1409_48728)">
<path d="M22.1992 27.5256C24.7662 27.5257 26.8467 29.6071 26.8467 32.1741C26.8465 33.6761 26.1338 35.011 25.0283 35.8606C25.6702 35.526 26.3999 35.3362 27.1738 35.3362C29.7408 35.3363 31.8213 37.4176 31.8213 39.9846C31.8211 42.5514 29.7407 44.6319 27.1738 44.6321C25.2563 44.6321 23.6098 43.4712 22.8994 41.8137C22.977 44.8065 25.0324 46.6231 26.0703 47.1643H18.3164C19.3513 46.6246 21.3964 44.817 21.4854 41.8401C20.7687 43.4831 19.1317 44.6321 17.2246 44.6321C14.6577 44.6321 12.5764 42.5515 12.5762 39.9846C12.5762 37.4175 14.6575 35.3362 17.2246 35.3362C17.9983 35.3362 18.7274 35.5262 19.3691 35.8606C18.2638 35.011 17.5509 33.6759 17.5508 32.1741C17.5508 29.607 19.6321 27.5256 22.1992 27.5256Z" fill="#1A181E"/>
<rect x="12.5762" y="27.5256" width="9.63328" height="19.6391" fill="url(#paint0_linear_1409_48728)" fill-opacity="0.6"/>
</g>
<mask id="mask1_1409_48728" style="mask-type:alpha" maskUnits="userSpaceOnUse" x="8" y="23" width="5" height="5">
<path d="M10.7002 23.4019C11.2999 23.4019 11.7861 23.8881 11.7861 24.4878C11.7861 24.84 11.6174 25.1518 11.3574 25.3501C11.5082 25.2708 11.6801 25.2261 11.8623 25.2261C12.4619 25.2261 12.9482 25.7124 12.9482 26.312C12.9482 26.9117 12.462 27.3979 11.8623 27.3979C11.4154 27.3978 11.0317 27.1276 10.8652 26.7417C10.8845 27.4389 11.3632 27.8632 11.6055 27.9897H9.79492C10.0369 27.8634 10.5127 27.4401 10.5332 26.7446C10.3659 27.1288 9.9838 27.3979 9.53809 27.3979C8.93865 27.3977 8.45312 26.9115 8.45312 26.312C8.45318 25.7126 8.93868 25.2263 9.53809 25.2261C9.72059 25.2261 9.89298 25.2715 10.0439 25.3511C9.78357 25.1528 9.6153 24.8403 9.61523 24.4878C9.61523 23.8883 10.1007 23.4021 10.7002 23.4019Z" fill="#D9D9D9"/>
</mask>
<g mask="url(#mask1_1409_48728)">
<path d="M10.7002 23.4019C11.2999 23.4019 11.7861 23.8881 11.7861 24.4878C11.7861 24.84 11.6174 25.1518 11.3574 25.3501C11.5082 25.2708 11.6801 25.2261 11.8623 25.2261C12.4619 25.2261 12.9482 25.7124 12.9482 26.312C12.9482 26.9117 12.462 27.3979 11.8623 27.3979C11.4154 27.3978 11.0317 27.1276 10.8652 26.7417C10.8845 27.4389 11.3632 27.8632 11.6055 27.9897H9.79492C10.0369 27.8634 10.5127 27.4401 10.5332 26.7446C10.3659 27.1288 9.9838 27.3979 9.53809 27.3979C8.93865 27.3977 8.45312 26.9115 8.45312 26.312C8.45318 25.7126 8.93868 25.2263 9.53809 25.2261C9.72059 25.2261 9.89298 25.2715 10.0439 25.3511C9.78357 25.1528 9.6153 24.8403 9.61523 24.4878C9.61523 23.8883 10.1007 23.4021 10.7002 23.4019Z" fill="#1A181E"/>
<rect x="8.45312" y="23.4019" width="2.2503" height="4.58763" fill="url(#paint1_linear_1409_48728)" fill-opacity="0.6"/>
</g>
<path d="M17.9547 15.6296C17.9547 16.5419 17.7896 17.4031 17.4593 18.2132C17.1368 19.0233 16.6885 19.7351 16.1144 20.3485C15.5402 20.9541 14.856 21.4339 14.0616 21.7878C13.2752 22.1417 12.4218 22.3186 11.5016 22.3186C10.5815 22.3186 9.7124 22.1417 8.89445 21.7878C8.08438 21.4339 7.37654 20.9541 6.77095 20.3485C6.16536 19.7351 5.6856 19.0233 5.33169 18.2132C4.98563 17.4031 4.81261 16.5419 4.81261 15.6296C4.81261 14.5443 4.91878 13.4864 5.13113 12.4562C5.34348 11.418 5.65414 10.4388 6.06311 9.51864C6.47209 8.59059 6.9715 7.73725 7.56136 6.95863C8.15123 6.18002 8.81974 5.49971 9.5669 4.91771H14.1324C13.6605 5.22444 13.2004 5.56656 12.7522 5.94407C12.3039 6.32158 11.8752 6.72662 11.4663 7.15919C11.0651 7.59175 10.6916 8.04791 10.3455 8.52767C9.99946 9.00742 9.69273 9.50684 9.42533 10.0259C9.76352 9.79784 10.1292 9.60515 10.5225 9.44785C10.9236 9.28269 11.3326 9.20011 11.7494 9.20011C12.701 9.20011 13.5583 9.36134 14.3212 9.6838C15.0919 9.99839 15.7447 10.4428 16.2795 11.0169C16.8143 11.5832 17.2272 12.2595 17.5182 13.046C17.8092 13.8325 17.9547 14.6937 17.9547 15.6296ZM14.5689 15.6296C14.5689 15.1813 14.4942 14.7605 14.3448 14.3673C14.2032 13.9662 13.9987 13.6162 13.7313 13.3173C13.4639 13.0106 13.1415 12.7707 12.7639 12.5977C12.3864 12.4247 11.9657 12.3382 11.5016 12.3382C11.0376 12.3382 10.6169 12.4247 10.2393 12.5977C9.86183 12.7707 9.53937 13.0106 9.27197 13.3173C9.01243 13.6162 8.81187 13.9662 8.67031 14.3673C8.52874 14.7605 8.45796 15.1813 8.45796 15.6296C8.45796 16.0622 8.52874 16.479 8.67031 16.8801C8.81974 17.2734 9.02816 17.6233 9.29556 17.9301C9.56296 18.2368 9.88149 18.4806 10.2511 18.6615C10.6286 18.8424 11.0455 18.9328 11.5016 18.9328C11.9657 18.9328 12.3864 18.8463 12.7639 18.6733C13.1415 18.5003 13.4639 18.2643 13.7313 17.9655C13.9987 17.6587 14.2032 17.3048 14.3448 16.9037C14.4942 16.5026 14.5689 16.0779 14.5689 15.6296Z" fill="#1A181E"/>
</g>
<defs>
<linearGradient id="paint0_linear_1409_48728" x1="17.3928" y1="27.5256" x2="17.3928" y2="47.1648" gradientUnits="userSpaceOnUse">
<stop stop-color="white" stop-opacity="0.5"/>
<stop offset="1" stop-color="white" stop-opacity="0"/>
</linearGradient>
<linearGradient id="paint1_linear_1409_48728" x1="9.57828" y1="23.4019" x2="9.57828" y2="27.9895" gradientUnits="userSpaceOnUse">
<stop stop-color="white" stop-opacity="0.5"/>
<stop offset="1" stop-color="white" stop-opacity="0"/>
</linearGradient>
<clipPath id="clip0_1409_48728">
<rect width="36" height="50" rx="3.81" fill="white"/>
</clipPath>
</defs>
</svg>
