<svg width="36" height="50" viewBox="0 0 36 50" fill="none" xmlns="http://www.w3.org/2000/svg">
<g clip-path="url(#clip0_1409_48675)">
<rect x="0.541237" y="0.541237" width="34.9175" height="48.9175" rx="3.2732" fill="white" stroke="white" stroke-width="1.08247"/>
<mask id="mask0_1409_48675" style="mask-type:alpha" maskUnits="userSpaceOnUse" x="12" y="27" width="20" height="21">
<path d="M22.1992 27.5256C24.7662 27.5257 26.8467 29.6071 26.8467 32.1741C26.8465 33.6761 26.1338 35.011 25.0283 35.8606C25.6702 35.526 26.3999 35.3362 27.1738 35.3362C29.7408 35.3363 31.8213 37.4176 31.8213 39.9846C31.8211 42.5514 29.7407 44.6319 27.1738 44.6321C25.2563 44.6321 23.6098 43.4712 22.8994 41.8137C22.977 44.8065 25.0324 46.6231 26.0703 47.1643H18.3164C19.3513 46.6246 21.3964 44.817 21.4854 41.8401C20.7687 43.4831 19.1317 44.6321 17.2246 44.6321C14.6577 44.6321 12.5764 42.5515 12.5762 39.9846C12.5762 37.4175 14.6575 35.3362 17.2246 35.3362C17.9983 35.3362 18.7274 35.5262 19.3691 35.8606C18.2638 35.011 17.5509 33.6759 17.5508 32.1741C17.5508 29.607 19.6321 27.5256 22.1992 27.5256Z" fill="#D9D9D9"/>
</mask>
<g mask="url(#mask0_1409_48675)">
<path d="M22.1992 27.5256C24.7662 27.5257 26.8467 29.6071 26.8467 32.1741C26.8465 33.6761 26.1338 35.011 25.0283 35.8606C25.6702 35.526 26.3999 35.3362 27.1738 35.3362C29.7408 35.3363 31.8213 37.4176 31.8213 39.9846C31.8211 42.5514 29.7407 44.6319 27.1738 44.6321C25.2563 44.6321 23.6098 43.4712 22.8994 41.8137C22.977 44.8065 25.0324 46.6231 26.0703 47.1643H18.3164C19.3513 46.6246 21.3964 44.817 21.4854 41.8401C20.7687 43.4831 19.1317 44.6321 17.2246 44.6321C14.6577 44.6321 12.5764 42.5515 12.5762 39.9846C12.5762 37.4175 14.6575 35.3362 17.2246 35.3362C17.9983 35.3362 18.7274 35.5262 19.3691 35.8606C18.2638 35.011 17.5509 33.6759 17.5508 32.1741C17.5508 29.607 19.6321 27.5256 22.1992 27.5256Z" fill="#1A181E"/>
<rect x="12.5762" y="27.5256" width="9.63328" height="19.6391" fill="url(#paint0_linear_1409_48675)" fill-opacity="0.6"/>
</g>
<mask id="mask1_1409_48675" style="mask-type:alpha" maskUnits="userSpaceOnUse" x="8" y="23" width="5" height="5">
<path d="M10.7002 23.4019C11.2999 23.4019 11.7861 23.8881 11.7861 24.4878C11.7861 24.84 11.6174 25.1518 11.3574 25.3501C11.5082 25.2708 11.6801 25.2261 11.8623 25.2261C12.4619 25.2261 12.9482 25.7124 12.9482 26.312C12.9482 26.9117 12.462 27.3979 11.8623 27.3979C11.4154 27.3978 11.0317 27.1276 10.8652 26.7417C10.8845 27.4389 11.3632 27.8632 11.6055 27.9897H9.79492C10.0369 27.8634 10.5127 27.4401 10.5332 26.7446C10.3659 27.1288 9.9838 27.3979 9.53809 27.3979C8.93865 27.3977 8.45312 26.9115 8.45312 26.312C8.45318 25.7126 8.93868 25.2263 9.53809 25.2261C9.72059 25.2261 9.89298 25.2715 10.0439 25.3511C9.78357 25.1528 9.6153 24.8403 9.61523 24.4878C9.61523 23.8883 10.1007 23.4021 10.7002 23.4019Z" fill="#D9D9D9"/>
</mask>
<g mask="url(#mask1_1409_48675)">
<path d="M10.7002 23.4019C11.2999 23.4019 11.7861 23.8881 11.7861 24.4878C11.7861 24.84 11.6174 25.1518 11.3574 25.3501C11.5082 25.2708 11.6801 25.2261 11.8623 25.2261C12.4619 25.2261 12.9482 25.7124 12.9482 26.312C12.9482 26.9117 12.462 27.3979 11.8623 27.3979C11.4154 27.3978 11.0317 27.1276 10.8652 26.7417C10.8845 27.4389 11.3632 27.8632 11.6055 27.9897H9.79492C10.0369 27.8634 10.5127 27.4401 10.5332 26.7446C10.3659 27.1288 9.9838 27.3979 9.53809 27.3979C8.93865 27.3977 8.45312 26.9115 8.45312 26.312C8.45318 25.7126 8.93868 25.2263 9.53809 25.2261C9.72059 25.2261 9.89298 25.2715 10.0439 25.3511C9.78357 25.1528 9.6153 24.8403 9.61523 24.4878C9.61523 23.8883 10.1007 23.4021 10.7002 23.4019Z" fill="#1A181E"/>
<rect x="8.45312" y="23.4019" width="2.2503" height="4.58763" fill="url(#paint1_linear_1409_48675)" fill-opacity="0.6"/>
</g>
<path d="M17.2233 16.5144C17.2233 17.3402 17.0778 18.0834 16.7868 18.7441C16.4958 19.4047 16.1065 19.9631 15.6189 20.4193C15.1313 20.8755 14.565 21.2254 13.9201 21.4692C13.283 21.7131 12.6145 21.835 11.9145 21.835H5.09574V18.4492H11.9145C12.1426 18.4492 12.3707 18.4138 12.5988 18.343C12.8347 18.2722 13.0432 18.1582 13.224 18.0009C13.4128 17.8436 13.5622 17.643 13.6723 17.3992C13.7903 17.1554 13.8493 16.8605 13.8493 16.5144C13.8493 16.1998 13.7903 15.9245 13.6723 15.6886C13.5622 15.4448 13.4128 15.2442 13.224 15.0869C13.0432 14.9218 12.8347 14.7999 12.5988 14.7212C12.3707 14.6347 12.1426 14.5915 11.9145 14.5915H5.09574L6.08671 4.91771H16.5273V8.30352H9.1304L8.82367 11.2056H11.9145C12.6145 11.2056 13.283 11.3275 13.9201 11.5714C14.565 11.8152 15.1313 12.1691 15.6189 12.6331C16.1065 13.0893 16.4958 13.6477 16.7868 14.3083C17.0778 14.9611 17.2233 15.6965 17.2233 16.5144Z" fill="#1A181E"/>
</g>
<defs>
<linearGradient id="paint0_linear_1409_48675" x1="17.3928" y1="27.5256" x2="17.3928" y2="47.1648" gradientUnits="userSpaceOnUse">
<stop stop-color="white" stop-opacity="0.5"/>
<stop offset="1" stop-color="white" stop-opacity="0"/>
</linearGradient>
<linearGradient id="paint1_linear_1409_48675" x1="9.57828" y1="23.4019" x2="9.57828" y2="27.9895" gradientUnits="userSpaceOnUse">
<stop stop-color="white" stop-opacity="0.5"/>
<stop offset="1" stop-color="white" stop-opacity="0"/>
</linearGradient>
<clipPath id="clip0_1409_48675">
<rect width="36" height="50" rx="3.81" fill="white"/>
</clipPath>
</defs>
</svg>
