<svg width="36" height="50" viewBox="0 0 36 50" fill="none" xmlns="http://www.w3.org/2000/svg">
<g clip-path="url(#clip0_1409_49553)">
<rect x="0.541237" y="0.541237" width="34.9175" height="48.9175" rx="3.2732" fill="white" stroke="white" stroke-width="1.08247"/>
<mask id="mask0_1409_49553" style="mask-type:alpha" maskUnits="userSpaceOnUse" x="11" y="27" width="22" height="21">
<path d="M27.0039 27.5256C29.8117 27.5256 32.0879 29.8018 32.0879 32.6096V32.9856C32.0879 34.4264 31.5385 37.0468 28.1396 40.0999C25.4209 42.542 22.6944 45.8724 21.9199 47.1643C21.1455 45.8725 18.4181 42.5421 15.6992 40.0999C12.3007 37.047 11.752 34.4263 11.752 32.9856V32.6096C11.752 29.8018 14.0281 27.5256 16.8359 27.5256C19.6437 27.5257 21.9199 29.8018 21.9199 32.6096C21.9199 29.8018 24.196 27.5256 27.0039 27.5256Z" fill="#FF0100"/>
</mask>
<g mask="url(#mask0_1409_49553)">
<path d="M27.0039 27.5256C29.8117 27.5256 32.0879 29.8018 32.0879 32.6096V32.9856C32.0879 34.4264 31.5385 37.0468 28.1396 40.0999C25.4209 42.542 22.6944 45.8724 21.9199 47.1643C21.1455 45.8725 18.4181 42.5421 15.6992 40.0999C12.3007 37.047 11.752 34.4263 11.752 32.9856V32.6096C11.752 29.8018 14.0281 27.5256 16.8359 27.5256C19.6437 27.5257 21.9199 29.8018 21.9199 32.6096C21.9199 29.8018 24.196 27.5256 27.0039 27.5256Z" fill="#FF0100"/>
<rect x="10.3145" y="27.5256" width="11.609" height="19.6392" fill="url(#paint0_linear_1409_49553)"/>
</g>
<mask id="mask1_1409_49553" style="mask-type:alpha" maskUnits="userSpaceOnUse" x="9" y="23" width="5" height="5">
<path d="M12.5752 23.4021C13.2309 23.4024 13.7626 23.9339 13.7627 24.5896V24.6775C13.7627 25.014 13.6338 25.6264 12.8398 26.3396C12.2048 26.9101 11.5675 27.6883 11.3867 27.99C11.2059 27.6883 10.5688 26.9101 9.93359 26.3396C9.13979 25.6265 9.01172 25.014 9.01172 24.6775V24.5896C9.01177 23.9338 9.54345 23.4022 10.1992 23.4021C10.8551 23.4021 11.3867 23.9337 11.3867 24.5896C11.3868 23.9337 11.9193 23.4021 12.5752 23.4021Z" fill="#FF0100"/>
</mask>
<g mask="url(#mask1_1409_49553)">
<path d="M12.5752 23.4021C13.2309 23.4024 13.7626 23.9339 13.7627 24.5896V24.6775C13.7627 25.014 13.6338 25.6264 12.8398 26.3396C12.2048 26.9101 11.5675 27.6883 11.3867 27.99C11.2059 27.6883 10.5688 26.9101 9.93359 26.3396C9.13979 25.6265 9.01172 25.014 9.01172 24.6775V24.5896C9.01177 23.9338 9.54345 23.4022 10.1992 23.4021C10.8551 23.4021 11.3867 23.9337 11.3867 24.5896C11.3868 23.9337 11.9193 23.4021 12.5752 23.4021Z" fill="#FF0100"/>
</g>
<path d="M8.76754 21.835H5.38173V8.30352H3.69472V4.91771H8.76754V21.835ZM20.3185 13.3763C20.3185 11.4966 20.0039 10.1006 19.3747 9.18831C18.7534 8.27599 17.8843 7.81983 16.7675 7.81983C15.6585 7.81983 14.7973 8.27206 14.1839 9.17652C13.5704 10.081 13.2637 11.4809 13.2637 13.3763C13.2637 15.256 13.5704 16.652 14.1839 17.5644C14.7973 18.4767 15.6585 18.9328 16.7675 18.9328C17.3259 18.9328 17.8253 18.8227 18.2657 18.6025C18.7062 18.3744 19.0758 18.0323 19.3747 17.5762C19.6814 17.12 19.9134 16.5459 20.0707 15.8538C20.2359 15.1538 20.3185 14.328 20.3185 13.3763ZM23.5391 13.3763C23.5391 14.9808 23.3621 16.3374 23.0082 17.4464C22.6543 18.5553 22.1706 19.4519 21.5572 20.1362C20.9437 20.8204 20.2241 21.3159 19.3983 21.6226C18.5803 21.9215 17.7034 22.0709 16.7675 22.0709C15.8316 22.0709 14.9507 21.9175 14.1249 21.6108C13.307 21.2962 12.5913 20.7968 11.9778 20.1126C11.3722 19.4205 10.8925 18.5239 10.5385 17.4228C10.1846 16.3139 10.0077 14.965 10.0077 13.3763C10.0077 11.7719 10.1846 10.4192 10.5385 9.31808C10.8925 8.20914 11.3722 7.31255 11.9778 6.62831C12.5913 5.94407 13.307 5.44859 14.1249 5.14186C14.9507 4.83513 15.8316 4.68177 16.7675 4.68177C17.7034 4.68177 18.5803 4.83906 19.3983 5.15366C20.2241 5.46038 20.9437 5.9598 21.5572 6.65191C22.1706 7.34401 22.6543 8.2406 23.0082 9.34168C23.3621 10.4428 23.5391 11.7876 23.5391 13.3763Z" fill="#FF0100"/>
</g>
<defs>
<linearGradient id="paint0_linear_1409_49553" x1="16.119" y1="27.5256" x2="16.119" y2="47.1648" gradientUnits="userSpaceOnUse">
<stop stop-color="white" stop-opacity="0.5"/>
<stop offset="1" stop-color="white" stop-opacity="0"/>
</linearGradient>
<clipPath id="clip0_1409_49553">
<rect width="36" height="50" rx="3.81" fill="white"/>
</clipPath>
</defs>
</svg>
