<svg width="36" height="50" viewBox="0 0 36 50" fill="none" xmlns="http://www.w3.org/2000/svg">
<g clip-path="url(#clip0_1409_45718)">
<rect x="0.541237" y="0.541237" width="34.9175" height="48.9175" rx="3.2732" fill="white" stroke="white" stroke-width="1.08247"/>
<mask id="mask0_1409_45718" style="mask-type:alpha" maskUnits="userSpaceOnUse" x="11" y="27" width="22" height="21">
<path d="M27.0039 27.5256C29.8117 27.5256 32.0879 29.8018 32.0879 32.6096V32.9856C32.0879 34.4264 31.5385 37.0468 28.1396 40.0999C25.4209 42.542 22.6944 45.8724 21.9199 47.1643C21.1455 45.8725 18.4181 42.5421 15.6992 40.0999C12.3007 37.047 11.752 34.4263 11.752 32.9856V32.6096C11.752 29.8018 14.0281 27.5256 16.8359 27.5256C19.6437 27.5257 21.9199 29.8018 21.9199 32.6096C21.9199 29.8018 24.196 27.5256 27.0039 27.5256Z" fill="#FF0100"/>
</mask>
<g mask="url(#mask0_1409_45718)">
<path d="M27.0039 27.5256C29.8117 27.5256 32.0879 29.8018 32.0879 32.6096V32.9856C32.0879 34.4264 31.5385 37.0468 28.1396 40.0999C25.4209 42.542 22.6944 45.8724 21.9199 47.1643C21.1455 45.8725 18.4181 42.5421 15.6992 40.0999C12.3007 37.047 11.752 34.4263 11.752 32.9856V32.6096C11.752 29.8018 14.0281 27.5256 16.8359 27.5256C19.6437 27.5257 21.9199 29.8018 21.9199 32.6096C21.9199 29.8018 24.196 27.5256 27.0039 27.5256Z" fill="#FF0100"/>
<rect x="10.3145" y="27.5256" width="11.609" height="19.6392" fill="url(#paint0_linear_1409_45718)"/>
</g>
<mask id="mask1_1409_45718" style="mask-type:alpha" maskUnits="userSpaceOnUse" x="8" y="23" width="5" height="5">
<path d="M11.5752 23.4021C12.2309 23.4024 12.7626 23.9339 12.7627 24.5896V24.6775C12.7627 25.014 12.6338 25.6264 11.8398 26.3396C11.2048 26.9101 10.5675 27.6883 10.3867 27.99C10.2059 27.6883 9.56876 26.9101 8.93359 26.3396C8.13979 25.6265 8.01172 25.014 8.01172 24.6775V24.5896C8.01177 23.9338 8.54345 23.4022 9.19922 23.4021C9.8551 23.4021 10.3867 23.9337 10.3867 24.5896C10.3868 23.9337 10.9193 23.4021 11.5752 23.4021Z" fill="#FF0100"/>
</mask>
<g mask="url(#mask1_1409_45718)">
<path d="M11.5752 23.4021C12.2309 23.4024 12.7626 23.9339 12.7627 24.5896V24.6775C12.7627 25.014 12.6338 25.6264 11.8398 26.3396C11.2048 26.9101 10.5675 27.6883 10.3867 27.99C10.2059 27.6883 9.56876 26.9101 8.93359 26.3396C8.13979 25.6265 8.01172 25.014 8.01172 24.6775V24.5896C8.01177 23.9338 8.54345 23.4022 9.19922 23.4021C9.8551 23.4021 10.3867 23.9337 10.3867 24.5896C10.3868 23.9337 10.9193 23.4021 11.5752 23.4021Z" fill="#FF0100"/>
</g>
<path d="M16.5408 9.99053C16.5408 10.6905 16.4071 11.3511 16.1397 11.9725C15.8723 12.5859 15.5066 13.1247 15.0425 13.5887C14.5864 14.0448 14.0516 14.4066 13.4381 14.674C12.8247 14.9414 12.1679 15.0751 11.468 15.0751H9.76918C9.53323 15.0751 9.31302 15.1184 9.10853 15.2049C8.90404 15.2914 8.72315 15.4133 8.56586 15.5706C8.41643 15.7201 8.29845 15.897 8.21194 16.1015C8.12543 16.306 8.08217 16.5262 8.08217 16.7621V18.4492H16.0807V21.835H4.69636V16.7621C4.69636 16.0622 4.83006 15.4055 5.09747 14.792C5.36487 14.1707 5.72665 13.6319 6.18281 13.1758C6.64684 12.7118 7.18558 12.35 7.79904 12.0904C8.41249 11.823 9.06921 11.6893 9.76918 11.6893H11.468C11.7039 11.6893 11.9241 11.6461 12.1286 11.5596C12.3331 11.473 12.5101 11.3551 12.6595 11.2056C12.8168 11.0483 12.9387 10.8675 13.0252 10.663C13.1117 10.4506 13.155 10.2265 13.155 9.99053C13.155 9.75458 13.1117 9.53437 13.0252 9.32988C12.9387 9.1254 12.8168 8.94844 12.6595 8.799C12.5101 8.64171 12.3331 8.5198 12.1286 8.43329C11.9241 8.34678 11.7039 8.30352 11.468 8.30352H5.42779V4.91771H11.468C12.1679 4.91771 12.8247 5.05141 13.4381 5.31882C14.0516 5.58622 14.5864 5.95194 15.0425 6.41596C15.5066 6.87212 15.8723 7.40693 16.1397 8.02039C16.4071 8.63384 16.5408 9.29056 16.5408 9.99053Z" fill="#FF0100"/>
</g>
<defs>
<linearGradient id="paint0_linear_1409_45718" x1="16.119" y1="27.5256" x2="16.119" y2="47.1648" gradientUnits="userSpaceOnUse">
<stop stop-color="white" stop-opacity="0.5"/>
<stop offset="1" stop-color="white" stop-opacity="0"/>
</linearGradient>
<clipPath id="clip0_1409_45718">
<rect width="36" height="50" rx="3.81" fill="white"/>
</clipPath>
</defs>
</svg>
