<svg width="36" height="50" viewBox="0 0 36 50" fill="none" xmlns="http://www.w3.org/2000/svg">
<g clip-path="url(#clip0_1409_45868)">
<rect x="0.541237" y="0.541237" width="34.9175" height="48.9175" rx="3.2732" fill="white" stroke="white" stroke-width="1.08247"/>
<mask id="mask0_1409_45868" style="mask-type:alpha" maskUnits="userSpaceOnUse" x="11" y="27" width="22" height="21">
<path d="M27.0039 27.5256C29.8117 27.5256 32.0879 29.8018 32.0879 32.6096V32.9856C32.0879 34.4264 31.5385 37.0468 28.1396 40.0999C25.4209 42.542 22.6944 45.8724 21.9199 47.1643C21.1455 45.8725 18.4181 42.5421 15.6992 40.0999C12.3007 37.047 11.752 34.4263 11.752 32.9856V32.6096C11.752 29.8018 14.0281 27.5256 16.8359 27.5256C19.6437 27.5257 21.9199 29.8018 21.9199 32.6096C21.9199 29.8018 24.196 27.5256 27.0039 27.5256Z" fill="#FF0100"/>
</mask>
<g mask="url(#mask0_1409_45868)">
<path d="M27.0039 27.5256C29.8117 27.5256 32.0879 29.8018 32.0879 32.6096V32.9856C32.0879 34.4264 31.5385 37.0468 28.1396 40.0999C25.4209 42.542 22.6944 45.8724 21.9199 47.1643C21.1455 45.8725 18.4181 42.5421 15.6992 40.0999C12.3007 37.047 11.752 34.4263 11.752 32.9856V32.6096C11.752 29.8018 14.0281 27.5256 16.8359 27.5256C19.6437 27.5257 21.9199 29.8018 21.9199 32.6096C21.9199 29.8018 24.196 27.5256 27.0039 27.5256Z" fill="#FF0100"/>
<rect x="10.3145" y="27.5256" width="11.609" height="19.6392" fill="url(#paint0_linear_1409_45868)"/>
</g>
<mask id="mask1_1409_45868" style="mask-type:alpha" maskUnits="userSpaceOnUse" x="8" y="23" width="5" height="5">
<path d="M11.5752 23.4021C12.2309 23.4024 12.7626 23.9339 12.7627 24.5896V24.6775C12.7627 25.014 12.6338 25.6264 11.8398 26.3396C11.2048 26.9101 10.5675 27.6883 10.3867 27.99C10.2059 27.6883 9.56876 26.9101 8.93359 26.3396C8.13979 25.6265 8.01172 25.014 8.01172 24.6775V24.5896C8.01177 23.9338 8.54345 23.4022 9.19922 23.4021C9.8551 23.4021 10.3867 23.9337 10.3867 24.5896C10.3868 23.9337 10.9193 23.4021 11.5752 23.4021Z" fill="#FF0100"/>
</mask>
<g mask="url(#mask1_1409_45868)">
<path d="M11.5752 23.4021C12.2309 23.4024 12.7626 23.9339 12.7627 24.5896V24.6775C12.7627 25.014 12.6338 25.6264 11.8398 26.3396C11.2048 26.9101 10.5675 27.6883 10.3867 27.99C10.2059 27.6883 9.56876 26.9101 8.93359 26.3396C8.13979 25.6265 8.01172 25.014 8.01172 24.6775V24.5896C8.01177 23.9338 8.54345 23.4022 9.19922 23.4021C9.8551 23.4021 10.3867 23.9337 10.3867 24.5896C10.3868 23.9337 10.9193 23.4021 11.5752 23.4021Z" fill="#FF0100"/>
</g>
<path d="M17.7441 16.9981C17.7441 17.761 17.5711 18.4649 17.225 19.1098C16.879 19.7547 16.4032 20.3131 15.7976 20.785C15.1998 21.249 14.4999 21.6108 13.6977 21.8704C12.8954 22.1378 12.0382 22.2715 11.1259 22.2715C10.2135 22.2715 9.35627 22.1378 8.55406 21.8704C7.75185 21.6108 7.04795 21.249 6.44235 20.785C5.84463 20.3131 5.37274 19.7547 5.02668 19.1098C4.68063 18.4649 4.5076 17.761 4.5076 16.9981C4.5076 16.5577 4.56659 16.129 4.68456 15.7122C4.80254 15.2875 4.97163 14.8903 5.19185 14.5207C5.41993 14.151 5.69126 13.8128 6.00585 13.5061C6.32045 13.1915 6.67437 12.9241 7.06761 12.7039C6.8238 12.4915 6.60358 12.2477 6.40696 11.9725C6.21821 11.6972 6.05304 11.4062 5.91148 11.0995C5.77777 10.7927 5.67553 10.4781 5.60475 10.1557C5.53397 9.82536 5.49857 9.49897 5.49857 9.17652C5.49857 8.51587 5.64407 7.89848 5.93507 7.32435C6.23394 6.74235 6.63897 6.23507 7.15019 5.8025C7.6614 5.36207 8.25913 5.01602 8.94337 4.76435C9.62761 4.51267 10.3551 4.38683 11.1259 4.38683C11.9045 4.38683 12.6359 4.51267 13.3201 4.76435C14.0044 5.01602 14.6021 5.36207 15.1133 5.8025C15.6324 6.23507 16.0374 6.74235 16.3284 7.32435C16.6273 7.89848 16.7767 8.51587 16.7767 9.17652C16.7767 9.49897 16.7374 9.82536 16.6588 10.1557C16.588 10.4781 16.4857 10.7967 16.352 11.1113C16.2183 11.418 16.0532 11.709 15.8566 11.9843C15.6678 12.2595 15.4515 12.5073 15.2077 12.7275C15.5931 12.9477 15.9431 13.2112 16.2577 13.5179C16.5723 13.8246 16.8397 14.1628 17.0599 14.5325C17.2801 14.9021 17.4492 15.2954 17.5672 15.7122C17.6851 16.129 17.7441 16.5577 17.7441 16.9981ZM13.4617 9.54223C13.4617 9.26696 13.3988 9.01135 13.273 8.77541C13.155 8.5316 12.9898 8.31925 12.7775 8.13836C12.573 7.95747 12.3292 7.8159 12.046 7.71366C11.7629 7.61142 11.464 7.56029 11.1495 7.56029C10.827 7.56029 10.5242 7.61142 10.2411 7.71366C9.95793 7.8159 9.71019 7.95747 9.49784 8.13836C9.29335 8.31925 9.12819 8.5316 9.00236 8.77541C8.88438 9.01135 8.8254 9.26696 8.8254 9.54223C8.8254 9.8175 8.88438 10.0731 9.00236 10.3091C9.12819 10.545 9.29335 10.7495 9.49784 10.9225C9.71019 11.0955 9.95793 11.2332 10.2411 11.3354C10.5242 11.4377 10.827 11.4888 11.1495 11.4888C11.464 11.4888 11.7629 11.4377 12.046 11.3354C12.3292 11.2332 12.573 11.0955 12.7775 10.9225C12.9898 10.7495 13.155 10.545 13.273 10.3091C13.3988 10.0731 13.4617 9.8175 13.4617 9.54223ZM14.3819 16.9037C14.3819 16.5262 14.2954 16.1762 14.1224 15.8538C13.9572 15.5234 13.7252 15.2364 13.4263 14.9926C13.1353 14.7487 12.7893 14.5561 12.3882 14.4145C11.9949 14.2729 11.5742 14.2021 11.1259 14.2021C10.6776 14.2021 10.2568 14.2729 9.86355 14.4145C9.47031 14.5561 9.12426 14.7487 8.8254 14.9926C8.5344 15.2364 8.30239 15.5234 8.12936 15.8538C7.9642 16.1762 7.88162 16.5262 7.88162 16.9037C7.88162 17.2812 7.9642 17.6273 8.12936 17.9419C8.30239 18.2565 8.5344 18.5278 8.8254 18.7559C9.12426 18.984 9.47031 19.1649 9.86355 19.2986C10.2568 19.4244 10.6776 19.4873 11.1259 19.4873C11.5742 19.4873 11.9949 19.4244 12.3882 19.2986C12.7893 19.1649 13.1353 18.984 13.4263 18.7559C13.7252 18.5278 13.9572 18.2565 14.1224 17.9419C14.2954 17.6273 14.3819 17.2812 14.3819 16.9037Z" fill="#FF0100"/>
</g>
<defs>
<linearGradient id="paint0_linear_1409_45868" x1="16.119" y1="27.5256" x2="16.119" y2="47.1648" gradientUnits="userSpaceOnUse">
<stop stop-color="white" stop-opacity="0.5"/>
<stop offset="1" stop-color="white" stop-opacity="0"/>
</linearGradient>
<clipPath id="clip0_1409_45868">
<rect width="36" height="50" rx="3.81" fill="white"/>
</clipPath>
</defs>
</svg>
