<svg width="36" height="50" viewBox="0 0 36 50" fill="none" xmlns="http://www.w3.org/2000/svg">
<g clip-path="url(#clip0_1409_48205)">
<rect x="0.541237" y="0.541237" width="34.9175" height="48.9175" rx="3.2732" fill="white" stroke="white" stroke-width="1.08247"/>
<mask id="mask0_1409_48205" style="mask-type:alpha" maskUnits="userSpaceOnUse" x="14" y="27" width="16" height="21">
<path d="M14.2409 37.3455L21.9329 27.5259L29.6249 37.3455L21.9329 47.165L14.2409 37.3455Z" fill="#FF0100"/>
</mask>
<g mask="url(#mask0_1409_48205)">
<path d="M14.2409 37.3455L21.9329 27.5259L29.6249 37.3455L21.9329 47.165L14.2409 37.3455Z" fill="#FF0100"/>
<rect x="14.2012" y="27.5259" width="7.70862" height="19.7533" fill="url(#paint0_linear_1409_48205)"/>
</g>
<path d="M8.98783 26.6477L11.2034 23.8193L13.419 26.6477L11.2034 29.4761L8.98783 26.6477Z" fill="#FF0100"/>
<path d="M16.9021 9.99053C16.9021 10.6905 16.7684 11.3511 16.501 11.9725C16.2336 12.5859 15.8679 13.1247 15.4039 13.5887C14.9477 14.0448 14.4129 14.4066 13.7994 14.674C13.186 14.9414 12.5293 15.0751 11.8293 15.0751H10.1305C9.89456 15.0751 9.67434 15.1184 9.46986 15.2049C9.26537 15.2914 9.08448 15.4133 8.92719 15.5706C8.77775 15.7201 8.65978 15.897 8.57327 16.1015C8.48675 16.306 8.4435 16.5262 8.4435 16.7621V18.4492H16.442V21.835H5.05769V16.7621C5.05769 16.0622 5.19139 15.4055 5.4588 14.792C5.7262 14.1707 6.08798 13.6319 6.54414 13.1758C7.00817 12.7118 7.54691 12.35 8.16036 12.0904C8.77382 11.823 9.43053 11.6893 10.1305 11.6893H11.8293C12.0653 11.6893 12.2855 11.6461 12.49 11.5596C12.6944 11.473 12.8714 11.3551 13.0208 11.2056C13.1781 11.0483 13.3 10.8675 13.3865 10.663C13.4731 10.4506 13.5163 10.2265 13.5163 9.99053C13.5163 9.75458 13.4731 9.53437 13.3865 9.32988C13.3 9.1254 13.1781 8.94844 13.0208 8.799C12.8714 8.64171 12.6944 8.5198 12.49 8.43329C12.2855 8.34678 12.0653 8.30352 11.8293 8.30352H5.78912V4.91771H11.8293C12.5293 4.91771 13.186 5.05141 13.7994 5.31882C14.4129 5.58622 14.9477 5.95194 15.4039 6.41596C15.8679 6.87212 16.2336 7.40693 16.501 8.02039C16.7684 8.63384 16.9021 9.29056 16.9021 9.99053Z" fill="#FF0100"/>
</g>
<defs>
<linearGradient id="paint0_linear_1409_48205" x1="18.0555" y1="27.5259" x2="18.0555" y2="47.2792" gradientUnits="userSpaceOnUse">
<stop stop-color="white" stop-opacity="0.5"/>
<stop offset="1" stop-color="white" stop-opacity="0"/>
</linearGradient>
<clipPath id="clip0_1409_48205">
<rect width="36" height="50" rx="3.81" fill="white"/>
</clipPath>
</defs>
</svg>
