<svg width="36" height="50" viewBox="0 0 36 50" fill="none" xmlns="http://www.w3.org/2000/svg">
<g clip-path="url(#clip0_1409_48227)">
<rect x="0.541237" y="0.541237" width="34.9175" height="48.9175" rx="3.2732" fill="white" stroke="white" stroke-width="1.08247"/>
<mask id="mask0_1409_48227" style="mask-type:alpha" maskUnits="userSpaceOnUse" x="14" y="27" width="16" height="21">
<path d="M14.2409 37.3455L21.9329 27.5259L29.6249 37.3455L21.9329 47.165L14.2409 37.3455Z" fill="#FF0100"/>
</mask>
<g mask="url(#mask0_1409_48227)">
<path d="M14.2409 37.3455L21.9329 27.5259L29.6249 37.3455L21.9329 47.165L14.2409 37.3455Z" fill="#FF0100"/>
<rect x="14.2012" y="27.5259" width="7.70862" height="19.7533" fill="url(#paint0_linear_1409_48227)"/>
</g>
<path d="M8.98783 26.6477L11.2034 23.8193L13.419 26.6477L11.2034 29.4761L8.98783 26.6477Z" fill="#FF0100"/>
<path d="M17.0437 16.7621C17.0437 17.4621 16.91 18.1188 16.6426 18.7323C16.3752 19.3457 16.0095 19.8845 15.5454 20.3485C15.0893 20.8047 14.5545 21.1665 13.941 21.4339C13.3276 21.7013 12.6708 21.835 11.9709 21.835H5.19926V18.4492H11.9709C12.2068 18.4492 12.427 18.4059 12.6315 18.3194C12.836 18.2329 13.013 18.1149 13.1624 17.9655C13.3197 17.8082 13.4416 17.6273 13.5281 17.4228C13.6146 17.2183 13.6579 16.9981 13.6579 16.7621C13.6579 16.5262 13.6146 16.306 13.5281 16.1015C13.4416 15.897 13.3197 15.7201 13.1624 15.5706C13.013 15.4133 12.836 15.2914 12.6315 15.2049C12.427 15.1184 12.2068 15.0751 11.9709 15.0751H7.35815V11.6893H11.9709C12.2068 11.6893 12.427 11.6461 12.6315 11.5596C12.836 11.473 13.013 11.3551 13.1624 11.2056C13.3197 11.0483 13.4416 10.8675 13.5281 10.663C13.6146 10.4506 13.6579 10.2265 13.6579 9.99053C13.6579 9.75458 13.6146 9.53437 13.5281 9.32988C13.4416 9.1254 13.3197 8.94844 13.1624 8.799C13.013 8.64171 12.836 8.5198 12.6315 8.43329C12.427 8.34678 12.2068 8.30352 11.9709 8.30352H5.19926V4.91771H11.9709C12.6708 4.91771 13.3276 5.05141 13.941 5.31882C14.5545 5.58622 15.0893 5.95194 15.5454 6.41596C16.0095 6.87212 16.3752 7.40693 16.6426 8.02039C16.91 8.63384 17.0437 9.29056 17.0437 9.99053C17.0437 10.6118 16.9297 11.2174 16.7016 11.8073C16.4735 12.3893 16.151 12.9123 15.7342 13.3763C16.151 13.8404 16.4735 14.3673 16.7016 14.9572C16.9297 15.5392 17.0437 16.1408 17.0437 16.7621Z" fill="#FF0100"/>
</g>
<defs>
<linearGradient id="paint0_linear_1409_48227" x1="18.0555" y1="27.5259" x2="18.0555" y2="47.2792" gradientUnits="userSpaceOnUse">
<stop stop-color="white" stop-opacity="0.5"/>
<stop offset="1" stop-color="white" stop-opacity="0"/>
</linearGradient>
<clipPath id="clip0_1409_48227">
<rect width="36" height="50" rx="3.81" fill="white"/>
</clipPath>
</defs>
</svg>
