<svg width="36" height="50" viewBox="0 0 36 50" fill="none" xmlns="http://www.w3.org/2000/svg">
<g clip-path="url(#clip0_1409_48293)">
<rect x="0.541237" y="0.541237" width="34.9175" height="48.9175" rx="3.2732" fill="white" stroke="white" stroke-width="1.08247"/>
<mask id="mask0_1409_48293" style="mask-type:alpha" maskUnits="userSpaceOnUse" x="14" y="27" width="16" height="21">
<path d="M14.2409 37.3455L21.9329 27.5259L29.6249 37.3455L21.9329 47.165L14.2409 37.3455Z" fill="#FF0100"/>
</mask>
<g mask="url(#mask0_1409_48293)">
<path d="M14.2409 37.3455L21.9329 27.5259L29.6249 37.3455L21.9329 47.165L14.2409 37.3455Z" fill="#FF0100"/>
<rect x="14.2012" y="27.5259" width="7.70862" height="19.7533" fill="url(#paint0_linear_1409_48293)"/>
</g>
<path d="M8.98783 26.6477L11.2034 23.8193L13.419 26.6477L11.2034 29.4761L8.98783 26.6477Z" fill="#FF0100"/>
<path d="M17.3268 16.5144C17.3268 17.3402 17.1813 18.0834 16.8903 18.7441C16.5993 19.4047 16.21 19.9631 15.7224 20.4193C15.2348 20.8755 14.6685 21.2254 14.0236 21.4692C13.3865 21.7131 12.718 21.835 12.0181 21.835H5.19926V18.4492H12.0181C12.2461 18.4492 12.4742 18.4138 12.7023 18.343C12.9382 18.2722 13.1467 18.1582 13.3276 18.0009C13.5163 17.8436 13.6657 17.643 13.7759 17.3992C13.8938 17.1554 13.9528 16.8605 13.9528 16.5144C13.9528 16.1998 13.8938 15.9245 13.7759 15.6886C13.6657 15.4448 13.5163 15.2442 13.3276 15.0869C13.1467 14.9218 12.9382 14.7999 12.7023 14.7212C12.4742 14.6347 12.2461 14.5915 12.0181 14.5915H5.19926L6.19022 4.91771H16.6308V8.30352H9.23391L8.92719 11.2056H12.0181C12.718 11.2056 13.3865 11.3275 14.0236 11.5714C14.6685 11.8152 15.2348 12.1691 15.7224 12.6331C16.21 13.0893 16.5993 13.6477 16.8903 14.3083C17.1813 14.9611 17.3268 15.6965 17.3268 16.5144Z" fill="#FF0100"/>
</g>
<defs>
<linearGradient id="paint0_linear_1409_48293" x1="18.0555" y1="27.5259" x2="18.0555" y2="47.2792" gradientUnits="userSpaceOnUse">
<stop stop-color="white" stop-opacity="0.5"/>
<stop offset="1" stop-color="white" stop-opacity="0"/>
</linearGradient>
<clipPath id="clip0_1409_48293">
<rect width="36" height="50" rx="3.81" fill="white"/>
</clipPath>
</defs>
</svg>
