<svg width="36" height="50" viewBox="0 0 36 50" fill="none" xmlns="http://www.w3.org/2000/svg">
<g clip-path="url(#clip0_1409_48381)">
<rect x="0.541237" y="0.541237" width="34.9175" height="48.9175" rx="3.2732" fill="white" stroke="white" stroke-width="1.08247"/>
<mask id="mask0_1409_48381" style="mask-type:alpha" maskUnits="userSpaceOnUse" x="14" y="27" width="16" height="21">
<path d="M14.2409 37.3455L21.9329 27.5259L29.6249 37.3455L21.9329 47.165L14.2409 37.3455Z" fill="#FF0100"/>
</mask>
<g mask="url(#mask0_1409_48381)">
<path d="M14.2409 37.3455L21.9329 27.5259L29.6249 37.3455L21.9329 47.165L14.2409 37.3455Z" fill="#FF0100"/>
<rect x="14.2012" y="27.5259" width="7.70862" height="19.7533" fill="url(#paint0_linear_1409_48381)"/>
</g>
<path d="M8.98783 26.6477L11.2034 23.8193L13.419 26.6477L11.2034 29.4761L8.98783 26.6477Z" fill="#FF0100"/>
<path d="M18.1054 16.9981C18.1054 17.761 17.9324 18.4649 17.5864 19.1098C17.2403 19.7547 16.7645 20.3131 16.1589 20.785C15.5612 21.249 14.8612 21.6108 14.059 21.8704C13.2568 22.1378 12.3995 22.2715 11.4872 22.2715C10.5749 22.2715 9.7176 22.1378 8.91539 21.8704C8.11318 21.6108 7.40927 21.249 6.80368 20.785C6.20595 20.3131 5.73406 19.7547 5.38801 19.1098C5.04196 18.4649 4.86893 17.761 4.86893 16.9981C4.86893 16.5577 4.92792 16.129 5.04589 15.7122C5.16386 15.2875 5.33296 14.8903 5.55317 14.5207C5.78125 14.151 6.05259 13.8128 6.36718 13.5061C6.68178 13.1915 7.03569 12.9241 7.42894 12.7039C7.18513 12.4915 6.96491 12.2477 6.76829 11.9725C6.57953 11.6972 6.41437 11.4062 6.27281 11.0995C6.1391 10.7927 6.03686 10.4781 5.96608 10.1557C5.89529 9.82536 5.8599 9.49897 5.8599 9.17652C5.8599 8.51587 6.0054 7.89848 6.2964 7.32435C6.59526 6.74235 7.0003 6.23507 7.51152 5.8025C8.02273 5.36207 8.62046 5.01602 9.3047 4.76435C9.98894 4.51267 10.7164 4.38683 11.4872 4.38683C12.2658 4.38683 12.9972 4.51267 13.6815 4.76435C14.3657 5.01602 14.9634 5.36207 15.4747 5.8025C15.9937 6.23507 16.3988 6.74235 16.6898 7.32435C16.9886 7.89848 17.1381 8.51587 17.1381 9.17652C17.1381 9.49897 17.0987 9.82536 17.0201 10.1557C16.9493 10.4781 16.8471 10.7967 16.7134 11.1113C16.5797 11.418 16.4145 11.709 16.2179 11.9843C16.0291 12.2595 15.8128 12.5073 15.569 12.7275C15.9544 12.9477 16.3044 13.2112 16.619 13.5179C16.9336 13.8246 17.201 14.1628 17.4212 14.5325C17.6414 14.9021 17.8105 15.2954 17.9285 15.7122C18.0465 16.129 18.1054 16.5577 18.1054 16.9981ZM13.823 9.54223C13.823 9.26696 13.7601 9.01135 13.6343 8.77541C13.5163 8.5316 13.3512 8.31925 13.1388 8.13836C12.9343 7.95747 12.6905 7.8159 12.4074 7.71366C12.1242 7.61142 11.8254 7.56029 11.5108 7.56029C11.1883 7.56029 10.8855 7.61142 10.6024 7.71366C10.3193 7.8159 10.0715 7.95747 9.85917 8.13836C9.65468 8.31925 9.48952 8.5316 9.36368 8.77541C9.24571 9.01135 9.18672 9.26696 9.18672 9.54223C9.18672 9.8175 9.24571 10.0731 9.36368 10.3091C9.48952 10.545 9.65468 10.7495 9.85917 10.9225C10.0715 11.0955 10.3193 11.2332 10.6024 11.3354C10.8855 11.4377 11.1883 11.4888 11.5108 11.4888C11.8254 11.4888 12.1242 11.4377 12.4074 11.3354C12.6905 11.2332 12.9343 11.0955 13.1388 10.9225C13.3512 10.7495 13.5163 10.545 13.6343 10.3091C13.7601 10.0731 13.823 9.8175 13.823 9.54223ZM14.7432 16.9037C14.7432 16.5262 14.6567 16.1762 14.4837 15.8538C14.3185 15.5234 14.0865 15.2364 13.7877 14.9926C13.4967 14.7487 13.1506 14.5561 12.7495 14.4145C12.3563 14.2729 11.9355 14.2021 11.4872 14.2021C11.0389 14.2021 10.6181 14.2729 10.2249 14.4145C9.83164 14.5561 9.48559 14.7487 9.18672 14.9926C8.89573 15.2364 8.66371 15.5234 8.49069 15.8538C8.32553 16.1762 8.24295 16.5262 8.24295 16.9037C8.24295 17.2812 8.32553 17.6273 8.49069 17.9419C8.66371 18.2565 8.89573 18.5278 9.18672 18.7559C9.48559 18.984 9.83164 19.1649 10.2249 19.2986C10.6181 19.4244 11.0389 19.4873 11.4872 19.4873C11.9355 19.4873 12.3563 19.4244 12.7495 19.2986C13.1506 19.1649 13.4967 18.984 13.7877 18.7559C14.0865 18.5278 14.3185 18.2565 14.4837 17.9419C14.6567 17.6273 14.7432 17.2812 14.7432 16.9037Z" fill="#FF0100"/>
</g>
<defs>
<linearGradient id="paint0_linear_1409_48381" x1="18.0555" y1="27.5259" x2="18.0555" y2="47.2792" gradientUnits="userSpaceOnUse">
<stop stop-color="white" stop-opacity="0.5"/>
<stop offset="1" stop-color="white" stop-opacity="0"/>
</linearGradient>
<clipPath id="clip0_1409_48381">
<rect width="36" height="50" rx="3.81" fill="white"/>
</clipPath>
</defs>
</svg>
