<svg width="36" height="50" viewBox="0 0 36 50" fill="none" xmlns="http://www.w3.org/2000/svg">
<g clip-path="url(#clip0_1409_48271)">
<rect x="0.541237" y="0.541237" width="34.9175" height="48.9175" rx="3.2732" fill="white" stroke="white" stroke-width="1.08247"/>
<mask id="mask0_1409_48271" style="mask-type:alpha" maskUnits="userSpaceOnUse" x="14" y="27" width="16" height="21">
<path d="M14.2409 37.3455L21.9329 27.5259L29.6249 37.3455L21.9329 47.165L14.2409 37.3455Z" fill="#FF0100"/>
</mask>
<g mask="url(#mask0_1409_48271)">
<path d="M14.2409 37.3455L21.9329 27.5259L29.6249 37.3455L21.9329 47.165L14.2409 37.3455Z" fill="#FF0100"/>
<rect x="14.2012" y="27.5259" width="7.70862" height="19.7533" fill="url(#paint0_linear_1409_48271)"/>
</g>
<path d="M8.98783 26.6477L11.2034 23.8193L13.419 26.6477L11.2034 29.4761L8.98783 26.6477Z" fill="#FF0100"/>
<path d="M17.9875 11.1349C17.9875 12.2202 17.8774 13.282 17.6571 14.3201C17.4448 15.3504 17.1341 16.3256 16.7252 17.2458C16.3162 18.166 15.8168 19.0154 15.2269 19.794C14.6371 20.5727 13.9685 21.253 13.2214 21.835H8.65585C9.1356 21.5282 9.59963 21.1861 10.0479 20.8086C10.4962 20.4311 10.9209 20.026 11.322 19.5935C11.731 19.1609 12.1085 18.7048 12.4546 18.225C12.8006 17.7452 13.1073 17.2498 13.3747 16.7386C13.0287 16.9666 12.659 17.1633 12.2658 17.3284C11.8726 17.4857 11.4675 17.5644 11.0507 17.5644C10.0912 17.5644 9.22998 17.4071 8.46709 17.0925C7.7042 16.77 7.05142 16.3256 6.50875 15.7594C5.97394 15.1852 5.56104 14.5049 5.27004 13.7185C4.98691 12.932 4.84534 12.0708 4.84534 11.1349C4.84534 10.2225 5.00657 9.36134 5.32903 8.55126C5.65935 7.73332 6.11158 7.02155 6.68571 6.41596C7.25984 5.8025 7.94015 5.31882 8.72663 4.9649C9.51312 4.61098 10.3664 4.43402 11.2866 4.43402C12.2147 4.43402 13.0837 4.61098 13.8938 4.9649C14.7118 5.31882 15.4235 5.8025 16.0291 6.41596C16.6347 7.02155 17.1105 7.73332 17.4566 8.55126C17.8105 9.36134 17.9875 10.2225 17.9875 11.1349ZM14.3657 11.1349C14.3657 10.7023 14.291 10.2855 14.1416 9.88435C13.9921 9.48324 13.7798 9.12933 13.5045 8.8226C13.2371 8.51587 12.9147 8.27206 12.5371 8.09117C12.1596 7.91028 11.7428 7.81983 11.2866 7.81983C10.8226 7.81983 10.4018 7.91028 10.0243 8.09117C9.65468 8.2642 9.33616 8.50014 9.06875 8.799C8.80135 9.09787 8.59686 9.44785 8.4553 9.84896C8.31373 10.2501 8.24295 10.6787 8.24295 11.1349C8.24295 11.5832 8.31373 12.0079 8.4553 12.409C8.59686 12.8022 8.80135 13.1483 9.06875 13.4471C9.33616 13.746 9.65468 13.9819 10.0243 14.155C10.4018 14.328 10.8226 14.4145 11.2866 14.4145C11.7507 14.4145 12.1714 14.328 12.5489 14.155C12.9343 13.9819 13.2607 13.746 13.5281 13.4471C13.7955 13.1483 14 12.8022 14.1416 12.409C14.291 12.0079 14.3657 11.5832 14.3657 11.1349Z" fill="#FF0100"/>
</g>
<defs>
<linearGradient id="paint0_linear_1409_48271" x1="18.0555" y1="27.5259" x2="18.0555" y2="47.2792" gradientUnits="userSpaceOnUse">
<stop stop-color="white" stop-opacity="0.5"/>
<stop offset="1" stop-color="white" stop-opacity="0"/>
</linearGradient>
<clipPath id="clip0_1409_48271">
<rect width="36" height="50" rx="3.81" fill="white"/>
</clipPath>
</defs>
</svg>
