<svg width="36" height="50" viewBox="0 0 36 50" fill="none" xmlns="http://www.w3.org/2000/svg">
<g clip-path="url(#clip0_1409_46018)">
<rect x="0.541237" y="0.541237" width="34.9175" height="48.9175" rx="3.2732" fill="white" stroke="white" stroke-width="1.08247"/>
<mask id="mask0_1409_46018" style="mask-type:alpha" maskUnits="userSpaceOnUse" x="14" y="27" width="16" height="21">
<path d="M14.2409 37.3455L21.9329 27.5259L29.6249 37.3455L21.9329 47.165L14.2409 37.3455Z" fill="#FF0100"/>
</mask>
<g mask="url(#mask0_1409_46018)">
<path d="M14.2409 37.3455L21.9329 27.5259L29.6249 37.3455L21.9329 47.165L14.2409 37.3455Z" fill="#FF0100"/>
<rect x="14.2012" y="27.5259" width="7.70862" height="19.7533" fill="url(#paint0_linear_1409_46018)"/>
</g>
<path d="M8.98783 26.6477L11.2034 23.8193L13.419 26.6477L11.2034 29.4761L8.98783 26.6477Z" fill="#FF0100"/>
<path d="M15.5454 15.0751V11.6893C15.5454 11.2253 15.455 10.7888 15.2741 10.3798C15.1011 9.963 14.8612 9.60122 14.5545 9.29449C14.2477 8.98776 13.886 8.74788 13.4691 8.57486C13.0602 8.39397 12.6237 8.30352 12.1596 8.30352C11.6956 8.30352 11.2552 8.39397 10.8383 8.57486C10.4294 8.74788 10.0715 8.98776 9.76479 9.29449C9.45806 9.60122 9.21425 9.963 9.03336 10.3798C8.86033 10.7888 8.77382 11.2253 8.77382 11.6893V15.0751H15.5454ZM18.9312 21.835H15.5454V18.4492H8.77382V21.835H5.39981V11.6893C5.39981 10.7534 5.57677 9.87649 5.93069 9.05854C6.2846 8.23274 6.76436 7.5131 7.36995 6.89965C7.98341 6.28619 8.69911 5.8025 9.51705 5.44859C10.3429 5.09467 11.2237 4.91771 12.1596 4.91771C13.0955 4.91771 13.9725 5.09467 14.7904 5.44859C15.6162 5.8025 16.3359 6.28619 16.9493 6.89965C17.5628 7.5131 18.0465 8.23274 18.4004 9.05854C18.7543 9.87649 18.9312 10.7534 18.9312 11.6893V21.835Z" fill="#FF0100"/>
</g>
<defs>
<linearGradient id="paint0_linear_1409_46018" x1="18.0555" y1="27.5259" x2="18.0555" y2="47.2792" gradientUnits="userSpaceOnUse">
<stop stop-color="white" stop-opacity="0.5"/>
<stop offset="1" stop-color="white" stop-opacity="0"/>
</linearGradient>
<clipPath id="clip0_1409_46018">
<rect width="36" height="50" rx="3.81" fill="white"/>
</clipPath>
</defs>
</svg>
