<svg width="36" height="50" viewBox="0 0 36 50" fill="none" xmlns="http://www.w3.org/2000/svg">
<g clip-path="url(#clip0_1409_48337)">
<rect x="0.541237" y="0.541237" width="34.9175" height="48.9175" rx="3.2732" fill="white" stroke="white" stroke-width="1.08247"/>
<mask id="mask0_1409_48337" style="mask-type:alpha" maskUnits="userSpaceOnUse" x="14" y="27" width="16" height="21">
<path d="M14.2409 37.3455L21.9329 27.5259L29.6249 37.3455L21.9329 47.165L14.2409 37.3455Z" fill="#FF0100"/>
</mask>
<g mask="url(#mask0_1409_48337)">
<path d="M14.2409 37.3455L21.9329 27.5259L29.6249 37.3455L21.9329 47.165L14.2409 37.3455Z" fill="#FF0100"/>
<rect x="14.2012" y="27.5259" width="7.70862" height="19.7533" fill="url(#paint0_linear_1409_48337)"/>
</g>
<path d="M8.98783 26.6477L11.2034 23.8193L13.419 26.6477L11.2034 29.4761L8.98783 26.6477Z" fill="#FF0100"/>
<path d="M12.7141 15.0751C12.7141 16.0111 12.5371 16.8919 12.1832 17.7177C11.8293 18.5357 11.3456 19.2514 10.7322 19.8648C10.1266 20.4704 9.41087 20.9502 8.58507 21.3041C7.76712 21.658 6.89019 21.835 5.95428 21.835C5.38801 21.835 4.82174 21.7642 4.25548 21.6226V17.9891C4.50715 18.1385 4.77849 18.2525 5.06949 18.3312C5.36048 18.4098 5.65542 18.4492 5.95428 18.4492C6.4183 18.4492 6.8548 18.3626 7.26377 18.1896C7.68061 18.0087 8.04239 17.7649 8.34912 17.4582C8.65585 17.1515 8.89573 16.7936 9.06875 16.3846C9.24964 15.9757 9.34009 15.5392 9.34009 15.0751V4.91771H12.7141V15.0751Z" fill="#FF0100"/>
</g>
<defs>
<linearGradient id="paint0_linear_1409_48337" x1="18.0555" y1="27.5259" x2="18.0555" y2="47.2792" gradientUnits="userSpaceOnUse">
<stop stop-color="white" stop-opacity="0.5"/>
<stop offset="1" stop-color="white" stop-opacity="0"/>
</linearGradient>
<clipPath id="clip0_1409_48337">
<rect width="36" height="50" rx="3.81" fill="white"/>
</clipPath>
</defs>
</svg>
